<?xml version="1.0" encoding="utf-8"?>
<!-- Generator: Adobe Illustrator 28.2.0, SVG Export Plug-In . SVG Version: 6.00 Build 0)  -->
<svg version="1.1" id="Layer_1" xmlns="http://www.w3.org/2000/svg" xmlns:xlink="http://www.w3.org/1999/xlink" x="0px" y="0px"
	 viewBox="0 0 24 24" style="enable-background:new 0 0 24 24;" xml:space="preserve">
<style type="text/css">
	.st0{fill:#FBFBFB;}
	.st1{fill:#E3FF3C;}
	.st2{fill:#3F5DBA;}
</style>
<g>
	<path class="st0" d="M12.9,12.2c0,0.8-0.3,1.6-0.8,2.2c-0.4,0.5-1,0.8-1.5,1.1c-0.4,0.2-0.7,0.3-1.1,0.3c-0.2,0-0.3,0-0.5,0.1
		c0,0-0.1,0-0.1,0c-0.1,0-0.2,0-0.3,0c-0.1,0-0.1,0-0.2,0c0,0,0,0-0.1,0c-2.2,0-4.5,0-6.7,0c-0.1,0-0.1,0-0.2,0c0,0,0,0,0,0
		c0-0.1,0-0.1,0-0.2c0-4.5,0-9,0-13.5c0-0.1,0-0.1,0-0.2c0,0,0,0,0.1,0c0,0,0.1,0,0.1,0c2.1,0,4.2,0,6.3,0c0,0,0.1,0,0.1,0
		c0,0,0.1,0,0.1,0c0,0,0.1,0,0.1,0v0c0,0,0.1,0,0.1,0c0.1,0,0.3,0,0.4,0c0.6,0.1,1.2,0.2,1.8,0.4C11.2,2.8,11.7,3.3,12,4
		c0.2,0.4,0.2,0.8,0.3,1.3c0,0.2,0,0.4,0,0.6c0,0,0,0,0,0c-0.1,0.7-0.3,1.3-0.8,1.8c-0.3,0.3-0.6,0.5-0.9,0.6c0,0-0.1,0-0.1,0.1
		c0.2,0.1,0.3,0.1,0.5,0.2c1,0.4,1.6,1.2,1.9,2.2c0.1,0.3,0.1,0.5,0.1,0.8c0,0,0,0,0,0c0,0,0,0,0,0C12.9,11.8,12.9,12,12.9,12.2
		C12.9,12.2,12.9,12.2,12.9,12.2z M4.4,4.4C4.4,4.5,4.4,4.5,4.4,4.4c0,0.1,0,0.1,0,0.1c0,1,0,2.1,0,3.1c0,0,0.1,0,0.1,0c1,0,2,0,3,0
		c0,0,0.1,0,0.1,0c0.3,0,0.7-0.1,1-0.3C8.9,7.2,9.1,7,9.2,6.7c0.1-0.3,0.1-0.6,0.1-0.9C9.2,5.3,9,4.9,8.5,4.7C8.3,4.5,8,4.5,7.7,4.5
		c-0.1,0-0.2,0-0.2,0c0,0-0.1,0-0.1,0C6.4,4.4,5.4,4.4,4.4,4.4C4.4,4.4,4.4,4.4,4.4,4.4z M4.4,9.8C4.4,9.8,4.4,9.8,4.4,9.8
		c0,0.1,0,0.1,0,0.1c0,1.2,0,2.4,0,3.7c0,0,0.1,0,0.1,0c1.1,0,2.2,0,3.3,0c0,0,0.1,0,0.1,0c0.1,0,0.2,0,0.3,0c0.2,0,0.5-0.1,0.7-0.2
		c0.4-0.2,0.7-0.5,0.9-1c0.1-0.5,0.1-1,0-1.4c-0.1-0.3-0.2-0.5-0.5-0.7C8.9,9.9,8.5,9.8,8.1,9.8c-0.1,0-0.2,0-0.3,0
		c-1.1,0-2.2,0-3.3,0C4.5,9.8,4.4,9.8,4.4,9.8z"/>
	<path class="st0" d="M17.7,15.9c-0.2,0-0.3,0-0.5-0.1c-0.8-0.2-1.6-0.5-2.2-1.1c-0.7-0.6-1.1-1.4-1.4-2.2c-0.1-0.4-0.2-0.9-0.2-1.3
		c0,0,0,0,0,0c0,0,0,0,0,0c0-0.4,0-0.7,0-1.1c0,0,0,0,0,0c0-0.5,0.2-1.1,0.4-1.6c0.5-1.2,1.3-2.1,2.4-2.6c0.4-0.2,0.8-0.3,1.2-0.4
		c0,0,0.1,0,0.2,0c0.1,0,0.2,0,0.2,0l0,0c0.1,0,0.2,0,0.3,0c0,0,0,0,0,0c0.3,0,0.7,0,1,0c0.9,0.1,1.8,0.4,2.5,1
		c0.7,0.6,1.1,1.3,1.4,2.1c0.2,0.5,0.3,1.1,0.4,1.6c0,0.1,0,0.1,0,0.2c0,0,0,0,0,0c0,0.3,0,0.6,0,0.9c0,0,0,0,0,0c0,0,0,0,0,0
		c0,0,0,0,0,0c-0.1,0-0.1,0-0.2,0c-2.3,0-4.6,0-6.9,0c0,0-0.1,0-0.1,0c0,0,0,0,0,0.1c0,0,0,0.1,0,0.1c0,0,0,0,0,0
		c0,0.4,0.1,0.8,0.3,1.2c0.3,0.5,0.7,0.9,1.3,1c0.2,0,0.4,0.1,0.6,0.1c0.1,0,0.3,0,0.4,0c0,0,0.1,0,0.1,0c0.6,0,1.1-0.3,1.5-0.6
		c0.2-0.2,0.3-0.4,0.4-0.6c0.1,0,0.1,0,0.2,0c0.7,0,1.5,0,2.2,0c-0.3,1-0.8,1.9-1.7,2.5c-0.5,0.3-1,0.6-1.6,0.7
		c-0.2,0.1-0.5,0.1-0.8,0.1c-0.1,0-0.2,0-0.3,0l0,0c-0.3,0-0.6,0-0.9,0l0,0C17.9,15.9,17.8,15.9,17.7,15.9z M16.1,9.6
		c0,0,0.1,0,0.1,0c1,0,2.1,0,3.1,0c0.4,0,0.7,0,1.1,0c0,0,0.1,0,0.1,0c0-0.1,0-0.1,0-0.2c-0.1-0.4-0.2-0.7-0.4-1
		c-0.2-0.3-0.5-0.6-0.8-0.7c-0.2-0.1-0.3-0.1-0.5-0.1c0,0-0.1,0-0.1,0c-0.2,0-0.4,0-0.6,0c0,0-0.1,0-0.1,0c-0.2,0-0.3,0.1-0.5,0.1
		c-0.7,0.3-1.1,0.8-1.3,1.6C16.1,9.3,16.1,9.4,16.1,9.6z"/>
	<path class="st0" d="M15.6,4.3c0-0.3,0-0.7,0-1c0-0.2,0-0.3,0-0.5c0,0,0.1,0,0.1,0c1.8,0,3.7,0,5.5,0c0,0.5,0,1,0,1.5c0,0,0,0,0,0
		c0,0-0.1,0-0.1,0c-1.8,0-3.5,0-5.3,0C15.7,4.3,15.7,4.3,15.6,4.3C15.6,4.3,15.6,4.3,15.6,4.3z"/>
</g>
<path class="st1" d="M21,22.9H2.8c-1.1,0-2-0.9-2-2v-4.5c0-1.1,0.9-2,2-2h18.3c1.1,0,2,0.9,2,2v4.5C23,22,22.1,22.9,21,22.9z"/>
<g>
	<path class="st2" d="M3.8,21.7c-0.4,0-0.8-0.1-1.1-0.2c-0.3-0.2-0.6-0.4-0.8-0.7c-0.2-0.3-0.3-0.6-0.3-1v-0.2h1v0.2
		c0,0.3,0.1,0.6,0.3,0.8s0.5,0.3,0.8,0.3c0.4,0,0.6-0.1,0.8-0.2c0.2-0.1,0.3-0.3,0.3-0.6c0-0.2,0-0.3-0.1-0.4s-0.2-0.2-0.4-0.2
		c-0.2-0.1-0.4-0.1-0.6-0.2l-0.2,0c-0.4-0.1-0.7-0.2-1-0.3c-0.3-0.1-0.5-0.3-0.6-0.5c-0.1-0.2-0.2-0.5-0.2-0.8
		c0-0.3,0.1-0.6,0.2-0.9c0.2-0.2,0.4-0.4,0.7-0.6s0.6-0.2,1-0.2s0.8,0.1,1.1,0.2s0.6,0.3,0.7,0.6c0.2,0.3,0.3,0.6,0.3,1v0.2h-1v-0.2
		c0-0.2,0-0.4-0.1-0.5c-0.1-0.1-0.2-0.2-0.4-0.3c-0.2-0.1-0.3-0.1-0.6-0.1c-0.3,0-0.6,0.1-0.7,0.2c-0.2,0.1-0.2,0.3-0.2,0.5
		c0,0.1,0,0.3,0.1,0.4C2.9,17.9,3,18,3.2,18.1c0.1,0.1,0.3,0.1,0.6,0.2l0.2,0c0.4,0.1,0.7,0.2,1,0.3c0.3,0.1,0.5,0.3,0.7,0.5
		c0.2,0.2,0.2,0.5,0.2,0.8c0,0.3-0.1,0.6-0.3,0.9s-0.4,0.5-0.7,0.6C4.6,21.6,4.2,21.7,3.8,21.7z"/>
	<path class="st2" d="M8.9,21.7c-0.7,0-1.3-0.2-1.7-0.6s-0.6-0.9-0.6-1.7v-1.3c0-0.7,0.2-1.3,0.6-1.7s1-0.6,1.7-0.6s1.3,0.2,1.7,0.6
		s0.6,0.9,0.6,1.7v1.3c0,0.7-0.2,1.3-0.6,1.7S9.6,21.7,8.9,21.7z M8.9,20.7c0.4,0,0.7-0.1,0.9-0.3s0.3-0.5,0.3-0.9v-1.4
		c0-0.4-0.1-0.7-0.3-0.9s-0.5-0.3-0.9-0.3c-0.4,0-0.7,0.1-0.9,0.3c-0.2,0.2-0.3,0.5-0.3,0.9v1.4c0,0.4,0.1,0.7,0.3,0.9
		C8.2,20.6,8.5,20.7,8.9,20.7z"/>
	<path class="st2" d="M14.3,21.7c-0.7,0-1.3-0.2-1.7-0.6c-0.4-0.4-0.6-0.9-0.6-1.7v-1.3c0-0.7,0.2-1.3,0.6-1.7
		c0.4-0.4,1-0.6,1.7-0.6s1.3,0.2,1.7,0.6s0.6,0.9,0.6,1.7v1.3c0,0.7-0.2,1.3-0.6,1.7S15,21.7,14.3,21.7z M14.3,20.7
		c0.4,0,0.7-0.1,0.9-0.3s0.3-0.5,0.3-0.9v-1.4c0-0.4-0.1-0.7-0.3-0.9s-0.5-0.3-0.9-0.3c-0.4,0-0.7,0.1-0.9,0.3
		c-0.2,0.2-0.3,0.5-0.3,0.9v1.4c0,0.4,0.1,0.7,0.3,0.9C13.6,20.6,13.9,20.7,14.3,20.7z"/>
	<path class="st2" d="M17.5,21.6V16h2l1.1,4.9h0.1V16h1v5.6h-2l-1.1-4.9h-0.1v4.9H17.5z"/>
</g>
</svg>
