<?xml version="1.0" encoding="utf-8"?>
<!-- Generator: Adobe Illustrator 28.2.0, SVG Export Plug-In . SVG Version: 6.00 Build 0)  -->
<svg version="1.1" id="Layer_1" xmlns="http://www.w3.org/2000/svg" xmlns:xlink="http://www.w3.org/1999/xlink" x="0px" y="0px"
	 viewBox="0 0 24 24" style="enable-background:new 0 0 24 24;" xml:space="preserve">
<path d="M15.7,15.1c-1.1-0.1-2-1-2-2.1c0,0,0-0.1,0-0.1v0c0,0,0-0.1,0-0.1c0-1.1,0.9-2,2-2.1h0c1.1,0.1,2,1,2,2.1c0,0,0,0.1,0,0.1v0
	c0,0,0,0.1,0,0.1C17.6,14.1,16.8,15,15.7,15.1L15.7,15.1L15.7,15.1z M8.4,15.1c-1.1-0.1-2-1-2-2.1c0,0,0-0.1,0-0.1v0
	c0,0,0-0.1,0-0.1c0-1.1,0.9-2,2-2.1h0c1.1,0.1,2,1,2,2.1c0,0,0,0.1,0,0.1v0c0,0,0,0.1,0,0.1C10.3,14.1,9.5,15,8.4,15.1L8.4,15.1z
	 M19.6,5c-1.3-0.6-2.8-1.1-4.4-1.4l-0.1,0c0,0,0,0,0,0c0,0,0,0-0.1,0l0,0c-0.2,0.3-0.4,0.7-0.5,1.1l0,0.1c-0.8-0.1-1.6-0.2-2.5-0.2
	s-1.8,0.1-2.6,0.2l0.1,0C9.3,4.3,9.1,4,8.9,3.6l0,0.1c0,0,0,0-0.1,0c0,0,0,0,0,0h0C7.2,3.9,5.7,4.4,4.3,5.1l0.1,0c0,0,0,0,0,0l0,0
	C2.3,8,1,11.7,1,15.7c0,0.7,0,1.3,0.1,2l0-0.1c0,0,0,0,0,0.1l0,0c1.6,1.2,3.4,2.1,5.4,2.7l0.1,0c0,0,0,0,0,0c0,0,0,0,0.1,0l0,0
	c0.4-0.5,0.8-1.1,1.1-1.8l0-0.1c0,0,0,0,0,0c0,0,0-0.1,0-0.1h0c-0.7-0.3-1.2-0.5-1.8-0.8l0.1,0c0,0,0,0,0-0.1c0,0,0,0,0-0.1l0,0
	c0.1-0.1,0.2-0.2,0.3-0.3c0,0,0,0,0,0c0,0,0,0,0,0h0C8.1,18,10,18.5,12,18.5s3.9-0.5,5.6-1.3l-0.1,0c0,0,0,0,0,0c0,0,0,0,0,0l0,0
	c0.1,0.1,0.2,0.2,0.3,0.3c0,0,0,0,0,0.1c0,0,0,0,0,0.1l0,0c-0.5,0.3-1,0.6-1.6,0.8l-0.1,0c0,0,0,0,0,0.1c0,0,0,0,0,0v0
	c0.4,0.7,0.7,1.3,1.2,1.9l0,0c0,0,0,0,0.1,0c0,0,0,0,0,0h0c2.1-0.7,3.9-1.6,5.5-2.8l0,0c0,0,0,0,0-0.1l0,0C23,17,23,16.3,23,15.6
	C23,11.7,21.7,8,19.6,5L19.6,5C19.6,5,19.6,5,19.6,5L19.6,5L19.6,5z"/>
</svg>
