<svg width="24" height="24" viewBox="0 0 24 24" fill="none" xmlns="http://www.w3.org/2000/svg">
<mask id="mask0_2330_8726" style="mask-type:alpha" maskUnits="userSpaceOnUse" x="0" y="0" width="24" height="24">
<rect width="24" height="24" fill="#D9D9D9"/>
</mask>
<g mask="url(#mask0_2330_8726)">
<path d="M21.6 23L18.9 20.3C18.5333 20.5167 18.15 20.6875 17.75 20.8125C17.35 20.9375 16.9333 21 16.5 21C15.25 21 14.1875 20.5625 13.3125 19.6875C12.4375 18.8125 12 17.75 12 16.5C12 15.25 12.4375 14.1875 13.3125 13.3125C14.1875 12.4375 15.25 12 16.5 12C17.75 12 18.8125 12.4375 19.6875 13.3125C20.5625 14.1875 21 15.25 21 16.5C21 16.9333 20.9375 17.35 20.8125 17.75C20.6875 18.15 20.5167 18.5333 20.3 18.9L23 21.6L21.6 23ZM16.5 19C17.2 19 17.7917 18.7583 18.275 18.275C18.7583 17.7917 19 17.2 19 16.5C19 15.8 18.7583 15.2083 18.275 14.725C17.7917 14.2417 17.2 14 16.5 14C15.8 14 15.2083 14.2417 14.725 14.725C14.2417 15.2083 14 15.8 14 16.5C14 17.2 14.2417 17.7917 14.725 18.275C15.2083 18.7583 15.8 19 16.5 19ZM21 10H19V5H17V8H7V5H5V19H10V21H5C4.45 21 3.97917 20.8042 3.5875 20.4125C3.19583 20.0208 3 19.55 3 19V5C3 4.45 3.19583 3.97917 3.5875 3.5875C3.97917 3.19583 4.45 3 5 3H9.175C9.35833 2.41667 9.71667 1.9375 10.25 1.5625C10.7833 1.1875 11.3667 1 12 1C12.6667 1 13.2625 1.1875 13.7875 1.5625C14.3125 1.9375 14.6667 2.41667 14.85 3H19C19.55 3 20.0208 3.19583 20.4125 3.5875C20.8042 3.97917 21 4.45 21 5V10ZM12 5C12.2833 5 12.5208 4.90417 12.7125 4.7125C12.9042 4.52083 13 4.28333 13 4C13 3.71667 12.9042 3.47917 12.7125 3.2875C12.5208 3.09583 12.2833 3 12 3C11.7167 3 11.4792 3.09583 11.2875 3.2875C11.0958 3.47917 11 3.71667 11 4C11 4.28333 11.0958 4.52083 11.2875 4.7125C11.4792 4.90417 11.7167 5 12 5Z" fill="#3F5DBA"/>
</g>
</svg>
