<?xml version="1.0" encoding="UTF-8"?>
<svg xmlns="http://www.w3.org/2000/svg" version="1.1" xmlns:xlink="http://www.w3.org/1999/xlink" viewBox="0 0 120 32">
  <defs>
    <style>
      .cls-1 {
        mask: url(#mask);
      }

      .cls-2 {
        fill: #fbfbfb;
      }
    </style>
    <mask id="mask" x="0" y="0" width="120" height="32" maskUnits="userSpaceOnUse">
      <rect class="cls-2" width="120" height="32"/>
    </mask>
  </defs>
  <!-- Generator: Adobe Illustrator 28.7.1, SVG Export Plug-In . SVG Version: 1.2.0 Build 142)  -->
  <g>
    <g id="Layer_1">
      <g class="cls-1">
        <g>
          <path class="cls-2" d="M103.9,15.5h-3.7c-2.4,0-3.7,1.8-3.7,4.9v11h-7.1v-15.9h-3c-2.4,0-3.7,1.8-3.7,4.9v11h-7.1V9.6h7.1v3.3c1.2-2.6,2.7-3.3,5.1-3.3h8.7v3.3c1.2-2.6,2.7-3.3,5.1-3.3h2.4v5.9Z"/>
          <path class="cls-2" d="M74.2,20c0-4.6-2.7-10.8-10.9-10.8s-10.8,6-10.8,11.1,3.6,11.3,11.3,11.3,8.4-2.3,10-6l-6.3-1.8c-.5,1.3-1.8,2.1-3.7,2.1s-4-1.3-4.4-3.8h14.7c.1-.4.1-1,.1-2.1ZM59.3,18c.5-2.6,1.8-3.6,4-3.6s3.8,1.7,3.9,3.6h-7.9Z"/>
          <polygon class="cls-2" points="40.2 31.4 46.3 31.4 54.2 9.7 47 9.7 43.2 22.4 39.5 9.6 32.4 9.6 40.2 31.4"/>
          <path class="cls-2" d="M11.2,31.4h7v-15.9h6.8v15.9h7V9.6h-13.8v-1.3c0-1.4,1.1-2.4,2.6-2.4h4.1V0h-5.2c-5,0-8.5,3.2-8.5,7.8v1.8h-4v5.9h4v15.9Z"/>
          <path class="cls-2" d="M108.3,32c2.4,0,4.4-2,4.4-4.4s-2-4.4-4.4-4.4-4.4,2-4.4,4.4,2,4.4,4.4,4.4Z"/>
        </g>
      </g>
    </g>
  </g>
</svg>