<?xml version="1.0" encoding="utf-8"?>
<!-- Generator: Adobe Illustrator 28.2.0, SVG Export Plug-In . SVG Version: 6.00 Build 0)  -->
<svg version="1.1" id="Layer_2_00000034770117299505737670000018184592390258482323_"
	 xmlns="http://www.w3.org/2000/svg" xmlns:xlink="http://www.w3.org/1999/xlink" x="0px" y="0px" viewBox="0 0 125.2 48"
	 style="enable-background:new 0 0 125.2 48;" xml:space="preserve">
<style type="text/css">
	.st0{fill:#E3FF3C;}
	.st1{fill:#3F5DBA;}
</style>
<polygon class="st0" points="119.6,14.7 125.2,14.7 125.2,5.5 119.6,5.5 119.6,0 82.7,0 42.5,0 5.5,0 5.5,5.5 0,5.5 0,42.5 
	5.5,42.5 5.5,48 42.5,48 82.7,48 119.6,48 119.6,42.5 125.2,42.5 125.2,22.2 119.6,22.2 119.6,16.6 "/>
<g>
	<polygon class="st1" points="40.6,1.8 7.4,1.8 7.4,7.4 1.8,7.4 1.8,40.6 7.4,40.6 7.4,46.2 40.6,46.2 40.6,40.6 46.2,40.6 46.2,24 
		40.6,24 40.6,18.5 18.5,18.5 18.5,29.5 35.1,29.5 35.1,35.1 12.9,35.1 12.9,12.9 46.2,12.9 46.2,7.4 40.6,7.4 	"/>
	<polygon class="st1" points="117.8,1.8 84.5,1.8 84.5,7.4 79,7.4 79,40.6 84.5,40.6 84.5,46.2 117.8,46.2 117.8,40.6 123.3,40.6 
		123.3,24 117.8,24 117.8,18.5 95.6,18.5 95.6,29.5 112.2,29.5 112.2,35.1 90.1,35.1 90.1,12.9 123.3,12.9 123.3,7.4 117.8,7.4 	"/>
	<g>
		<polygon class="st1" points="62.6,1.8 57,1.8 57,12.9 68.1,12.9 68.1,7.4 		"/>
		<polygon class="st1" points="51.5,24 51.5,35.1 56.7,35.1 57,46.2 68.1,46.2 68.1,35.1 73.7,35.1 73.7,24 68.1,18.5 57,18.5 		"/>
	</g>
</g>
</svg>
