<?xml version="1.0" encoding="utf-8"?>
<!-- Generator: Adobe Illustrator 28.2.0, SVG Export Plug-In . SVG Version: 6.00 Build 0)  -->
<svg version="1.1" id="Layer_1" xmlns="http://www.w3.org/2000/svg" xmlns:xlink="http://www.w3.org/1999/xlink" x="0px" y="0px"
	 viewBox="0 0 24 24" style="enable-background:new 0 0 24 24;" xml:space="preserve">
<style type="text/css">
	.st0{fill:#FBFBFB;}
</style>
<path class="st0" d="M12,1c6.1,0,11,5,11,11.3c0,4.8-3,9.2-7.5,10.7c-0.5,0.1-0.8-0.2-0.8-0.5c0-0.4,0-1.6,0-3.1
	c0-1.1-0.3-1.7-0.7-2.1c2.4-0.3,5-1.2,5-5.6c0-1.2-0.4-2.2-1.1-3c0.1-0.3,0.5-1.4-0.1-3c0,0-0.9-0.3-3,1.2C13.9,6.6,13,6.4,12,6.4
	s-1.9,0.1-2.8,0.4c-2.1-1.5-3-1.2-3-1.2C5.6,7.2,6,8.4,6.1,8.7C5.4,9.4,5,10.5,5,11.7c0,4.3,2.6,5.3,5,5.6c-0.3,0.3-0.6,0.8-0.7,1.5
	c-0.6,0.3-2.2,0.8-3.2-0.9c-0.2-0.3-0.8-1.2-1.7-1.2c-0.9,0-0.4,0.5,0,0.7c0.5,0.3,1,1.3,1.1,1.6c0.2,0.6,0.9,1.8,3.7,1.3
	c0,0.9,0,1.8,0,2.1c0,0.3-0.2,0.6-0.8,0.5C4,21.4,1,17.1,1,12.3C1,6,5.9,1,12,1z"/>
</svg>
