<svg width="30" height="30" viewBox="0 0 30 30" fill="none" xmlns="http://www.w3.org/2000/svg">
<mask id="mask0_1148_5384" style="mask-type:alpha" maskUnits="userSpaceOnUse" x="0" y="0" width="30" height="30">
<rect width="30" height="30" fill="#D9D9D9"/>
</mask>
<g mask="url(#mask0_1148_5384)">
<path d="M19.375 13.75C19.8958 13.75 20.3385 13.5677 20.7031 13.2031C21.0677 12.8385 21.25 12.3958 21.25 11.875C21.25 11.3542 21.0677 10.9115 20.7031 10.5469C20.3385 10.1823 19.8958 10 19.375 10C18.8542 10 18.4115 10.1823 18.0469 10.5469C17.6823 10.9115 17.5 11.3542 17.5 11.875C17.5 12.3958 17.6823 12.8385 18.0469 13.2031C18.4115 13.5677 18.8542 13.75 19.375 13.75ZM10.625 13.75C11.1458 13.75 11.5885 13.5677 11.9531 13.2031C12.3177 12.8385 12.5 12.3958 12.5 11.875C12.5 11.3542 12.3177 10.9115 11.9531 10.5469C11.5885 10.1823 11.1458 10 10.625 10C10.1042 10 9.66146 10.1823 9.29688 10.5469C8.93229 10.9115 8.75 11.3542 8.75 11.875C8.75 12.3958 8.93229 12.8385 9.29688 13.2031C9.66146 13.5677 10.1042 13.75 10.625 13.75ZM15 21.875C16.4167 21.875 17.7031 21.474 18.8594 20.6719C20.0156 19.8698 20.8542 18.8125 21.375 17.5H19.3125C18.8542 18.2708 18.2448 18.8802 17.4844 19.3281C16.724 19.776 15.8958 20 15 20C14.1042 20 13.276 19.776 12.5156 19.3281C11.7552 18.8802 11.1458 18.2708 10.6875 17.5H8.625C9.14583 18.8125 9.98438 19.8698 11.1406 20.6719C12.2969 21.474 13.5833 21.875 15 21.875ZM15 27.5C13.2708 27.5 11.6458 27.1719 10.125 26.5156C8.60417 25.8594 7.28125 24.9688 6.15625 23.8438C5.03125 22.7188 4.14063 21.3958 3.48438 19.875C2.82812 18.3542 2.5 16.7292 2.5 15C2.5 13.2708 2.82812 11.6458 3.48438 10.125C4.14063 8.60417 5.03125 7.28125 6.15625 6.15625C7.28125 5.03125 8.60417 4.14063 10.125 3.48438C11.6458 2.82812 13.2708 2.5 15 2.5C16.7292 2.5 18.3542 2.82812 19.875 3.48438C21.3958 4.14063 22.7188 5.03125 23.8438 6.15625C24.9688 7.28125 25.8594 8.60417 26.5156 10.125C27.1719 11.6458 27.5 13.2708 27.5 15C27.5 16.7292 27.1719 18.3542 26.5156 19.875C25.8594 21.3958 24.9688 22.7188 23.8438 23.8438C22.7188 24.9688 21.3958 25.8594 19.875 26.5156C18.3542 27.1719 16.7292 27.5 15 27.5ZM15 25C17.7917 25 20.1562 24.0312 22.0938 22.0938C24.0312 20.1562 25 17.7917 25 15C25 12.2083 24.0312 9.84375 22.0938 7.90625C20.1562 5.96875 17.7917 5 15 5C12.2083 5 9.84375 5.96875 7.90625 7.90625C5.96875 9.84375 5 12.2083 5 15C5 17.7917 5.96875 20.1562 7.90625 22.0938C9.84375 24.0312 12.2083 25 15 25Z" fill="#3F5DBA"/>
</g>
</svg>
