<?xml version="1.0" encoding="utf-8"?>
<!-- Generator: Adobe Illustrator 28.2.0, SVG Export Plug-In . SVG Version: 6.00 Build 0)  -->
<svg version="1.1" id="Calque_1" xmlns="http://www.w3.org/2000/svg" xmlns:xlink="http://www.w3.org/1999/xlink" x="0px" y="0px"
	 viewBox="0 0 24 24" style="enable-background:new 0 0 24 24;" xml:space="preserve">
<polygon points="2.4,22 6.6,22 6.6,22 6.6,8.7 2.4,8.7 "/>
<path d="M4.5,2C3.1,2,2,3.1,2,4.5S3.1,7,4.4,7s2.4-1.1,2.4-2.5S5.8,2,4.5,2z"/>
<path d="M17.2,8.3c-2.8,0-4,2.2-4,2.2V8.7h-4V22h3.9v-7c0-1.9,0.9-3,2.5-3c1.5,0,2.2,1.1,2.2,3v7H22v-8.4C22,10,20,8.3,17.2,8.3z"/>
</svg>
