<?xml version="1.0" encoding="utf-8"?>
<!-- Generator: Adobe Illustrator 28.2.0, SVG Export Plug-In . SVG Version: 6.00 Build 0)  -->
<svg version="1.1"
	 id="Livello_1" xmlns:sodipodi="http://sodipodi.sourceforge.net/DTD/sodipodi-0.dtd" xmlns:inkscape="http://www.inkscape.org/namespaces/inkscape" xmlns:dc="http://purl.org/dc/elements/1.1/" xmlns:cc="http://creativecommons.org/ns#" xmlns:rdf="http://www.w3.org/1999/02/22-rdf-syntax-ns#" xmlns:svg="http://www.w3.org/2000/svg" inkscape:export-xdpi="561.73712" inkscape:export-ydpi="561.73712"
	 xmlns="http://www.w3.org/2000/svg" xmlns:xlink="http://www.w3.org/1999/xlink" x="0px" y="0px" viewBox="0 0 24 24"
	 style="enable-background:new 0 0 24 24;" xml:space="preserve">
<style type="text/css">
	.st0{fill-rule:evenodd;clip-rule:evenodd;}
</style>
<sodipodi:namedview  bordercolor="#666666" borderopacity="1" gridtolerance="10" guidetolerance="10" id="namedview11" inkscape:current-layer="Livello_1" inkscape:cx="-438.36954" inkscape:cy="-17.802703" inkscape:pageopacity="0" inkscape:pageshadow="2" inkscape:window-height="1017" inkscape:window-maximized="1" inkscape:window-width="1920" inkscape:window-x="-8" inkscape:window-y="-8" inkscape:zoom="0.34751603" objecttolerance="10" pagecolor="#ffffff" showgrid="false">
	</sodipodi:namedview>
<path id="Path-3" inkscape:connector-curvature="0" class="st0" d="M2.5,10.8c5.9-2.6,9.9-4.3,11.8-5.1c5.6-2.4,6.8-2.7,7.6-2.8
	c0.2,0,0.5,0,0.8,0.2c0.2,0.2,0.3,0.4,0.3,0.6c0,0.2,0.1,0.5,0,0.8c-0.3,3.2-1.6,11-2.3,14.6c-0.3,1.5-0.9,2-1.4,2.1
	c-1.2,0.1-2.1-0.8-3.2-1.5c-1.8-1.2-2.8-1.9-4.5-3c-2-1.3-0.7-2,0.4-3.2c0.3-0.3,5.5-5,5.6-5.5c0,0,0-0.3-0.1-0.4
	c-0.1-0.1-0.3-0.1-0.4,0c-0.2,0-3,1.9-8.6,5.7C7.7,13.7,7,14,6.4,13.9c-0.7,0-2.1-0.4-3.2-0.7c-1.3-0.4-2.3-0.6-2.2-1.3
	C1,11.5,1.5,11.1,2.5,10.8L2.5,10.8z"/>
</svg>
