<?xml version="1.0" encoding="UTF-8"?>
<svg xmlns="http://www.w3.org/2000/svg" version="1.1" xmlns:xlink="http://www.w3.org/1999/xlink" viewBox="0 0 120 32">
  <defs>
    <style>
      .cls-1 {
        mask: url(#mask);
      }

      .cls-2 {
        fill: #fbfbfb;
      }
    </style>
    <mask id="mask" x="0" y="0" width="120" height="32" maskUnits="userSpaceOnUse">
      <rect class="cls-2" width="120" height="32"/>
    </mask>
  </defs>
  <!-- Generator: Adobe Illustrator 28.7.1, SVG Export Plug-In . SVG Version: 1.2.0 Build 142)  -->
  <g>
    <g id="Layer_1">
      <g class="cls-1">
        <g>
          <path class="cls-2" d="M33.4,21.8c-3.3,0-5.5-2.5-6.1-3.5.8-6.1,3.1-8,6.1-8s5.3,2.3,5.3,5.7-2.3,5.8-5.3,5.8ZM33.4,6.5c-5.4,0-8.4,3.4-9.2,6.9-1-1.8-1.7-4.2-2.3-6.4h-7.4v9c0,3.3-1.5,5.7-4.5,5.7s-4.7-2.4-4.7-5.7V7H1.1v9c0,2.6.9,5,2.5,6.7,1.6,1.8,3.9,2.7,6.5,2.7,5.2,0,8.7-3.9,8.7-9.4v-6c.5,2,1.8,5.8,4.3,9.2l-2.4,12.8h4.4l1.5-9c.5.4,1,.8,1.6,1.1,1.5.9,3.1,1.4,4.8,1.5h.4c5.3,0,9.5-4,9.5-9.5,0-5.5-4.2-9.6-9.5-9.6Z"/>
          <path class="cls-2" d="M94.8,9v-1.9h-4.2v17.9h4.2v-7c0-4.3.4-7.4,6.3-7v-4.2c-2.7-.2-4.9.4-6.3,2.2Z"/>
          <path class="cls-2" d="M65.3,7.1l-3.1,12.5-3.3-12.5h-5.4l-3.3,12.5-3.1-12.5h-4.3l4.7,17.9h5.1l3.5-12.7,3.5,12.7h5.1l5-17.9s-4.4,0-4.4,0Z"/>
          <path class="cls-2" d="M79.2,21.8c-3,0-5.3-2.3-5.3-5.8s2.3-5.7,5.3-5.7,5.3,2.3,5.3,5.7-2.4,5.8-5.3,5.8ZM79.2,6.5c-5.3,0-9.5,4.1-9.5,9.5s4.2,9.5,9.5,9.5,9.5-4,9.5-9.5-4.2-9.5-9.5-9.5Z"/>
          <path class="cls-2" d="M107.2,16.1h1l5.9,8.8h4.8l-6.8-9.7c3.3-1.3,5.5-4.6,5.5-8.1h-4.2c0,3.9-3.1,5.3-6.2,5.3V0h-4.3v24.9h4.2v-8.8Z"/>
        </g>
      </g>
    </g>
  </g>
</svg>