<svg width="16" height="16" viewBox="0 0 16 16" fill="none" xmlns="http://www.w3.org/2000/svg">
<mask id="mask0_2011_134" style="mask-type:alpha" maskUnits="userSpaceOnUse" x="0" y="0" width="16" height="16">
<rect width="16" height="16" fill="#D9D9D9"/>
</mask>
<g mask="url(#mask0_2011_134)">
<path d="M11.333 13.3332V11.3332H9.33301V9.9999H11.333V7.9999H12.6663V9.9999H14.6663V11.3332H12.6663V13.3332H11.333ZM7.33301 11.3332H4.66634C3.74412 11.3332 2.95801 11.0082 2.30801 10.3582C1.65801 9.70823 1.33301 8.92212 1.33301 7.9999C1.33301 7.07768 1.65801 6.29156 2.30801 5.64156C2.95801 4.99156 3.74412 4.66656 4.66634 4.66656H7.33301V5.9999H4.66634C4.11079 5.9999 3.63856 6.19434 3.24967 6.58323C2.86079 6.97212 2.66634 7.44434 2.66634 7.9999C2.66634 8.55545 2.86079 9.02768 3.24967 9.41656C3.63856 9.80545 4.11079 9.9999 4.66634 9.9999H7.33301V11.3332ZM5.33301 8.66656V7.33323H10.6663V8.66656H5.33301ZM14.6663 7.9999H13.333C13.333 7.44434 13.1386 6.97212 12.7497 6.58323C12.3608 6.19434 11.8886 5.9999 11.333 5.9999H8.66634V4.66656H11.333C12.2552 4.66656 13.0413 4.99156 13.6913 5.64156C14.3413 6.29156 14.6663 7.07768 14.6663 7.9999Z" fill="#FFFCF0"/>
</g>
</svg>
