<svg width="26" height="26" viewBox="0 0 26 26" fill="none" xmlns="http://www.w3.org/2000/svg">
<path d="M18.4165 16.7917V18.4167C18.4165 19.0667 17.9832 19.5001 17.3332 19.5001C16.6832 19.5001 16.2498 19.0667 16.2498 18.4167V16.7917H9.74984V18.4167C9.74984 19.0667 9.3165 19.5001 8.6665 19.5001C8.0165 19.5001 7.58317 19.0667 7.58317 18.4167V16.7917H5.4165C4.65817 16.7917 3.89984 16.5751 3.24984 16.2501V20.5834C3.24984 22.4251 4.65817 23.8334 6.49984 23.8334H19.4998C21.3415 23.8334 22.7498 22.4251 22.7498 20.5834V16.2501C22.0998 16.5751 21.3415 16.7917 20.5832 16.7917H18.4165ZM22.7498 6.50008H18.4165V5.41675C18.4165 3.57508 17.0082 2.16675 15.1665 2.16675H10.8332C8.9915 2.16675 7.58317 3.57508 7.58317 5.41675V6.50008H3.24984C2.59984 6.50008 2.1665 6.93341 2.1665 7.58341V11.9167C2.1665 13.7584 3.57484 15.1667 5.4165 15.1667H20.5832C22.4248 15.1667 23.8332 13.7584 23.8332 11.9167V7.58341C23.8332 6.93341 23.3998 6.50008 22.7498 6.50008ZM16.2498 6.50008H9.74984V5.41675C9.74984 4.76675 10.1832 4.33341 10.8332 4.33341H15.1665C15.8165 4.33341 16.2498 4.76675 16.2498 5.41675V6.50008Z" fill="#FFFCF0"/>
</svg>
