<svg width="12" height="12" viewBox="0 0 12 12" fill="none" xmlns="http://www.w3.org/2000/svg">
<mask id="mask0_595_2317" style="mask-type:alpha" maskUnits="userSpaceOnUse" x="0" y="0" width="12" height="12">
<rect width="12" height="12" fill="#D9D9D9"/>
</mask>
<g mask="url(#mask0_595_2317)">
<path d="M4.69902 9.77457C4.54902 9.49957 4.41777 9.21416 4.30527 8.91832C4.19277 8.62249 4.09902 8.31624 4.02402 7.99957H2.54902C2.79069 8.41624 3.09277 8.77874 3.45527 9.08707C3.81777 9.39541 4.23236 9.62457 4.69902 9.77457ZM2.12402 6.99957H3.82402C3.79902 6.83291 3.78027 6.66832 3.76777 6.50582C3.75527 6.34332 3.74902 6.17457 3.74902 5.99957C3.74902 5.82457 3.75527 5.65582 3.76777 5.49332C3.78027 5.33082 3.79902 5.16624 3.82402 4.99957H2.12402C2.08236 5.16624 2.05111 5.33082 2.03027 5.49332C2.00944 5.65582 1.99902 5.82457 1.99902 5.99957C1.99902 6.17457 2.00944 6.34332 2.03027 6.50582C2.05111 6.66832 2.08236 6.83291 2.12402 6.99957ZM2.54902 3.99957H4.02402C4.09902 3.68291 4.19277 3.37666 4.30527 3.08082C4.41777 2.78499 4.54902 2.49957 4.69902 2.22457C4.23236 2.37457 3.81777 2.60374 3.45527 2.91207C3.09277 3.22041 2.79069 3.58291 2.54902 3.99957ZM5.04902 3.99957H6.94902C6.84902 3.63291 6.71986 3.28707 6.56152 2.96207C6.40319 2.63707 6.21569 2.32457 5.99902 2.02457C5.78236 2.32457 5.59486 2.63707 5.43652 2.96207C5.27819 3.28707 5.14902 3.63291 5.04902 3.99957ZM7.97402 3.99957H9.44902C9.20736 3.58291 8.90527 3.22041 8.54277 2.91207C8.18027 2.60374 7.76569 2.37457 7.29902 2.22457C7.44902 2.49957 7.58027 2.78499 7.69277 3.08082C7.80527 3.37666 7.89902 3.68291 7.97402 3.99957ZM5.99902 10.9996C5.31569 10.9996 4.66986 10.8683 4.06152 10.6058C3.45319 10.3433 2.92194 9.98499 2.46777 9.53082C2.01361 9.07666 1.65527 8.54541 1.39277 7.93707C1.13027 7.32874 0.999023 6.68291 0.999023 5.99957C0.999023 5.30791 1.13027 4.65999 1.39277 4.05582C1.65527 3.45166 2.01361 2.92249 2.46777 2.46832C2.92194 2.01416 3.45319 1.65582 4.06152 1.39332C4.66986 1.13082 5.31569 0.999573 5.99902 0.999573C6.69069 0.999573 7.33861 1.13082 7.94277 1.39332C8.54694 1.65582 9.07611 2.01416 9.53027 2.46832C9.98444 2.92249 10.3428 3.45166 10.6053 4.05582C10.8678 4.65999 10.999 5.30791 10.999 5.99957C10.999 6.08291 10.9969 6.16624 10.9928 6.24957C10.9886 6.33291 10.9824 6.41624 10.974 6.49957H9.96152C9.97819 6.41624 9.98861 6.33499 9.99277 6.25582C9.99694 6.17666 9.99902 6.09124 9.99902 5.99957C9.99902 5.82457 9.98861 5.65582 9.96777 5.49332C9.94694 5.33082 9.91569 5.16624 9.87402 4.99957H8.17402C8.19902 5.16624 8.21777 5.33082 8.23027 5.49332C8.24277 5.65582 8.24902 5.82457 8.24902 5.99957V6.25582C8.24902 6.33499 8.24486 6.41624 8.23652 6.49957H7.23652C7.24486 6.41624 7.24902 6.33499 7.24902 6.25582V5.99957C7.24902 5.82457 7.24277 5.65582 7.23027 5.49332C7.21777 5.33082 7.19902 5.16624 7.17402 4.99957H4.82402C4.79902 5.16624 4.78027 5.33082 4.76777 5.49332C4.75527 5.65582 4.74902 5.82457 4.74902 5.99957C4.74902 6.17457 4.75527 6.34332 4.76777 6.50582C4.78027 6.66832 4.79902 6.83291 4.82402 6.99957H6.49902V7.99957H5.04902C5.14902 8.36624 5.27819 8.71207 5.43652 9.03707C5.59486 9.36207 5.78236 9.67457 5.99902 9.97457C6.09069 9.84124 6.17819 9.70582 6.26152 9.56832C6.34486 9.43082 6.42402 9.29124 6.49902 9.14957V10.9746C6.41569 10.9829 6.33444 10.9892 6.25527 10.9933C6.17611 10.9975 6.09069 10.9996 5.99902 10.9996ZM9.97402 10.6871L8.49902 9.21207V10.3246H7.49902V7.49957H10.324V8.49957H9.19902L10.674 9.97457L9.97402 10.6871Z" fill="#061543"/>
</g>
</svg>
