<svg width="30" height="30" viewBox="0 0 30 30" fill="none" xmlns="http://www.w3.org/2000/svg">
<g clip-path="url(#clip0_2011_8)">
<path d="M15.9681 13.845C15.7041 13.5862 15.3492 13.4413 14.9795 13.4413C14.6098 13.4413 14.2548 13.5862 13.9908 13.845L9.7537 17.9409C9.60383 18.0646 9.48109 18.2178 9.39315 18.3911C9.30522 18.5644 9.25398 18.7539 9.24264 18.9479C9.2313 19.1418 9.26011 19.3361 9.32726 19.5184C9.39441 19.7007 9.49845 19.8672 9.63289 20.0075C9.76733 20.1478 9.92927 20.2588 10.1086 20.3337C10.2879 20.4085 10.4807 20.4456 10.675 20.4425C10.8693 20.4394 11.0608 20.3963 11.2377 20.3158C11.4145 20.2353 11.5728 20.1192 11.7028 19.9747L13.553 18.181V26.1468C13.553 26.5214 13.7018 26.8806 13.9667 27.1455C14.2315 27.4104 14.5908 27.5592 14.9654 27.5592C15.3399 27.5592 15.6992 27.4104 15.9641 27.1455C16.2289 26.8806 16.3777 26.5214 16.3777 26.1468V18.2516L18.1997 20.0877C18.331 20.2201 18.4872 20.3252 18.6593 20.3969C18.8314 20.4686 19.016 20.5055 19.2025 20.5055C19.3889 20.5055 19.5735 20.4686 19.7456 20.3969C19.9178 20.3252 20.074 20.2201 20.2053 20.0877C20.3376 19.9564 20.4427 19.8002 20.5144 19.6281C20.5861 19.456 20.623 19.2714 20.623 19.0849C20.623 18.8985 20.5861 18.7139 20.5144 18.5418C20.4427 18.3697 20.3376 18.2134 20.2053 18.0821L15.9681 13.845Z" fill="#3F5DBA"/>
<path d="M22.9737 7.78594C22.3974 6.12083 21.3164 4.67677 19.8811 3.6547C18.4458 2.63262 16.7276 2.08337 14.9656 2.08337C13.2035 2.08337 11.4853 2.63262 10.05 3.6547C8.61473 4.67677 7.53371 6.12083 6.95741 7.78594C5.68846 7.9559 4.48959 8.46763 3.48904 9.26638C2.48849 10.0651 1.7239 11.1209 1.27707 12.3206C0.83024 13.5204 0.717974 14.8191 0.952283 16.0777C1.18659 17.3364 1.75866 18.5077 2.60729 19.4663C2.7098 19.6468 2.85086 19.8026 3.02042 19.9224C3.18999 20.0422 3.38389 20.1232 3.58831 20.1595C3.79274 20.1959 4.00266 20.1867 4.20314 20.1327C4.40361 20.0786 4.58971 19.9811 4.74817 19.8469C4.90663 19.7127 5.03356 19.5453 5.11993 19.3565C5.20629 19.1676 5.24996 18.9621 5.24783 18.7545C5.2457 18.5469 5.19782 18.3423 5.1076 18.1553C5.01738 17.9683 4.88704 17.8034 4.72585 17.6726C4.17943 17.0617 3.82191 16.3054 3.69664 15.4954C3.57137 14.6854 3.68371 13.8564 4.02005 13.109C4.3564 12.3616 4.90231 11.7277 5.59163 11.2843C6.28094 10.8409 7.08408 10.6069 7.9037 10.6107H8.04493C8.37535 10.6174 8.69765 10.5079 8.95571 10.3015C9.21378 10.095 9.39128 9.80462 9.45731 9.48079C9.71664 8.20368 10.4095 7.05549 11.4185 6.23078C12.4275 5.40606 13.6906 4.95553 14.9938 4.95553C16.297 4.95553 17.5601 5.40606 18.5691 6.23078C19.5781 7.05549 20.271 8.20368 20.5303 9.48079C20.5963 9.80462 20.7738 10.095 21.0319 10.3015C21.29 10.5079 21.6123 10.6174 21.9427 10.6107H22.0274C22.8471 10.6069 23.6502 10.8409 24.3395 11.2843C25.0288 11.7277 25.5747 12.3616 25.9111 13.109C26.2474 13.8564 26.3598 14.6854 26.2345 15.4954C26.1092 16.3054 25.7517 17.0617 25.2053 17.6726C25.0809 17.8121 24.9854 17.9749 24.9244 18.1516C24.8634 18.3283 24.838 18.5153 24.8499 18.7019C24.8617 18.8885 24.9104 19.0708 24.9933 19.2384C25.0761 19.406 25.1914 19.5554 25.3324 19.6781C25.5899 19.9052 25.9212 20.0307 26.2646 20.0312C26.4651 20.031 26.6633 19.988 26.8459 19.9052C27.0286 19.8224 27.1915 19.7017 27.3238 19.551C28.196 18.5941 28.7883 17.4157 29.036 16.1449C29.2836 14.874 29.1771 13.5595 28.7281 12.345C28.279 11.1306 27.5048 10.063 26.4899 9.25896C25.475 8.45489 24.2587 7.94532 22.9737 7.78594Z" fill="#3F5DBA"/>
</g>
<defs>
<clipPath id="clip0_2011_8">
<rect width="30" height="30" fill="white"/>
</clipPath>
</defs>
</svg>
