<svg width="31" height="30" viewBox="0 0 31 30" fill="none" xmlns="http://www.w3.org/2000/svg">
<g clip-path="url(#clip0_2011_797)">
<path d="M16.4681 13.845C16.2041 13.5862 15.8492 13.4413 15.4795 13.4413C15.1098 13.4413 14.7548 13.5862 14.4908 13.845L10.2537 17.9409C10.1038 18.0646 9.98109 18.2178 9.89315 18.3911C9.80522 18.5644 9.75398 18.7539 9.74264 18.9479C9.7313 19.1418 9.76011 19.3361 9.82726 19.5184C9.89441 19.7007 9.99845 19.8672 10.1329 20.0075C10.2673 20.1478 10.4293 20.2588 10.6086 20.3337C10.7879 20.4085 10.9807 20.4456 11.175 20.4425C11.3693 20.4394 11.5608 20.3963 11.7377 20.3158C11.9145 20.2353 12.0728 20.1192 12.2028 19.9747L14.053 18.181V26.1468C14.053 26.5214 14.2018 26.8806 14.4667 27.1455C14.7315 27.4104 15.0908 27.5592 15.4654 27.5592C15.8399 27.5592 16.1992 27.4104 16.4641 27.1455C16.7289 26.8806 16.8777 26.5214 16.8777 26.1468V18.2516L18.6997 20.0877C18.831 20.2201 18.9872 20.3252 19.1593 20.3969C19.3314 20.4686 19.516 20.5055 19.7025 20.5055C19.8889 20.5055 20.0735 20.4686 20.2456 20.3969C20.4178 20.3252 20.574 20.2201 20.7053 20.0877C20.8376 19.9564 20.9427 19.8002 21.0144 19.6281C21.0861 19.456 21.123 19.2714 21.123 19.0849C21.123 18.8985 21.0861 18.7139 21.0144 18.5418C20.9427 18.3697 20.8376 18.2134 20.7053 18.0821L16.4681 13.845Z" fill="#6E83FF" fill-opacity="0.4"/>
<path d="M23.4737 7.78594C22.8974 6.12083 21.8164 4.67677 20.3811 3.6547C18.9458 2.63262 17.2276 2.08337 15.4656 2.08337C13.7035 2.08337 11.9853 2.63262 10.55 3.6547C9.11473 4.67677 8.03371 6.12083 7.45741 7.78594C6.18846 7.9559 4.98959 8.46763 3.98904 9.26638C2.98849 10.0651 2.2239 11.1209 1.77707 12.3206C1.33024 13.5204 1.21797 14.8191 1.45228 16.0777C1.68659 17.3364 2.25866 18.5077 3.10729 19.4663C3.2098 19.6468 3.35086 19.8026 3.52042 19.9224C3.68999 20.0422 3.88389 20.1232 4.08831 20.1595C4.29274 20.1959 4.50266 20.1867 4.70314 20.1327C4.90361 20.0786 5.08971 19.9811 5.24817 19.8469C5.40663 19.7127 5.53356 19.5453 5.61993 19.3565C5.70629 19.1676 5.74996 18.9621 5.74783 18.7545C5.7457 18.5469 5.69782 18.3423 5.6076 18.1553C5.51738 17.9683 5.38704 17.8034 5.22585 17.6726C4.67943 17.0617 4.32191 16.3054 4.19664 15.4954C4.07137 14.6854 4.18371 13.8564 4.52005 13.109C4.8564 12.3616 5.40231 11.7277 6.09163 11.2843C6.78094 10.8409 7.58408 10.6069 8.4037 10.6107H8.54493C8.87535 10.6174 9.19765 10.5079 9.45571 10.3015C9.71378 10.095 9.89128 9.80462 9.95731 9.48079C10.2166 8.20368 10.9095 7.05549 11.9185 6.23078C12.9275 5.40606 14.1906 4.95553 15.4938 4.95553C16.797 4.95553 18.0601 5.40606 19.0691 6.23078C20.0781 7.05549 20.771 8.20368 21.0303 9.48079C21.0963 9.80462 21.2738 10.095 21.5319 10.3015C21.79 10.5079 22.1123 10.6174 22.4427 10.6107H22.5274C23.3471 10.6069 24.1502 10.8409 24.8395 11.2843C25.5288 11.7277 26.0747 12.3616 26.4111 13.109C26.7474 13.8564 26.8598 14.6854 26.7345 15.4954C26.6092 16.3054 26.2517 17.0617 25.7053 17.6726C25.5809 17.8121 25.4854 17.9749 25.4244 18.1516C25.3634 18.3283 25.338 18.5153 25.3499 18.7019C25.3617 18.8885 25.4104 19.0708 25.4933 19.2384C25.5761 19.406 25.6914 19.5554 25.8324 19.6781C26.0899 19.9052 26.4212 20.0307 26.7646 20.0312C26.9651 20.031 27.1633 19.988 27.3459 19.9052C27.5286 19.8224 27.6915 19.7017 27.8238 19.551C28.696 18.5941 29.2883 17.4157 29.536 16.1449C29.7836 14.874 29.6771 13.5595 29.2281 12.345C28.779 11.1306 28.0048 10.063 26.9899 9.25896C25.975 8.45489 24.7587 7.94532 23.4737 7.78594Z" fill="#6E83FF" fill-opacity="0.4"/>
</g>
<defs>
<clipPath id="clip0_2011_797">
<rect width="30" height="30" fill="white" transform="translate(0.5)"/>
</clipPath>
</defs>
</svg>
