<svg width="16" height="16" viewBox="0 0 16 16" fill="none" xmlns="http://www.w3.org/2000/svg">
<g clip-path="url(#clip0_583_4593)">
<path d="M8.51693 7.38403C8.37612 7.24601 8.18681 7.1687 7.98964 7.1687C7.79247 7.1687 7.60316 7.24601 7.46236 7.38403L5.20256 9.5685C5.12263 9.63445 5.05717 9.71619 5.01027 9.8086C4.96337 9.90101 4.93604 10.0021 4.92999 10.1055C4.92395 10.209 4.93931 10.3126 4.97512 10.4098C5.01094 10.5071 5.06643 10.5959 5.13813 10.6707C5.20983 10.7455 5.29619 10.8047 5.39183 10.8446C5.48746 10.8846 5.5903 10.9043 5.69391 10.9027C5.79752 10.901 5.89968 10.878 5.994 10.8351C6.08832 10.7922 6.17277 10.7303 6.24206 10.6532L7.22884 9.69655V13.945C7.22884 14.1448 7.3082 14.3364 7.44947 14.4776C7.59073 14.6189 7.78233 14.6982 7.98211 14.6982C8.18189 14.6982 8.37348 14.6189 8.51475 14.4776C8.65601 14.3364 8.73537 14.1448 8.73537 13.945V9.73422L9.70709 10.7135C9.77711 10.7841 9.86043 10.8401 9.95222 10.8783C10.044 10.9166 10.1425 10.9363 10.2419 10.9363C10.3413 10.9363 10.4398 10.9166 10.5316 10.8783C10.6234 10.8401 10.7067 10.7841 10.7767 10.7135C10.8473 10.6434 10.9034 10.5601 10.9416 10.4683C10.9799 10.3765 10.9995 10.2781 10.9995 10.1786C10.9995 10.0792 10.9799 9.98075 10.9416 9.88896C10.9034 9.79716 10.8473 9.71385 10.7767 9.64383L8.51693 7.38403Z" fill="#061543"/>
<path d="M12.2527 4.15252C11.9454 3.26446 11.3688 2.49429 10.6033 1.94918C9.83782 1.40408 8.92145 1.11115 7.9817 1.11115C7.04195 1.11115 6.12558 1.40408 5.36008 1.94918C4.59459 2.49429 4.01804 3.26446 3.71068 4.15252C3.03391 4.24316 2.39451 4.51608 1.86089 4.94208C1.32726 5.36809 0.919479 5.93114 0.681169 6.57102C0.44286 7.2109 0.382985 7.90352 0.507949 8.57481C0.632914 9.24609 0.938017 9.87077 1.39062 10.382C1.44529 10.4783 1.52052 10.5614 1.61096 10.6253C1.70139 10.6892 1.8048 10.7324 1.91383 10.7518C2.02286 10.7712 2.13482 10.7663 2.24174 10.7374C2.34866 10.7086 2.44791 10.6566 2.53242 10.585C2.61693 10.5135 2.68463 10.4242 2.73069 10.3235C2.77675 10.2228 2.80005 10.1131 2.79891 10.0024C2.79777 9.89167 2.77224 9.78256 2.72412 9.68282C2.676 9.58308 2.60648 9.49518 2.52052 9.42538C2.22909 9.09956 2.03842 8.69621 1.97161 8.26421C1.90479 7.83222 1.96471 7.39011 2.14409 6.99148C2.32348 6.59285 2.61463 6.2548 2.98227 6.0183C3.3499 5.78181 3.77824 5.65701 4.21537 5.65905H4.2907C4.46692 5.6626 4.63881 5.60425 4.77645 5.49414C4.91408 5.38403 5.00875 5.22914 5.04396 5.05643C5.18227 4.37531 5.5518 3.76294 6.08994 3.32309C6.62808 2.88324 7.30174 2.64296 7.99677 2.64296C8.69179 2.64296 9.36545 2.88324 9.90359 3.32309C10.4417 3.76294 10.8113 4.37531 10.9496 5.05643C10.9848 5.22914 11.0794 5.38403 11.2171 5.49414C11.3547 5.60425 11.5266 5.6626 11.7028 5.65905H11.748C12.1852 5.65701 12.6135 5.78181 12.9811 6.0183C13.3488 6.2548 13.6399 6.59285 13.8193 6.99148C13.9987 7.39011 14.0586 7.83222 13.9918 8.26421C13.925 8.69621 13.7343 9.09956 13.4429 9.42538C13.3765 9.49979 13.3256 9.58663 13.2931 9.68087C13.2605 9.7751 13.247 9.87486 13.2533 9.97436C13.2596 10.0739 13.2856 10.1711 13.3298 10.2605C13.374 10.3499 13.4355 10.4296 13.5107 10.495C13.648 10.6161 13.8247 10.6831 14.0078 10.6833C14.1148 10.6832 14.2205 10.6603 14.3179 10.6161C14.4153 10.572 14.5022 10.5076 14.5728 10.4272C15.0379 9.91684 15.3538 9.2884 15.4859 8.6106C15.618 7.9328 15.5612 7.23173 15.3217 6.58404C15.0822 5.93634 14.6693 5.36696 14.128 4.93812C13.5868 4.50929 12.938 4.23752 12.2527 4.15252Z" fill="#061543"/>
</g>
<defs>
<clipPath id="clip0_583_4593">
<rect width="16" height="16" fill="white"/>
</clipPath>
</defs>
</svg>
