<svg width="13" height="12" viewBox="0 0 13 12" fill="none" xmlns="http://www.w3.org/2000/svg">
<mask id="mask0_595_2326" style="mask-type:alpha" maskUnits="userSpaceOnUse" x="0" y="0" width="13" height="12">
<rect x="0.5" width="12" height="12" fill="#D9D9D9"/>
</mask>
<g mask="url(#mask0_595_2326)">
<path d="M3 10.5C2.725 10.5 2.48958 10.4021 2.29375 10.2063C2.09792 10.0104 2 9.775 2 9.5V2.5C2 2.225 2.09792 1.98958 2.29375 1.79375C2.48958 1.59792 2.725 1.5 3 1.5H5.0875C5.17917 1.20833 5.35833 0.96875 5.625 0.78125C5.89167 0.59375 6.18333 0.5 6.5 0.5C6.83333 0.5 7.13125 0.59375 7.39375 0.78125C7.65625 0.96875 7.83333 1.20833 7.925 1.5H10C10.275 1.5 10.5104 1.59792 10.7063 1.79375C10.9021 1.98958 11 2.225 11 2.5V9.5C11 9.775 10.9021 10.0104 10.7063 10.2063C10.5104 10.4021 10.275 10.5 10 10.5H3ZM3 9.5H10V2.5H9V4H4V2.5H3V9.5ZM6.5 2.5C6.64167 2.5 6.76042 2.45208 6.85625 2.35625C6.95208 2.26042 7 2.14167 7 2C7 1.85833 6.95208 1.73958 6.85625 1.64375C6.76042 1.54792 6.64167 1.5 6.5 1.5C6.35833 1.5 6.23958 1.54792 6.14375 1.64375C6.04792 1.73958 6 1.85833 6 2C6 2.14167 6.04792 2.26042 6.14375 2.35625C6.23958 2.45208 6.35833 2.5 6.5 2.5Z" fill="#061543"/>
</g>
</svg>
