<svg width="32" height="33" viewBox="0 0 32 33" fill="none" xmlns="http://www.w3.org/2000/svg">
<g clip-path="url(#clip0_594_1815)">
<path d="M16 0.5C24.8385 0.5 32 7.66444 32 16.5C32 25.3385 24.8385 32.5 16 32.5C7.16444 32.5 0 25.3356 0 16.5C0 7.66444 7.16444 0.5 16 0.5Z" fill="#F5AC37"/>
<path d="M16.59 17.6289H22.67C22.8004 17.6289 22.8596 17.6289 22.8715 17.46C22.9218 16.8407 22.9218 16.2185 22.8715 15.5992C22.8715 15.4778 22.8122 15.4304 22.6818 15.4304H10.5811C10.43 15.4304 10.3915 15.4807 10.3915 15.62V17.4007C10.3915 17.6318 10.3915 17.6318 10.6315 17.6318H16.59V17.6289ZM22.19 13.3504C22.2078 13.3059 22.2078 13.2555 22.19 13.2111C22.0892 12.9889 21.9678 12.7785 21.8285 12.58C21.6181 12.2422 21.3692 11.9311 21.0878 11.6496C20.9544 11.4807 20.8004 11.3296 20.6285 11.1992C19.7633 10.4615 18.7352 9.93998 17.627 9.67924C17.07 9.5548 16.4981 9.49554 15.9263 9.4985H10.5604C10.4092 9.4985 10.3915 9.55776 10.3915 9.68813V13.2407C10.3915 13.3918 10.3915 13.4304 10.5811 13.4304H22.1218C22.1218 13.4304 22.2226 13.4096 22.2433 13.3504H22.19ZM22.19 19.7089C22.0211 19.6911 21.8492 19.6911 21.6774 19.7089H10.59C10.4389 19.7089 10.3885 19.7089 10.3885 19.9104V23.38C10.3885 23.54 10.3885 23.5815 10.59 23.5815H15.71C15.9559 23.5992 16.1989 23.5815 16.4389 23.5311C17.1826 23.4778 17.9115 23.3178 18.6107 23.0511C18.8655 22.9622 19.1085 22.8496 19.3396 22.7104H19.4107C20.6107 22.0852 21.5855 21.1044 22.2018 19.9015C22.1989 19.9015 22.27 19.7504 22.19 19.7089ZM8.37961 25.38V25.3207V22.9889V22.1978V19.8481C8.37961 19.7178 8.37961 19.697 8.21961 19.697H6.05072C5.92924 19.697 5.88184 19.697 5.88184 19.537V17.6378H8.20184C8.33221 17.6378 8.38258 17.6378 8.38258 17.4689V15.5904C8.38258 15.4689 8.38258 15.4392 8.22258 15.4392H6.05369C5.93221 15.4392 5.8848 15.4392 5.8848 15.2792V13.5192C5.8848 13.4096 5.8848 13.38 6.0448 13.38H8.19591C8.34702 13.38 8.38554 13.38 8.38554 13.1904V7.80072C8.38554 7.64072 8.38554 7.59924 8.58702 7.59924H16.0863C16.6315 7.61998 17.1707 7.67924 17.707 7.77998C18.8092 7.98443 19.867 8.3785 20.8359 8.9385C21.4789 9.31776 22.0685 9.77406 22.5959 10.2985C22.9929 10.7104 23.3485 11.1548 23.6655 11.6289C23.9796 12.1089 24.2404 12.6215 24.4478 13.1578C24.4744 13.297 24.6078 13.3918 24.747 13.3681H26.5367C26.7678 13.3681 26.7678 13.3681 26.7767 13.5874V15.2289C26.7767 15.3889 26.7174 15.4304 26.5574 15.4304H25.1767C25.0374 15.4304 24.9959 15.4304 25.0078 15.6111C25.0611 16.2215 25.0611 16.8318 25.0078 17.4392C25.0078 17.6081 25.0078 17.6289 25.1974 17.6289H26.7767C26.8478 17.7178 26.7767 17.8096 26.7767 17.8985C26.7855 18.0141 26.7855 18.1326 26.7767 18.2481V19.4629C26.7767 19.6318 26.7263 19.6822 26.5752 19.6822H24.6848C24.5544 19.6555 24.4241 19.7415 24.3944 19.8718C23.9441 21.0422 23.2241 22.0911 22.2937 22.9326C21.9529 23.2378 21.5974 23.5252 21.2241 23.7918C20.8241 24.0229 20.4329 24.2629 20.0241 24.4526C19.2685 24.7933 18.4774 25.0422 17.6626 25.2022C16.8922 25.3415 16.107 25.4037 15.3218 25.3918H8.37665L8.37961 25.38Z" fill="#FEFEFD"/>
</g>
<defs>
<clipPath id="clip0_594_1815">
<rect width="32" height="32" fill="white" transform="translate(0 0.5)"/>
</clipPath>
</defs>
</svg>
