<svg width="17" height="16" viewBox="0 0 17 16" fill="none" xmlns="http://www.w3.org/2000/svg">
<mask id="mask0_2011_205" style="mask-type:alpha" maskUnits="userSpaceOnUse" x="0" y="0" width="17" height="16">
<rect x="0.5" width="16" height="16" fill="#D9D9D9"/>
</mask>
<g mask="url(#mask0_2011_205)">
<path d="M4.92008 14.1116C4.56943 14.1116 4.2709 13.9887 4.02448 13.7428C3.77807 13.4969 3.65487 13.199 3.65487 12.849V3.70253H2.90137V2.43996H6.29133V1.80603H10.7042V2.43996H14.0994V3.70253H13.3459V12.849C13.3459 13.1934 13.2213 13.4899 12.9722 13.7386C12.723 13.9873 12.4258 14.1116 12.0807 14.1116H4.92008ZM12.0807 3.70253H4.92008V12.849H12.0807V3.70253ZM6.51973 11.4849H7.70655V5.05156H6.51973V11.4849ZM9.29425 11.4849H10.4837V5.05156H9.29425V11.4849Z" fill="#7F1111"/>
</g>
</svg>
