<svg width="20" height="20" viewBox="0 0 20 20" fill="none" xmlns="http://www.w3.org/2000/svg">
<path d="M5.83317 3.33329C5.83317 2.89127 6.00877 2.46734 6.32133 2.15478C6.63389 1.84222 7.05781 1.66663 7.49984 1.66663H12.4998C12.9419 1.66663 13.3658 1.84222 13.6783 2.15478C13.9909 2.46734 14.1665 2.89127 14.1665 3.33329V4.99996H17.4998C17.7209 4.99996 17.9328 5.08776 18.0891 5.24404C18.2454 5.40032 18.3332 5.61228 18.3332 5.83329C18.3332 6.05431 18.2454 6.26627 18.0891 6.42255C17.9328 6.57883 17.7209 6.66663 17.4998 6.66663H16.609L15.8865 16.785C15.8566 17.2054 15.6684 17.599 15.3599 17.8863C15.0514 18.1736 14.6456 18.3333 14.224 18.3333H5.77484C5.35329 18.3333 4.94739 18.1736 4.63891 17.8863C4.33042 17.599 4.14227 17.2054 4.11234 16.785L3.3915 6.66663H2.49984C2.27882 6.66663 2.06686 6.57883 1.91058 6.42255C1.7543 6.26627 1.6665 6.05431 1.6665 5.83329C1.6665 5.61228 1.7543 5.40032 1.91058 5.24404C2.06686 5.08776 2.27882 4.99996 2.49984 4.99996H5.83317V3.33329ZM7.49984 4.99996H12.4998V3.33329H7.49984V4.99996ZM5.0615 6.66663L5.77567 16.6666H14.2248L14.939 6.66663H5.0615ZM8.33317 8.33329C8.55418 8.33329 8.76615 8.42109 8.92243 8.57737C9.07871 8.73365 9.1665 8.94561 9.1665 9.16663V14.1666C9.1665 14.3876 9.07871 14.5996 8.92243 14.7559C8.76615 14.9122 8.55418 15 8.33317 15C8.11216 15 7.9002 14.9122 7.74391 14.7559C7.58763 14.5996 7.49984 14.3876 7.49984 14.1666V9.16663C7.49984 8.94561 7.58763 8.73365 7.74391 8.57737C7.9002 8.42109 8.11216 8.33329 8.33317 8.33329ZM11.6665 8.33329C11.8875 8.33329 12.0995 8.42109 12.2558 8.57737C12.412 8.73365 12.4998 8.94561 12.4998 9.16663V14.1666C12.4998 14.3876 12.412 14.5996 12.2558 14.7559C12.0995 14.9122 11.8875 15 11.6665 15C11.4455 15 11.2335 14.9122 11.0772 14.7559C10.921 14.5996 10.8332 14.3876 10.8332 14.1666V9.16663C10.8332 8.94561 10.921 8.73365 11.0772 8.57737C11.2335 8.42109 11.4455 8.33329 11.6665 8.33329Z" fill="#7F1111"/>
</svg>
