<svg width="16" height="16" viewBox="0 0 16 16" fill="none" xmlns="http://www.w3.org/2000/svg">
<mask id="mask0_598_4319" style="mask-type:alpha" maskUnits="userSpaceOnUse" x="0" y="0" width="16" height="16">
<rect width="16" height="16" fill="#D9D9D9"/>
</mask>
<g mask="url(#mask0_598_4319)">
<path d="M1.33398 4.66667V3.33333C1.33398 2.96667 1.46454 2.65278 1.72565 2.39167C1.98676 2.13056 2.30065 2 2.66732 2H13.334C13.7007 2 14.0145 2.13056 14.2757 2.39167C14.5368 2.65278 14.6673 2.96667 14.6673 3.33333V4.66667H13.334V3.33333H2.66732V4.66667H1.33398ZM5.33398 14V12.6667H2.66732C2.30065 12.6667 1.98676 12.5361 1.72565 12.275C1.46454 12.0139 1.33398 11.7 1.33398 11.3333V10H2.66732V11.3333H13.334V10H14.6673V11.3333C14.6673 11.7 14.5368 12.0139 14.2757 12.275C14.0145 12.5361 13.7007 12.6667 13.334 12.6667H10.6673V14H5.33398ZM3.20065 7.33333L4.93398 5.6L4.00065 4.66667L1.33398 7.33333L4.00065 10L4.93398 9.06667L3.20065 7.33333ZM12.8007 7.33333L11.0673 9.06667L12.0007 10L14.6673 7.33333L12.0007 4.66667L11.0673 5.6L12.8007 7.33333Z" fill="#333F66"/>
</g>
</svg>
