<svg width="16" height="16" viewBox="0 0 16 16" fill="none" xmlns="http://www.w3.org/2000/svg">
<mask id="mask0_566_2083" style="mask-type:alpha" maskUnits="userSpaceOnUse" x="0" y="0" width="16" height="16">
<rect width="16" height="16" fill="#D9D9D9"/>
</mask>
<g mask="url(#mask0_566_2083)">
<path d="M7.99984 14.6666C7.71095 14.6666 7.44984 14.5971 7.2165 14.4583C6.98317 14.3194 6.79984 14.1333 6.6665 13.8999C6.29984 13.8999 5.98595 13.7694 5.72484 13.5083C5.46373 13.2471 5.33317 12.9333 5.33317 12.5666V10.1999C4.67762 9.76659 4.15262 9.19436 3.75817 8.48325C3.36373 7.77214 3.1665 6.99992 3.1665 6.16658C3.1665 4.82214 3.63595 3.68047 4.57484 2.74159C5.51373 1.8027 6.65539 1.33325 7.99984 1.33325C9.34428 1.33325 10.4859 1.8027 11.4248 2.74159C12.3637 3.68047 12.8332 4.82214 12.8332 6.16658C12.8332 7.02214 12.6359 7.79992 12.2415 8.49992C11.8471 9.19992 11.3221 9.76659 10.6665 10.1999V12.5666C10.6665 12.9333 10.5359 13.2471 10.2748 13.5083C10.0137 13.7694 9.69984 13.8999 9.33317 13.8999C9.19984 14.1333 9.0165 14.3194 8.78317 14.4583C8.54984 14.5971 8.28873 14.6666 7.99984 14.6666ZM6.6665 12.5666H9.33317V11.9666H6.6665V12.5666ZM6.6665 11.2999H9.33317V10.6666H6.6665V11.2999ZM6.53317 9.33325H7.49984V7.53325L6.03317 6.06659L6.73317 5.36659L7.99984 6.63325L9.2665 5.36659L9.9665 6.06659L8.49984 7.53325V9.33325H9.4665C10.0665 9.04436 10.5554 8.61936 10.9332 8.05825C11.3109 7.49714 11.4998 6.86658 11.4998 6.16658C11.4998 5.18881 11.1609 4.36103 10.4832 3.68325C9.80539 3.00547 8.97762 2.66659 7.99984 2.66659C7.02206 2.66659 6.19428 3.00547 5.5165 3.68325C4.83873 4.36103 4.49984 5.18881 4.49984 6.16658C4.49984 6.86658 4.68873 7.49714 5.0665 8.05825C5.44428 8.61936 5.93317 9.04436 6.53317 9.33325Z" fill="#3F5DBA"/>
</g>
</svg>
