<svg width="20" height="20" viewBox="0 0 20 20" fill="none" xmlns="http://www.w3.org/2000/svg">
<mask id="mask0_598_4082" style="mask-type:alpha" maskUnits="userSpaceOnUse" x="0" y="0" width="20" height="20">
<rect width="20" height="20" fill="#D9D9D9"/>
</mask>
<g mask="url(#mask0_598_4082)">
<path d="M12.0833 15C11.5 15 11.0069 14.7986 10.6042 14.3958C10.2014 13.993 10 13.5 10 12.9166C10 12.3333 10.2014 11.8402 10.6042 11.4375C11.0069 11.0347 11.5 10.8333 12.0833 10.8333C12.6667 10.8333 13.1597 11.0347 13.5625 11.4375C13.9653 11.8402 14.1667 12.3333 14.1667 12.9166C14.1667 13.5 13.9653 13.993 13.5625 14.3958C13.1597 14.7986 12.6667 15 12.0833 15ZM4.16667 18.3333C3.70833 18.3333 3.31597 18.1701 2.98958 17.8437C2.66319 17.5173 2.5 17.125 2.5 16.6666V4.99996C2.5 4.54163 2.66319 4.14926 2.98958 3.82288C3.31597 3.49649 3.70833 3.33329 4.16667 3.33329H5V1.66663H6.66667V3.33329H13.3333V1.66663H15V3.33329H15.8333C16.2917 3.33329 16.684 3.49649 17.0104 3.82288C17.3368 4.14926 17.5 4.54163 17.5 4.99996V16.6666C17.5 17.125 17.3368 17.5173 17.0104 17.8437C16.684 18.1701 16.2917 18.3333 15.8333 18.3333H4.16667ZM4.16667 16.6666H15.8333V8.33329H4.16667V16.6666ZM4.16667 6.66663H15.8333V4.99996H4.16667V6.66663Z" fill="#3F5DBA"/>
</g>
</svg>
