<svg width="19" height="18" viewBox="0 0 19 18" fill="none" xmlns="http://www.w3.org/2000/svg">
<mask id="mask0_583_4389" style="mask-type:alpha" maskUnits="userSpaceOnUse" x="0" y="0" width="19" height="18">
<rect x="0.5" width="18" height="18" fill="#D9D9D9"/>
</mask>
<g mask="url(#mask0_583_4389)">
<path d="M11.375 13.5C10.85 13.5 10.4063 13.3187 10.0438 12.9562C9.68125 12.5938 9.5 12.15 9.5 11.625C9.5 11.1 9.68125 10.6562 10.0438 10.2937C10.4063 9.93125 10.85 9.75 11.375 9.75C11.9 9.75 12.3438 9.93125 12.7063 10.2937C13.0688 10.6562 13.25 11.1 13.25 11.625C13.25 12.15 13.0688 12.5938 12.7063 12.9562C12.3438 13.3187 11.9 13.5 11.375 13.5ZM4.25 16.5C3.8375 16.5 3.48438 16.3531 3.19063 16.0594C2.89688 15.7656 2.75 15.4125 2.75 15V4.5C2.75 4.0875 2.89688 3.73438 3.19063 3.44062C3.48438 3.14687 3.8375 3 4.25 3H5V1.5H6.5V3H12.5V1.5H14V3H14.75C15.1625 3 15.5156 3.14687 15.8094 3.44062C16.1031 3.73438 16.25 4.0875 16.25 4.5V15C16.25 15.4125 16.1031 15.7656 15.8094 16.0594C15.5156 16.3531 15.1625 16.5 14.75 16.5H4.25ZM4.25 15H14.75V7.5H4.25V15ZM4.25 6H14.75V4.5H4.25V6Z" fill="#3F5DBA"/>
</g>
</svg>
