<svg width="33" height="32" viewBox="0 0 33 32" fill="none" xmlns="http://www.w3.org/2000/svg">
<mask id="mask0_2011_836" style="mask-type:alpha" maskUnits="userSpaceOnUse" x="0" y="0" width="33" height="32">
<rect x="0.5" width="32" height="32" fill="#D9D9D9"/>
</mask>
<g mask="url(#mask0_2011_836)">
<path d="M5.83268 28C5.09935 28 4.47157 27.7389 3.94935 27.2167C3.42713 26.6944 3.16602 26.0667 3.16602 25.3333V6.66667C3.16602 5.93333 3.42713 5.30556 3.94935 4.78333C4.47157 4.26111 5.09935 4 5.83268 4H27.166C27.8993 4 28.5271 4.26111 29.0493 4.78333C29.5716 5.30556 29.8327 5.93333 29.8327 6.66667V25.3333C29.8327 26.0667 29.5716 26.6944 29.0493 27.2167C28.5271 27.7389 27.8993 28 27.166 28H5.83268ZM5.83268 25.3333H27.166V6.66667H5.83268V25.3333ZM7.16602 22.6667H13.8327V20H7.16602V22.6667ZM19.8993 20L26.4993 13.4L24.5993 11.5L19.8993 16.2333L17.9993 14.3333L16.1327 16.2333L19.8993 20ZM7.16602 17.3333H13.8327V14.6667H7.16602V17.3333ZM7.16602 12H13.8327V9.33333H7.16602V12Z" fill="#FFFCF0"/>
</g>
</svg>
