<svg width="106" height="32" viewBox="0 0 106 32" fill="none" xmlns="http://www.w3.org/2000/svg">
<g clip-path="url(#clip0_444_338)">
<path d="M96.7111 15.5259H93.037C90.6667 15.5259 89.363 17.3037 89.363 20.3852V31.4074H82.2519V15.5259H79.2889C76.9185 15.5259 75.6148 17.3037 75.6148 20.3852V31.4074H68.5037V9.6H75.6148V12.9185C76.8 10.3111 78.3407 9.6 80.7111 9.6H89.363V12.9185C90.5481 10.3111 92.0889 9.6 94.4593 9.6H96.8296L96.7111 15.5259ZM66.8444 22.163H52.1481C52.5037 24.6519 54.0444 25.9556 56.5333 25.9556C58.4296 25.9556 59.7333 25.1259 60.2074 23.8222L66.4889 25.6C64.9482 29.3926 61.1556 31.6444 56.5333 31.6444C48.8296 31.6444 45.2741 25.6 45.2741 20.3852C45.2741 15.2889 48.3556 9.24444 56.0593 9.24444C64.237 9.24444 66.963 15.4074 66.963 20.0296C66.963 21.0963 66.963 21.6889 66.8444 22.163ZM60.0889 18.0148C59.9704 16.1185 58.5481 14.4593 56.1778 14.4593C53.9259 14.4593 52.6222 15.4074 52.1481 18.0148H60.0889ZM32.9481 31.4074H39.1111L46.9333 9.71852H39.8222L36.0296 22.4L32.237 9.6H25.1259L32.9481 31.4074ZM4.02963 31.4074H11.0222V15.5259H17.7778V31.4074H24.7704V9.6H11.0222V8.2963C11.0222 6.87407 12.0889 5.92593 13.6296 5.92593H17.7778V0H12.563C7.46667 0 4.02963 3.2 4.02963 7.82222V9.6H0V15.5259H4.02963V31.4074Z" fill="#FFFCF0"/>
<path d="M101.096 32C103.467 32 105.481 29.9852 105.481 27.6148C105.481 25.2444 103.467 23.2296 101.096 23.2296C98.7259 23.2296 96.7111 25.2444 96.7111 27.6148C96.7111 29.9852 98.7259 32 101.096 32Z" fill="#FFFCF0"/>
</g>
<defs>
<clipPath id="clip0_444_338">
<rect width="105.481" height="32" fill="white"/>
</clipPath>
</defs>
</svg>
