<svg width="32" height="33" viewBox="0 0 32 33" fill="none" xmlns="http://www.w3.org/2000/svg">
<rect y="0.5" width="32" height="32" rx="16" fill="#1F1F2D"/>
<path fill-rule="evenodd" clip-rule="evenodd" d="M12.7637 8.5H18.6034L20.4374 11.5514H12.8087C10.1421 11.5514 7.98172 13.7695 7.98172 16.5056C7.98172 19.2417 10.097 21.4148 12.73 21.4599H22.5865L19.616 16.5056H23.3291L26.2996 21.4599H26.3333V24.5H12.1674V24.4775C8.16174 24.1509 5 20.7055 5 16.5056C5 12.0918 8.47679 8.52252 12.7637 8.5ZM13.9114 14.2424C13.9114 15.0869 13.2475 15.7625 12.4262 15.7625C11.6048 15.7625 10.9409 15.0757 10.9409 14.2424C10.9409 13.4092 11.6048 12.7224 12.4262 12.7224C13.2475 12.7224 13.9114 13.398 13.9114 14.2424ZM12.4262 19.9849C13.2475 19.9849 13.9114 19.298 13.9114 18.4648C13.9114 17.6316 13.2475 16.9448 12.4262 16.9448C11.6048 16.9448 10.9409 17.6316 10.9409 18.4648C10.9409 19.298 11.6048 19.9849 12.4262 19.9849Z" fill="#AC8DF1"/>
</svg>
