<svg width="32" height="33" viewBox="0 0 32 33" fill="none" xmlns="http://www.w3.org/2000/svg">
<rect y="0.5" width="32" height="32" rx="16" fill="#50AF95"/>
<g clip-path="url(#clip0_594_1819)">
<path d="M27.1536 16.9536C27.1536 15.5895 23.3699 14.4532 18.3407 14.1902V12.018H24.621V7.5H7.44643V12.018H13.7267V14.201C8.78884 14.4803 5.09375 15.6058 5.09375 16.9536C5.09375 18.2986 8.78607 19.4241 13.7239 19.7061V27.5027H18.3352V19.7142C23.3671 19.4512 27.1536 18.3149 27.1536 16.9536ZM16.1237 18.2959C10.7263 18.2959 6.34759 17.4769 6.34759 16.4681C6.34759 15.6139 9.48634 14.8953 13.7239 14.6946V15.2098V17.3169C14.4879 17.3576 15.2905 17.382 16.1209 17.382C16.8848 17.382 17.6266 17.3631 18.3352 17.3278V14.6837C22.6669 14.8708 25.8942 15.5976 25.8942 16.4654C25.8997 17.4769 21.521 18.2959 16.1237 18.2959Z" fill="white"/>
</g>
<defs>
<clipPath id="clip0_594_1819">
<rect width="22.1429" height="20" fill="white" transform="translate(5 7.5)"/>
</clipPath>
</defs>
</svg>
