<svg width="14" height="16" viewBox="0 0 14 16" fill="none" xmlns="http://www.w3.org/2000/svg">
<g clip-path="url(#clip0_108_1234)">
<path d="M5.38464 0H4.15387V1.23077H5.38464V0Z" fill="#D6EA5E"/>
<path d="M6.61541 0H5.38464V1.23077H6.61541V0Z" fill="#D6EA5E"/>
<path d="M7.84619 0H6.61542V1.23077H7.84619V0Z" fill="#D6EA5E"/>
<path d="M9.07696 0H7.84619V1.23077H9.07696V0Z" fill="#D6EA5E"/>
<path d="M10.3077 0H9.0769V1.23077H10.3077V0Z" fill="#D6EA5E"/>
<path d="M4.15386 1.23077H2.9231V2.46154H4.15386V1.23077Z" fill="#D6EA5E"/>
<path d="M5.38464 1.23077H4.15387V2.46154H5.38464V1.23077Z" fill="#3F5DBA"/>
<path d="M6.61541 1.23077H5.38464V2.46154H6.61541V1.23077Z" fill="#3F5DBA"/>
<path d="M7.84619 1.23077H6.61542V2.46154H7.84619V1.23077Z" fill="#3F5DBA"/>
<path d="M9.07696 1.23077H7.84619V2.46154H9.07696V1.23077Z" fill="#3F5DBA"/>
<path d="M10.3077 1.23077H9.0769V2.46154H10.3077V1.23077Z" fill="#3F5DBA"/>
<path d="M11.5384 1.23077H10.3077V2.46154H11.5384V1.23077Z" fill="#D6EA5E"/>
<path d="M4.15386 2.46155H2.9231V3.69232H4.15386V2.46155Z" fill="#D6EA5E"/>
<path d="M5.38464 2.46155H4.15387V3.69232H5.38464V2.46155Z" fill="#3F5DBA"/>
<path d="M6.61541 2.46155H5.38464V3.69232H6.61541V2.46155Z" fill="#D6EA5E"/>
<path d="M7.84619 2.46155H6.61542V3.69232H7.84619V2.46155Z" fill="#3F5DBA"/>
<path d="M9.07696 2.46155H7.84619V3.69232H9.07696V2.46155Z" fill="#D6EA5E"/>
<path d="M10.3077 2.46155H9.0769V3.69232H10.3077V2.46155Z" fill="#3F5DBA"/>
<path d="M11.5384 2.46155H10.3077V3.69232H11.5384V2.46155Z" fill="#D6EA5E"/>
<path d="M4.15386 3.69232H2.9231V4.92309H4.15386V3.69232Z" fill="#D6EA5E"/>
<path d="M5.38464 3.69232H4.15387V4.92309H5.38464V3.69232Z" fill="#3F5DBA"/>
<path d="M6.61541 3.69232H5.38464V4.92309H6.61541V3.69232Z" fill="#D6EA5E"/>
<path d="M7.84619 3.69232H6.61542V4.92309H7.84619V3.69232Z" fill="#3F5DBA"/>
<path d="M9.07696 3.69232H7.84619V4.92309H9.07696V3.69232Z" fill="#D6EA5E"/>
<path d="M10.3077 3.69232H9.0769V4.92309H10.3077V3.69232Z" fill="#3F5DBA"/>
<path d="M11.5384 3.69232H10.3077V4.92309H11.5384V3.69232Z" fill="#D6EA5E"/>
<path d="M4.15386 4.9231H2.9231V6.15386H4.15386V4.9231Z" fill="#D6EA5E"/>
<path d="M5.38464 4.9231H4.15387V6.15386H5.38464V4.9231Z" fill="#3F5DBA"/>
<path d="M6.61541 4.9231H5.38464V6.15386H6.61541V4.9231Z" fill="#D6EA5E"/>
<path d="M7.84619 4.9231H6.61542V6.15386H7.84619V4.9231Z" fill="#3F5DBA"/>
<path d="M9.07696 4.9231H7.84619V6.15386H9.07696V4.9231Z" fill="#D6EA5E"/>
<path d="M10.3077 4.9231H9.0769V6.15386H10.3077V4.9231Z" fill="#3F5DBA"/>
<path d="M11.5384 4.9231H10.3077V6.15386H11.5384V4.9231Z" fill="#D6EA5E"/>
<path d="M4.15386 6.15387H2.9231V7.38464H4.15386V6.15387Z" fill="#D6EA5E"/>
<path d="M5.38464 6.15387H4.15387V7.38464H5.38464V6.15387Z" fill="#3F5DBA"/>
<path d="M6.61541 6.15387H5.38464V7.38464H6.61541V6.15387Z" fill="#3F5DBA"/>
<path d="M7.84619 6.15387H6.61542V7.38464H7.84619V6.15387Z" fill="#3F5DBA"/>
<path d="M9.07696 6.15387H7.84619V7.38464H9.07696V6.15387Z" fill="#3F5DBA"/>
<path d="M10.3077 6.15387H9.0769V7.38464H10.3077V6.15387Z" fill="#3F5DBA"/>
<path d="M11.5384 6.15387H10.3077V7.38464H11.5384V6.15387Z" fill="#D6EA5E"/>
<path d="M5.38464 7.38464H4.15387V8.61541H5.38464V7.38464Z" fill="#D6EA5E"/>
<path d="M6.61541 7.38464H5.38464V8.61541H6.61541V7.38464Z" fill="#D6EA5E"/>
<path d="M7.84619 7.38464H6.61542V8.61541H7.84619V7.38464Z" fill="#D6EA5E"/>
<path d="M9.07696 7.38464H7.84619V8.61541H9.07696V7.38464Z" fill="#D6EA5E"/>
<path d="M10.3077 7.38464H9.0769V8.61541H10.3077V7.38464Z" fill="#D6EA5E"/>
<path d="M2.92309 8.61536H1.69232V9.84613H2.92309V8.61536Z" fill="#D6EA5E"/>
<path d="M4.15386 8.61536H2.9231V9.84613H4.15386V8.61536Z" fill="#D6EA5E"/>
<path d="M5.38464 8.61536H4.15387V9.84613H5.38464V8.61536Z" fill="#3F5DBA"/>
<path d="M6.61541 8.61536H5.38464V9.84613H6.61541V8.61536Z" fill="#3F5DBA"/>
<path d="M7.84619 8.61536H6.61542V9.84613H7.84619V8.61536Z" fill="#3F5DBA"/>
<path d="M9.07696 8.61536H7.84619V9.84613H9.07696V8.61536Z" fill="#3F5DBA"/>
<path d="M10.3077 8.61536H9.0769V9.84613H10.3077V8.61536Z" fill="#3F5DBA"/>
<path d="M11.5384 8.61536H10.3077V9.84613H11.5384V8.61536Z" fill="#D6EA5E"/>
<path d="M12.7692 8.61536H11.5385V9.84613H12.7692V8.61536Z" fill="#D6EA5E"/>
<path d="M1.69232 9.84613H0.461548V11.0769H1.69232V9.84613Z" fill="#D6EA5E"/>
<path d="M2.92309 9.84613H1.69232V11.0769H2.92309V9.84613Z" fill="#3F5DBA"/>
<path d="M4.15386 9.84613H2.9231V11.0769H4.15386V9.84613Z" fill="#3F5DBA"/>
<path d="M5.38464 9.84613H4.15387V11.0769H5.38464V9.84613Z" fill="#3F5DBA"/>
<path d="M6.61541 9.84613H5.38464V11.0769H6.61541V9.84613Z" fill="#3F5DBA"/>
<path d="M7.84619 9.84613H6.61542V11.0769H7.84619V9.84613Z" fill="#3F5DBA"/>
<path d="M9.07696 9.84613H7.84619V11.0769H9.07696V9.84613Z" fill="#3F5DBA"/>
<path d="M10.3077 9.84613H9.0769V11.0769H10.3077V9.84613Z" fill="#3F5DBA"/>
<path d="M11.5384 9.84613H10.3077V11.0769H11.5384V9.84613Z" fill="#3F5DBA"/>
<path d="M12.7692 9.84613H11.5385V11.0769H12.7692V9.84613Z" fill="#3F5DBA"/>
<path d="M14 9.84613H12.7692V11.0769H14V9.84613Z" fill="#D6EA5E"/>
<path d="M1.69232 11.0769H0.461548V12.3077H1.69232V11.0769Z" fill="#D6EA5E"/>
<path d="M2.92309 11.0769H1.69232V12.3077H2.92309V11.0769Z" fill="#3F5DBA"/>
<path d="M4.15386 11.0769H2.9231V12.3077H4.15386V11.0769Z" fill="#3F5DBA"/>
<path d="M5.38464 11.0769H4.15387V12.3077H5.38464V11.0769Z" fill="#D6EA5E"/>
<path d="M6.61541 11.0769H5.38464V12.3077H6.61541V11.0769Z" fill="#D6EA5E"/>
<path d="M7.84619 11.0769H6.61542V12.3077H7.84619V11.0769Z" fill="#D6EA5E"/>
<path d="M9.07696 11.0769H7.84619V12.3077H9.07696V11.0769Z" fill="#D6EA5E"/>
<path d="M10.3077 11.0769H9.0769V12.3077H10.3077V11.0769Z" fill="#D6EA5E"/>
<path d="M11.5384 11.0769H10.3077V12.3077H11.5384V11.0769Z" fill="#3F5DBA"/>
<path d="M12.7692 11.0769H11.5385V12.3077H12.7692V11.0769Z" fill="#3F5DBA"/>
<path d="M14 11.0769H12.7692V12.3077H14V11.0769Z" fill="#D6EA5E"/>
<path d="M1.69232 12.3077H0.461548V13.5384H1.69232V12.3077Z" fill="#D6EA5E"/>
<path d="M2.92309 12.3077H1.69232V13.5384H2.92309V12.3077Z" fill="#3F5DBA"/>
<path d="M4.15386 12.3077H2.9231V13.5384H4.15386V12.3077Z" fill="#3F5DBA"/>
<path d="M5.38464 12.3077H4.15387V13.5384H5.38464V12.3077Z" fill="#D6EA5E"/>
<path d="M6.61541 12.3077H5.38464V13.5384H6.61541V12.3077Z" fill="#D6EA5E"/>
<path d="M7.84619 12.3077H6.61542V13.5384H7.84619V12.3077Z" fill="#3F5DBA"/>
<path d="M9.07696 12.3077H7.84619V13.5384H9.07696V12.3077Z" fill="#D6EA5E"/>
<path d="M10.3077 12.3077H9.0769V13.5384H10.3077V12.3077Z" fill="#D6EA5E"/>
<path d="M11.5384 12.3077H10.3077V13.5384H11.5384V12.3077Z" fill="#3F5DBA"/>
<path d="M12.7692 12.3077H11.5385V13.5384H12.7692V12.3077Z" fill="#3F5DBA"/>
<path d="M14 12.3077H12.7692V13.5384H14V12.3077Z" fill="#D6EA5E"/>
<path d="M1.69232 13.5385H0.461548V14.7692H1.69232V13.5385Z" fill="#D6EA5E"/>
<path d="M2.92309 13.5385H1.69232V14.7692H2.92309V13.5385Z" fill="#3F5DBA"/>
<path d="M4.15386 13.5385H2.9231V14.7692H4.15386V13.5385Z" fill="#3F5DBA"/>
<path d="M5.38464 13.5385H4.15387V14.7692H5.38464V13.5385Z" fill="#D6EA5E"/>
<path d="M6.61541 13.5385H5.38464V14.7692H6.61541V13.5385Z" fill="#D6EA5E"/>
<path d="M7.84619 13.5385H6.61542V14.7692H7.84619V13.5385Z" fill="#D6EA5E"/>
<path d="M9.07696 13.5385H7.84619V14.7692H9.07696V13.5385Z" fill="#D6EA5E"/>
<path d="M10.3077 13.5385H9.0769V14.7692H10.3077V13.5385Z" fill="#D6EA5E"/>
<path d="M11.5384 13.5385H10.3077V14.7692H11.5384V13.5385Z" fill="#3F5DBA"/>
<path d="M12.7692 13.5385H11.5385V14.7692H12.7692V13.5385Z" fill="#3F5DBA"/>
<path d="M14 13.5385H12.7692V14.7692H14V13.5385Z" fill="#D6EA5E"/>
<path d="M1.69232 14.7692H0.461548V16H1.69232V14.7692Z" fill="#D6EA5E"/>
<path d="M2.92309 14.7692H1.69232V16H2.92309V14.7692Z" fill="#D6EA5E"/>
<path d="M4.15386 14.7692H2.9231V16H4.15386V14.7692Z" fill="#D6EA5E"/>
<path d="M5.38464 14.7692H4.15387V16H5.38464V14.7692Z" fill="#D6EA5E"/>
<path d="M6.61541 14.7692H5.38464V16H6.61541V14.7692Z" fill="#D6EA5E"/>
<path d="M7.84619 14.7692H6.61542V16H7.84619V14.7692Z" fill="#D6EA5E"/>
<path d="M9.07696 14.7692H7.84619V16H9.07696V14.7692Z" fill="#D6EA5E"/>
<path d="M10.3077 14.7692H9.0769V16H10.3077V14.7692Z" fill="#D6EA5E"/>
<path d="M11.5384 14.7692H10.3077V16H11.5384V14.7692Z" fill="#D6EA5E"/>
<path d="M12.7692 14.7692H11.5385V16H12.7692V14.7692Z" fill="#D6EA5E"/>
<path d="M14 14.7692H12.7692V16H14V14.7692Z" fill="#D6EA5E"/>
</g>
<defs>
<clipPath id="clip0_108_1234">
<rect width="13.5385" height="16" fill="white" transform="translate(0.461548)"/>
</clipPath>
</defs>
</svg>
