<svg width="68" height="80" viewBox="0 0 68 80" fill="none" xmlns="http://www.w3.org/2000/svg">
<g clip-path="url(#clip0_108_1471)">
<path d="M24.7692 0H18.6154V6.15385H24.7692V0Z" fill="#3F5DBA"/>
<path d="M30.923 0H24.7692V6.15385H30.923V0Z" fill="#3F5DBA"/>
<path d="M37.0769 0H30.9231V6.15385H37.0769V0Z" fill="#3F5DBA"/>
<path d="M43.2308 0H37.0769V6.15385H43.2308V0Z" fill="#3F5DBA"/>
<path d="M49.3846 0H43.2307V6.15385H49.3846V0Z" fill="#3F5DBA"/>
<path d="M18.6154 6.15384H12.4615V12.3077H18.6154V6.15384Z" fill="#3F5DBA"/>
<path d="M24.7692 6.15384H18.6154V12.3077H24.7692V6.15384Z" fill="#D6EA5E"/>
<path d="M30.923 6.15384H24.7692V12.3077H30.923V6.15384Z" fill="#D6EA5E"/>
<path d="M37.0769 6.15384H30.9231V12.3077H37.0769V6.15384Z" fill="#D6EA5E"/>
<path d="M43.2308 6.15384H37.0769V12.3077H43.2308V6.15384Z" fill="#D6EA5E"/>
<path d="M49.3846 6.15384H43.2307V12.3077H49.3846V6.15384Z" fill="#D6EA5E"/>
<path d="M55.5384 6.15384H49.3845V12.3077H55.5384V6.15384Z" fill="#3F5DBA"/>
<path d="M18.6154 12.3077H12.4615V18.4615H18.6154V12.3077Z" fill="#3F5DBA"/>
<path d="M24.7692 12.3077H18.6154V18.4615H24.7692V12.3077Z" fill="#D6EA5E"/>
<path d="M30.923 12.3077H24.7692V18.4615H30.923V12.3077Z" fill="#3F5DBA"/>
<path d="M37.0769 12.3077H30.9231V18.4615H37.0769V12.3077Z" fill="#D6EA5E"/>
<path d="M43.2308 12.3077H37.0769V18.4615H43.2308V12.3077Z" fill="#3F5DBA"/>
<path d="M49.3846 12.3077H43.2307V18.4615H49.3846V12.3077Z" fill="#D6EA5E"/>
<path d="M55.5384 12.3077H49.3845V18.4615H55.5384V12.3077Z" fill="#3F5DBA"/>
<path d="M18.6154 18.4615H12.4615V24.6154H18.6154V18.4615Z" fill="#3F5DBA"/>
<path d="M24.7692 18.4615H18.6154V24.6154H24.7692V18.4615Z" fill="#D6EA5E"/>
<path d="M30.923 18.4615H24.7692V24.6154H30.923V18.4615Z" fill="#3F5DBA"/>
<path d="M37.0769 18.4615H30.9231V24.6154H37.0769V18.4615Z" fill="#D6EA5E"/>
<path d="M43.2308 18.4615H37.0769V24.6154H43.2308V18.4615Z" fill="#3F5DBA"/>
<path d="M49.3846 18.4615H43.2307V24.6154H49.3846V18.4615Z" fill="#D6EA5E"/>
<path d="M55.5384 18.4615H49.3845V24.6154H55.5384V18.4615Z" fill="#3F5DBA"/>
<path d="M18.6154 24.6154H12.4615V30.7692H18.6154V24.6154Z" fill="#3F5DBA"/>
<path d="M24.7692 24.6154H18.6154V30.7692H24.7692V24.6154Z" fill="#D6EA5E"/>
<path d="M30.923 24.6154H24.7692V30.7692H30.923V24.6154Z" fill="#3F5DBA"/>
<path d="M37.0769 24.6154H30.9231V30.7692H37.0769V24.6154Z" fill="#D6EA5E"/>
<path d="M43.2308 24.6154H37.0769V30.7692H43.2308V24.6154Z" fill="#3F5DBA"/>
<path d="M49.3846 24.6154H43.2307V30.7692H49.3846V24.6154Z" fill="#D6EA5E"/>
<path d="M55.5384 24.6154H49.3845V30.7692H55.5384V24.6154Z" fill="#3F5DBA"/>
<path d="M18.6154 30.7692H12.4615V36.9231H18.6154V30.7692Z" fill="#3F5DBA"/>
<path d="M24.7692 30.7692H18.6154V36.9231H24.7692V30.7692Z" fill="#D6EA5E"/>
<path d="M30.923 30.7692H24.7692V36.9231H30.923V30.7692Z" fill="#D6EA5E"/>
<path d="M37.0769 30.7692H30.9231V36.9231H37.0769V30.7692Z" fill="#D6EA5E"/>
<path d="M43.2308 30.7692H37.0769V36.9231H43.2308V30.7692Z" fill="#D6EA5E"/>
<path d="M49.3846 30.7692H43.2307V36.9231H49.3846V30.7692Z" fill="#D6EA5E"/>
<path d="M55.5384 30.7692H49.3845V36.9231H55.5384V30.7692Z" fill="#3F5DBA"/>
<path d="M24.7692 36.9231H18.6154V43.0769H24.7692V36.9231Z" fill="#3F5DBA"/>
<path d="M30.923 36.9231H24.7692V43.0769H30.923V36.9231Z" fill="#3F5DBA"/>
<path d="M37.0769 36.9231H30.9231V43.0769H37.0769V36.9231Z" fill="#3F5DBA"/>
<path d="M43.2308 36.9231H37.0769V43.0769H43.2308V36.9231Z" fill="#3F5DBA"/>
<path d="M49.3846 36.9231H43.2307V43.0769H49.3846V36.9231Z" fill="#3F5DBA"/>
<path d="M12.4615 43.0769H6.30762V49.2308H12.4615V43.0769Z" fill="#3F5DBA"/>
<path d="M18.6154 43.0769H12.4615V49.2308H18.6154V43.0769Z" fill="#3F5DBA"/>
<path d="M24.7692 43.0769H18.6154V49.2308H24.7692V43.0769Z" fill="#D6EA5E"/>
<path d="M30.923 43.0769H24.7692V49.2308H30.923V43.0769Z" fill="#D6EA5E"/>
<path d="M37.0769 43.0769H30.9231V49.2308H37.0769V43.0769Z" fill="#D6EA5E"/>
<path d="M43.2308 43.0769H37.0769V49.2308H43.2308V43.0769Z" fill="#D6EA5E"/>
<path d="M49.3846 43.0769H43.2307V49.2308H49.3846V43.0769Z" fill="#D6EA5E"/>
<path d="M55.5384 43.0769H49.3845V49.2308H55.5384V43.0769Z" fill="#3F5DBA"/>
<path d="M61.6923 43.0769H55.5385V49.2308H61.6923V43.0769Z" fill="#3F5DBA"/>
<path d="M6.30765 49.2308H0.153809V55.3846H6.30765V49.2308Z" fill="#3F5DBA"/>
<path d="M12.4615 49.2308H6.30762V55.3846H12.4615V49.2308Z" fill="#D6EA5E"/>
<path d="M18.6154 49.2308H12.4615V55.3846H18.6154V49.2308Z" fill="#D6EA5E"/>
<path d="M24.7692 49.2308H18.6154V55.3846H24.7692V49.2308Z" fill="#D6EA5E"/>
<path d="M30.923 49.2308H24.7692V55.3846H30.923V49.2308Z" fill="#D6EA5E"/>
<path d="M37.0769 49.2308H30.9231V55.3846H37.0769V49.2308Z" fill="#D6EA5E"/>
<path d="M43.2308 49.2308H37.0769V55.3846H43.2308V49.2308Z" fill="#D6EA5E"/>
<path d="M49.3846 49.2308H43.2307V55.3846H49.3846V49.2308Z" fill="#D6EA5E"/>
<path d="M55.5384 49.2308H49.3845V55.3846H55.5384V49.2308Z" fill="#D6EA5E"/>
<path d="M61.6923 49.2308H55.5385V55.3846H61.6923V49.2308Z" fill="#D6EA5E"/>
<path d="M67.8461 49.2308H61.6923V55.3846H67.8461V49.2308Z" fill="#3F5DBA"/>
<path d="M6.30765 55.3846H0.153809V61.5385H6.30765V55.3846Z" fill="#3F5DBA"/>
<path d="M12.4615 55.3846H6.30762V61.5385H12.4615V55.3846Z" fill="#D6EA5E"/>
<path d="M18.6154 55.3846H12.4615V61.5385H18.6154V55.3846Z" fill="#D6EA5E"/>
<path d="M24.7692 55.3846H18.6154V61.5385H24.7692V55.3846Z" fill="#3F5DBA"/>
<path d="M30.923 55.3846H24.7692V61.5385H30.923V55.3846Z" fill="#3F5DBA"/>
<path d="M37.0769 55.3846H30.9231V61.5385H37.0769V55.3846Z" fill="#3F5DBA"/>
<path d="M43.2308 55.3846H37.0769V61.5385H43.2308V55.3846Z" fill="#3F5DBA"/>
<path d="M49.3846 55.3846H43.2307V61.5385H49.3846V55.3846Z" fill="#3F5DBA"/>
<path d="M55.5384 55.3846H49.3845V61.5385H55.5384V55.3846Z" fill="#D6EA5E"/>
<path d="M61.6923 55.3846H55.5385V61.5385H61.6923V55.3846Z" fill="#D6EA5E"/>
<path d="M67.8461 55.3846H61.6923V61.5385H67.8461V55.3846Z" fill="#3F5DBA"/>
<path d="M6.30765 61.5385H0.153809V67.6923H6.30765V61.5385Z" fill="#3F5DBA"/>
<path d="M12.4615 61.5385H6.30762V67.6923H12.4615V61.5385Z" fill="#D6EA5E"/>
<path d="M18.6154 61.5385H12.4615V67.6923H18.6154V61.5385Z" fill="#D6EA5E"/>
<path d="M24.7692 61.5385H18.6154V67.6923H24.7692V61.5385Z" fill="#3F5DBA"/>
<path d="M30.923 61.5385H24.7692V67.6923H30.923V61.5385Z" fill="#3F5DBA"/>
<path d="M37.0769 61.5385H30.9231V67.6923H37.0769V61.5385Z" fill="#D6EA5E"/>
<path d="M43.2308 61.5385H37.0769V67.6923H43.2308V61.5385Z" fill="#3F5DBA"/>
<path d="M49.3846 61.5385H43.2307V67.6923H49.3846V61.5385Z" fill="#3F5DBA"/>
<path d="M55.5384 61.5385H49.3845V67.6923H55.5384V61.5385Z" fill="#D6EA5E"/>
<path d="M61.6923 61.5385H55.5385V67.6923H61.6923V61.5385Z" fill="#D6EA5E"/>
<path d="M67.8461 61.5385H61.6923V67.6923H67.8461V61.5385Z" fill="#3F5DBA"/>
<path d="M6.30765 67.6923H0.153809V73.8462H6.30765V67.6923Z" fill="#3F5DBA"/>
<path d="M12.4615 67.6923H6.30762V73.8462H12.4615V67.6923Z" fill="#D6EA5E"/>
<path d="M18.6154 67.6923H12.4615V73.8462H18.6154V67.6923Z" fill="#D6EA5E"/>
<path d="M24.7692 67.6923H18.6154V73.8462H24.7692V67.6923Z" fill="#3F5DBA"/>
<path d="M30.923 67.6923H24.7692V73.8462H30.923V67.6923Z" fill="#3F5DBA"/>
<path d="M37.0769 67.6923H30.9231V73.8462H37.0769V67.6923Z" fill="#3F5DBA"/>
<path d="M43.2308 67.6923H37.0769V73.8462H43.2308V67.6923Z" fill="#3F5DBA"/>
<path d="M49.3846 67.6923H43.2307V73.8462H49.3846V67.6923Z" fill="#3F5DBA"/>
<path d="M55.5384 67.6923H49.3845V73.8462H55.5384V67.6923Z" fill="#D6EA5E"/>
<path d="M61.6923 67.6923H55.5385V73.8462H61.6923V67.6923Z" fill="#D6EA5E"/>
<path d="M67.8461 67.6923H61.6923V73.8462H67.8461V67.6923Z" fill="#3F5DBA"/>
<path d="M6.30765 73.8462H0.153809V80H6.30765V73.8462Z" fill="#3F5DBA"/>
<path d="M12.4615 73.8462H6.30762V80H12.4615V73.8462Z" fill="#3F5DBA"/>
<path d="M18.6154 73.8462H12.4615V80H18.6154V73.8462Z" fill="#3F5DBA"/>
<path d="M24.7692 73.8462H18.6154V80H24.7692V73.8462Z" fill="#3F5DBA"/>
<path d="M30.923 73.8462H24.7692V80H30.923V73.8462Z" fill="#3F5DBA"/>
<path d="M37.0769 73.8462H30.9231V80H37.0769V73.8462Z" fill="#3F5DBA"/>
<path d="M43.2308 73.8462H37.0769V80H43.2308V73.8462Z" fill="#3F5DBA"/>
<path d="M49.3846 73.8462H43.2307V80H49.3846V73.8462Z" fill="#3F5DBA"/>
<path d="M55.5384 73.8462H49.3845V80H55.5384V73.8462Z" fill="#3F5DBA"/>
<path d="M61.6923 73.8462H55.5385V80H61.6923V73.8462Z" fill="#3F5DBA"/>
<path d="M67.8461 73.8462H61.6923V80H67.8461V73.8462Z" fill="#3F5DBA"/>
</g>
<defs>
<clipPath id="clip0_108_1471">
<rect width="67.6923" height="80" fill="white" transform="translate(0.153809)"/>
</clipPath>
</defs>
</svg>
