<svg width="33" height="20" viewBox="0 0 33 20" fill="none" xmlns="http://www.w3.org/2000/svg">
<path d="M17.5164 14.6311C17.4735 15.821 17.069 16.8777 16.2979 17.7868C15.6934 18.5007 14.9224 18.9814 14.0752 19.3432C13.5516 19.5669 13.0042 19.7097 12.4474 19.8191C12.2237 19.862 12 19.881 11.7763 19.9143C11.7239 19.9238 11.6715 19.9381 11.6239 19.9524C11.4716 19.9667 11.3241 19.981 11.1718 19.9905C11.0671 19.9952 10.9624 19.9952 10.8529 20C10.8196 19.9952 10.7863 19.9905 10.7529 19.9905C7.5259 19.9905 4.29886 19.9905 1.07183 19.9905C0.986156 19.9905 0.895723 19.9857 0.81005 19.9857C0.800531 19.9762 0.786252 19.9619 0.776733 19.9524C0.771973 19.8762 0.771973 19.8049 0.771973 19.7287C0.771973 13.2413 0.771973 6.75393 0.771973 0.2713C0.771973 0.195146 0.776732 0.123751 0.781492 0.0475964C0.80529 0.0380771 0.829088 0.0237991 0.857646 0.0142798C0.919522 0.0142798 0.981397 0.00951986 1.03851 0.00951986C4.06564 0.00951986 7.09753 0.00951986 10.1247 0.00951986C10.1913 0.00951986 10.2579 0.0142798 10.3293 0.0142798C10.3674 0.0142798 10.4102 0.0142798 10.4483 0.0142798C10.4912 0.00952015 10.5292 0.00475964 10.5721 0V0.0142798C10.6435 0.0237991 10.7101 0.0333186 10.7815 0.0428379C10.9814 0.0428379 11.1813 0.0475964 11.386 0.0475964C12.276 0.123751 13.1566 0.26654 13.9847 0.618753C15.0128 1.05664 15.7791 1.76107 16.217 2.79867C16.4645 3.3841 16.5692 4.00286 16.5835 4.63589C16.593 4.93099 16.5692 5.23084 16.5597 5.52594C16.5549 5.54022 16.5502 5.55926 16.5502 5.57354C16.4693 6.57306 16.079 7.42028 15.3603 8.11994C14.9747 8.49595 14.5321 8.79105 14.0561 9.03855C14.0085 9.06235 13.9657 9.09091 13.9038 9.12423C14.1466 9.21466 14.3798 9.29557 14.6035 9.38601C16.0694 10 16.969 11.0947 17.3593 12.6226C17.4545 12.9986 17.5164 13.3746 17.5259 13.7649C17.5259 13.7696 17.5211 13.7744 17.5211 13.7792C17.5211 13.7887 17.5259 13.803 17.5307 13.8125C17.5307 14.0647 17.5354 14.3218 17.5354 14.574C17.5211 14.5978 17.5164 14.6168 17.5164 14.6311ZM5.19368 3.42218C5.18416 3.43646 5.17464 3.44598 5.16512 3.46026C5.16512 3.49833 5.16036 3.54117 5.16036 3.57925C5.16036 5.07853 5.16036 6.57782 5.16036 8.07235C5.22223 8.09138 5.27935 8.11994 5.34122 8.11994C6.80719 8.1247 8.27316 8.11994 9.73913 8.11994C9.81052 8.11994 9.88192 8.09614 9.95331 8.08187C10.4578 8.03903 10.9386 7.91528 11.3764 7.6535C11.7763 7.41552 12.0476 7.07758 12.1903 6.63018C12.3236 6.21133 12.3474 5.7782 12.2998 5.34507C12.2237 4.61209 11.8619 4.06473 11.1861 3.74584C10.7958 3.56021 10.3817 3.4793 9.95331 3.44598C9.84384 3.43646 9.73437 3.42218 9.6249 3.41266C9.5773 3.41266 9.52971 3.4079 9.48211 3.4079C8.0923 3.4079 6.70724 3.4079 5.31743 3.4079C5.27459 3.41266 5.23651 3.41742 5.19368 3.42218ZM5.19368 11.0995C5.18416 11.1138 5.17464 11.1233 5.16512 11.1376C5.16512 11.1756 5.16036 11.2185 5.16036 11.2565C5.16036 13.0271 5.16036 14.793 5.16036 16.5635C5.21272 16.5826 5.26507 16.6111 5.32219 16.6111C6.90239 16.6111 8.48259 16.6111 10.0628 16.6111C10.1199 16.6111 10.177 16.5873 10.2341 16.5778C10.4007 16.5635 10.5673 16.5493 10.7339 16.5255C11.0909 16.4731 11.4383 16.3922 11.7667 16.2446C12.3998 15.9591 12.8472 15.4974 13.0233 14.8168C13.1994 14.1266 13.1708 13.4365 12.9614 12.7558C12.8377 12.3608 12.6187 12.0228 12.2855 11.7658C11.7667 11.366 11.1718 11.1804 10.5245 11.128C10.3722 11.1138 10.2199 11.09 10.0628 11.09C8.49211 11.0852 6.92618 11.0852 5.3555 11.0852C5.30315 11.09 5.25079 11.0947 5.19368 11.0995Z" fill="#6E83FF"/>
<path d="M24.4181 19.9476C24.1658 19.9048 23.9136 19.8762 23.6613 19.8239C22.4809 19.5811 21.4148 19.0909 20.5057 18.2913C19.5204 17.4203 18.8779 16.3303 18.4923 15.0833C18.3067 14.474 18.1877 13.8505 18.1449 13.2127C18.1497 13.208 18.1544 13.1985 18.1544 13.1937C18.1497 13.1794 18.1449 13.1699 18.1401 13.1556C18.1449 12.6463 18.1449 12.1323 18.1497 11.623C18.1497 11.604 18.1544 11.5897 18.1544 11.5707C18.2068 10.7901 18.3876 10.0381 18.6732 9.30983C19.3443 7.60112 20.5009 6.3303 22.143 5.51164C22.6761 5.2451 23.2377 5.04996 23.8231 4.93097C23.8945 4.91669 23.9707 4.91669 24.0421 4.90717C24.1516 4.88337 24.2658 4.85957 24.3753 4.83577C24.499 4.82149 24.618 4.80722 24.7418 4.79294C24.756 4.78818 24.7656 4.78818 24.7798 4.79294C25.2796 4.79294 25.7841 4.79294 26.2839 4.7977C27.6547 4.90241 28.8731 5.38789 29.9298 6.26367C30.9102 7.0728 31.5671 8.11041 32.0097 9.2908C32.2905 10.0428 32.4524 10.8234 32.5333 11.6183C32.5428 11.7135 32.5428 11.8086 32.5476 11.9038C32.5476 11.9229 32.5523 11.9372 32.5523 11.9562C32.5571 12.3846 32.5571 12.8177 32.5618 13.2461C32.5618 13.2651 32.5571 13.2794 32.5571 13.2984C32.5571 13.3127 32.5571 13.3222 32.5476 13.3317C32.5333 13.3412 32.519 13.3508 32.5047 13.365C32.4238 13.365 32.3429 13.3698 32.262 13.3698C28.9588 13.3698 25.6556 13.3698 22.3477 13.3698C22.281 13.3698 22.2096 13.3698 22.1477 13.3793C22.1335 13.3793 22.124 13.4269 22.1097 13.4555C22.1144 13.5269 22.1144 13.5935 22.1192 13.6649C22.124 13.6839 22.1287 13.703 22.1335 13.722C22.162 14.3265 22.2905 14.9119 22.5618 15.4545C22.9521 16.2446 23.6137 16.7016 24.4562 16.9015C24.7227 16.9681 24.9988 16.9871 25.2748 17.03C25.4652 17.0442 25.6508 17.0585 25.8412 17.0633C25.8983 17.0633 25.9555 17.0395 26.0078 17.0252C26.8312 16.9538 27.5595 16.654 28.1735 16.0923C28.4495 15.8401 28.6685 15.545 28.8017 15.1927C28.8826 15.1927 28.9636 15.1975 29.0445 15.1975C30.1249 15.1975 31.2053 15.1975 32.2858 15.1975C31.8289 16.6254 31.1292 17.8915 29.8774 18.7815C29.1968 19.2622 28.4352 19.5811 27.6261 19.7715C27.2691 19.8524 26.9026 19.8953 26.5409 19.9524C26.4171 19.9667 26.2934 19.9762 26.1696 19.9905C25.7365 19.9905 25.3034 19.9905 24.8703 19.9905C24.718 19.9762 24.5656 19.9619 24.4181 19.9476ZM22.1097 10.8091C22.1763 10.8234 22.2429 10.852 22.3096 10.852C23.8136 10.8567 25.3129 10.852 26.817 10.852C27.3358 10.852 27.8593 10.852 28.3781 10.852C28.44 10.852 28.4971 10.8234 28.559 10.8091C28.5447 10.7234 28.5399 10.6378 28.5209 10.5569C28.3972 10.0285 28.2306 9.51926 27.9497 9.04805C27.6642 8.57209 27.2977 8.1818 26.7646 7.99617C26.5219 7.9105 26.2601 7.86766 26.0078 7.81055C25.9507 7.79627 25.8888 7.77723 25.8317 7.77247C25.5271 7.77247 25.2272 7.77247 24.9226 7.77723C24.8798 7.77723 24.8322 7.79627 24.7893 7.81055C24.5466 7.86766 24.2943 7.89622 24.0659 7.98665C23.0378 8.4055 22.4143 9.1718 22.1953 10.257C22.1525 10.4331 22.0716 10.614 22.1097 10.8091Z" fill="#6E83FF"/>
<path d="M21.4192 3.21275C21.4144 2.7225 21.4144 2.2275 21.4097 1.73726C21.4097 1.49928 21.4097 1.26605 21.4097 1.02807C21.4573 1.02331 21.5049 1.01855 21.5525 1.01855C24.1988 1.01855 26.8452 1.01855 29.4915 1.01855C29.4915 1.74678 29.4915 2.47976 29.4915 3.20799C29.4773 3.21751 29.4677 3.23179 29.4535 3.2413C29.4011 3.2413 29.344 3.24606 29.2916 3.24606C26.7452 3.24606 24.1988 3.24606 21.6476 3.24606C21.5953 3.24606 21.5382 3.2413 21.4858 3.2413C21.4668 3.23655 21.443 3.22227 21.4192 3.21275Z" fill="#6E83FF"/>
</svg>
