<svg width="15" height="18" viewBox="0 0 15 18" fill="none" xmlns="http://www.w3.org/2000/svg">
<path d="M13.0909 3.54545C12.8182 3.54545 12.5455 3.54545 12.2727 3.54545C12.2727 3.27272 12 2.72727 11.7273 2.45454C11.4545 2.18181 11.0455 1.90909 10.2273 1.90909C9.95455 1.90909 9.68182 1.90909 9.40909 2.04545C9.27273 1.77272 9.13636 1.63636 9 1.36363C8.72727 1.0909 8.31818 0.818176 7.5 0.818176C6.40909 0.818176 5.86364 1.49999 5.59091 2.18181C5.45455 2.18181 5.18182 2.04545 4.90909 2.04545C4.22727 2.04545 3.81818 2.31818 3.40909 2.5909C2.72727 3.40909 2.72727 4.49999 2.72727 4.63636V5.18181C1.90909 5.18181 1.22727 5.45454 0.818182 5.86363C-1.56056e-07 6.81818 0 8.04545 0 9.68181C0 9.95454 0 10.3636 0 10.6364C0 12.5454 0.954546 13.5 1.90909 14.4545L2.31818 15C4.09091 16.6364 5.72727 17.1818 9.27273 17.1818C13.2273 17.1818 15 15 15 10.2273V6.81818C15 5.86363 14.7273 3.95454 13.0909 3.54545ZM10.2273 3.27272C10.7727 3.27272 10.9091 3.81818 10.9091 4.0909V5.18181C10.9091 5.5909 11.1818 5.86363 11.4545 5.86363C11.8636 5.86363 12.1364 5.72727 12.1364 5.31818C12.1364 5.31818 12.1364 4.77272 12.6818 4.90909C13.5 5.18181 13.6364 6.40909 13.6364 6.68181V10.2273C13.6364 14.8636 11.8636 15.8182 9.27273 15.8182C6 15.8182 4.77273 15.4091 3.40909 14.0454C3.27273 13.9091 3.13636 13.7727 2.86364 13.5C1.90909 12.5454 1.36364 12 1.36364 10.6364C1.36364 10.3636 1.36364 10.2273 1.36364 9.81818C1.36364 8.45454 1.36364 7.36363 1.77273 6.95454C1.90909 6.68181 2.31818 6.54545 2.72727 6.54545V7.63636L2.31818 9.27272C2.31818 9.40909 2.31818 9.40909 2.45455 9.40909C2.59091 9.54545 2.72727 9.40909 2.72727 9.40909L4.09091 7.77272V7.63636V4.90909C4.09091 4.77272 4.09091 4.0909 4.36364 3.81818C4.5 3.68181 4.63636 3.54545 4.90909 3.54545C5.31818 3.54545 5.45455 3.81818 5.45455 4.0909V4.63636C5.45455 4.90909 5.72727 5.31818 6.13636 5.31818C6.54545 5.31818 6.81818 4.90909 6.81818 4.63636V2.86363C6.81818 2.72727 6.81818 2.18181 7.5 2.18181C7.90909 2.18181 8.18182 2.45454 8.18182 2.86363V4.49999C8.18182 4.90908 8.45455 5.31818 8.86364 5.31818C9.27273 5.31818 9.54545 4.90909 9.54545 4.63636V3.95454C9.54545 3.54545 9.81818 3.27272 10.2273 3.27272Z" fill="#6E83FF"/>
</svg>
