<svg width="24" height="24" viewBox="0 0 24 24" fill="none" xmlns="http://www.w3.org/2000/svg">
<mask id="mask0_2688_3812" style="mask-type:alpha" maskUnits="userSpaceOnUse" x="0" y="0" width="24" height="24">
<rect width="24" height="24" fill="#D9D9D9"/>
</mask>
<g mask="url(#mask0_2688_3812)">
<path d="M14.5 18.0004C13.8 18.0004 13.2083 17.7587 12.725 17.2754C12.2417 16.792 12 16.2004 12 15.5004C12 14.8004 12.2417 14.2087 12.725 13.7254C13.2083 13.242 13.8 13.0004 14.5 13.0004C15.2 13.0004 15.7917 13.242 16.275 13.7254C16.7583 14.2087 17 14.8004 17 15.5004C17 16.2004 16.7583 16.792 16.275 17.2754C15.7917 17.7587 15.2 18.0004 14.5 18.0004ZM5 22.0004C4.45 22.0004 3.97917 21.8045 3.5875 21.4129C3.19583 21.0212 3 20.5504 3 20.0004V6.00037C3 5.45037 3.19583 4.97953 3.5875 4.58787C3.97917 4.1962 4.45 4.00037 5 4.00037H6V2.00037H8V4.00037H16V2.00037H18V4.00037H19C19.55 4.00037 20.0208 4.1962 20.4125 4.58787C20.8042 4.97953 21 5.45037 21 6.00037V20.0004C21 20.5504 20.8042 21.0212 20.4125 21.4129C20.0208 21.8045 19.55 22.0004 19 22.0004H5ZM5 20.0004H19V10.0004H5V20.0004ZM5 8.00037H19V6.00037H5V8.00037Z" fill="#3F5DBA"/>
</g>
</svg>
