<svg width="24" height="25" viewBox="0 0 24 25" fill="none" xmlns="http://www.w3.org/2000/svg">
<mask id="mask0_2688_5933" style="mask-type:alpha" maskUnits="userSpaceOnUse" x="0" y="0" width="24" height="25">
<rect y="0.5" width="24" height="24" fill="#D9D9D9"/>
</mask>
<g mask="url(#mask0_2688_5933)">
<path d="M16 21.5C15.45 21.5 14.9792 21.3042 14.5875 20.9125C14.1958 20.5208 14 20.05 14 19.5V15.5C14 14.95 14.1958 14.4792 14.5875 14.0875C14.9792 13.6958 15.45 13.5 16 13.5H20C20.55 13.5 21.0208 13.6958 21.4125 14.0875C21.8042 14.4792 22 14.95 22 15.5V19.5C22 20.05 21.8042 20.5208 21.4125 20.9125C21.0208 21.3042 20.55 21.5 20 21.5H16ZM16 19.5H20V15.5H16V19.5ZM2 18.5V16.5H11V18.5H2ZM16 11.5C15.45 11.5 14.9792 11.3042 14.5875 10.9125C14.1958 10.5208 14 10.05 14 9.5V5.5C14 4.95 14.1958 4.47917 14.5875 4.0875C14.9792 3.69583 15.45 3.5 16 3.5H20C20.55 3.5 21.0208 3.69583 21.4125 4.0875C21.8042 4.47917 22 4.95 22 5.5V9.5C22 10.05 21.8042 10.5208 21.4125 10.9125C21.0208 11.3042 20.55 11.5 20 11.5H16ZM16 9.5H20V5.5H16V9.5ZM2 8.5V6.5H11V8.5H2Z" fill="#3F5DBA"/>
</g>
</svg>
