<svg width="24" height="25" viewBox="0 0 24 25" fill="none" xmlns="http://www.w3.org/2000/svg">
<mask id="mask0_3404_4817" style="mask-type:alpha" maskUnits="userSpaceOnUse" x="0" y="0" width="24" height="25">
<rect y="0.5" width="24" height="24" fill="#D9D9D9"/>
</mask>
<g mask="url(#mask0_3404_4817)">
<path d="M17.55 12.5L14 8.95L15.425 7.55L17.55 9.675L21.8 5.425L23.2 6.85L17.55 12.5ZM9 12.5C7.9 12.5 6.95833 12.1083 6.175 11.325C5.39167 10.5417 5 9.6 5 8.5C5 7.4 5.39167 6.45833 6.175 5.675C6.95833 4.89167 7.9 4.5 9 4.5C10.1 4.5 11.0417 4.89167 11.825 5.675C12.6083 6.45833 13 7.4 13 8.5C13 9.6 12.6083 10.5417 11.825 11.325C11.0417 12.1083 10.1 12.5 9 12.5ZM1 20.5V17.7C1 17.1333 1.14583 16.6125 1.4375 16.1375C1.72917 15.6625 2.11667 15.3 2.6 15.05C3.63333 14.5333 4.68333 14.1458 5.75 13.8875C6.81667 13.6292 7.9 13.5 9 13.5C10.1 13.5 11.1833 13.6292 12.25 13.8875C13.3167 14.1458 14.3667 14.5333 15.4 15.05C15.8833 15.3 16.2708 15.6625 16.5625 16.1375C16.8542 16.6125 17 17.1333 17 17.7V20.5H1ZM3 18.5H15V17.7C15 17.5167 14.9542 17.35 14.8625 17.2C14.7708 17.05 14.65 16.9333 14.5 16.85C13.6 16.4 12.6917 16.0625 11.775 15.8375C10.8583 15.6125 9.93333 15.5 9 15.5C8.06667 15.5 7.14167 15.6125 6.225 15.8375C5.30833 16.0625 4.4 16.4 3.5 16.85C3.35 16.9333 3.22917 17.05 3.1375 17.2C3.04583 17.35 3 17.5167 3 17.7V18.5ZM9 10.5C9.55 10.5 10.0208 10.3042 10.4125 9.9125C10.8042 9.52083 11 9.05 11 8.5C11 7.95 10.8042 7.47917 10.4125 7.0875C10.0208 6.69583 9.55 6.5 9 6.5C8.45 6.5 7.97917 6.69583 7.5875 7.0875C7.19583 7.47917 7 7.95 7 8.5C7 9.05 7.19583 9.52083 7.5875 9.9125C7.97917 10.3042 8.45 10.5 9 10.5Z" fill="#FFFCF0"/>
</g>
</svg>
