<svg width="16" height="16" viewBox="0 0 16 16" fill="none" xmlns="http://www.w3.org/2000/svg">
<mask id="mask0_3404_2717" style="mask-type:alpha" maskUnits="userSpaceOnUse" x="0" y="0" width="16" height="16">
<rect width="16" height="16" fill="#D9D9D9"/>
</mask>
<g mask="url(#mask0_3404_2717)">
<path d="M5.73366 15L4.46699 12.8667L2.06699 12.3333L2.30033 9.86667L0.666992 8L2.30033 6.13333L2.06699 3.66667L4.46699 3.13333L5.73366 1L8.00033 1.96667L10.267 1L11.5337 3.13333L13.9337 3.66667L13.7003 6.13333L15.3337 8L13.7003 9.86667L13.9337 12.3333L11.5337 12.8667L10.267 15L8.00033 14.0333L5.73366 15ZM7.30032 10.3667L11.067 6.6L10.1337 5.63333L7.30032 8.46667L5.86699 7.06667L4.93366 8L7.30032 10.3667Z" fill="#FFFCF0"/>
</g>
</svg>
