<svg width="32" height="33" viewBox="0 0 32 33" fill="none" xmlns="http://www.w3.org/2000/svg">
<mask id="mask0_2856_6521" style="mask-type:alpha" maskUnits="userSpaceOnUse" x="0" y="0" width="32" height="33">
<rect y="0.5" width="32" height="32" fill="#D9D9D9"/>
</mask>
<g mask="url(#mask0_2856_6521)">
<path d="M16 29.8332C14.1555 29.8332 12.4222 29.4832 10.8 28.7832C9.17774 28.0832 7.76663 27.1332 6.56663 25.9332C5.36663 24.7332 4.41663 23.3221 3.71663 21.6998C3.01663 20.0776 2.66663 18.3443 2.66663 16.4998C2.66663 14.6554 3.01663 12.9221 3.71663 11.2998C4.41663 9.67762 5.36663 8.2665 6.56663 7.0665C7.76663 5.8665 9.17774 4.9165 10.8 4.2165C12.4222 3.5165 14.1555 3.1665 16 3.1665C17.8444 3.1665 19.5777 3.5165 21.2 4.2165C22.8222 4.9165 24.2333 5.8665 25.4333 7.0665C26.6333 8.2665 27.5833 9.67762 28.2833 11.2998C28.9833 12.9221 29.3333 14.6554 29.3333 16.4998C29.3333 18.3443 28.9833 20.0776 28.2833 21.6998C27.5833 23.3221 26.6333 24.7332 25.4333 25.9332C24.2333 27.1332 22.8222 28.0832 21.2 28.7832C19.5777 29.4832 17.8444 29.8332 16 29.8332ZM8.43329 8.93317L16 16.4998V5.83317C14.5777 5.83317 13.2111 6.09984 11.9 6.63317C10.5888 7.1665 9.43329 7.93317 8.43329 8.93317Z" fill="#3F5DBA"/>
</g>
</svg>
