<svg width="21" height="20" viewBox="0 0 21 20" fill="none" xmlns="http://www.w3.org/2000/svg">
<path d="M10.3335 0C15.9983 0 20.5864 4.58819 20.5864 10.2529C20.5859 12.4012 19.9117 14.4952 18.6587 16.2402C17.4057 17.9852 15.637 19.2933 13.6016 19.9804C13.089 20.0829 12.8967 19.7625 12.8967 19.4934C12.8967 19.1474 12.9096 18.0452 12.9096 16.6738C12.9096 15.7126 12.5892 15.0975 12.2175 14.777C14.4988 14.5207 16.8954 13.6492 16.8954 9.71466C16.8954 8.58684 16.4981 7.67689 15.8445 6.95918C15.947 6.70286 16.3058 5.65193 15.7419 4.24215C15.7419 4.24215 14.8832 3.9602 12.9224 5.29308C12.1021 5.06239 11.2306 4.94704 10.3591 4.94704C9.48764 4.94704 8.61614 5.06239 7.7959 5.29308C5.83503 3.97301 4.97635 4.24215 4.97635 4.24215C4.41243 5.65193 4.77129 6.70286 4.87382 6.95918C4.22019 7.67689 3.82289 8.59965 3.82289 9.71466C3.82289 13.6364 6.2067 14.5207 8.48798 14.777C8.1932 15.0334 7.92407 15.4819 7.83435 16.1484C7.24481 16.4175 5.77095 16.8533 4.84818 15.3025C4.65594 14.9949 4.07921 14.2388 3.2718 14.2516C2.41311 14.2644 2.92576 14.7386 3.28461 14.9308C3.72036 15.1743 4.22019 16.0843 4.33554 16.3791C4.5406 16.9558 5.20704 18.058 7.78309 17.5838C7.78309 18.4425 7.7959 19.2499 7.7959 19.4934C7.7959 19.7625 7.60366 20.0701 7.09101 19.9804C5.04893 19.3007 3.27274 17.9952 2.01439 16.2492C0.756039 14.5031 0.079438 12.4052 0.0805678 10.2529C0.0805678 4.58819 4.66876 0 10.3335 0Z" fill="#6E83FF"/>
</svg>
