<svg width="25" height="24" viewBox="0 0 25 24" fill="none" xmlns="http://www.w3.org/2000/svg">
<mask id="mask0_3404_6387" style="mask-type:alpha" maskUnits="userSpaceOnUse" x="0" y="0" width="25" height="24">
<rect x="0.5" width="24" height="24" fill="#D9D9D9"/>
</mask>
<g mask="url(#mask0_3404_6387)">
<path d="M5.5 21.0001C4.95 21.0001 4.47917 20.8043 4.0875 20.4126C3.69583 20.0209 3.5 19.5501 3.5 19.0001V5.0001C3.5 4.4501 3.69583 3.97926 4.0875 3.5876C4.47917 3.19593 4.95 3.0001 5.5 3.0001H14.425L12.425 5.0001H5.5V19.0001H19.5V12.0501L21.5 10.0501V19.0001C21.5 19.5501 21.3042 20.0209 20.9125 20.4126C20.5208 20.8043 20.05 21.0001 19.5 21.0001H5.5ZM9.5 15.0001V10.7501L18.675 1.5751C18.875 1.3751 19.1 1.2251 19.35 1.1251C19.6 1.0251 19.85 0.975098 20.1 0.975098C20.3667 0.975098 20.6208 1.0251 20.8625 1.1251C21.1042 1.2251 21.325 1.3751 21.525 1.5751L22.925 3.0001C23.1083 3.2001 23.25 3.42093 23.35 3.6626C23.45 3.90426 23.5 4.1501 23.5 4.4001C23.5 4.6501 23.4542 4.89593 23.3625 5.1376C23.2708 5.37926 23.125 5.6001 22.925 5.8001L13.75 15.0001H9.5ZM11.5 13.0001H12.9L18.7 7.2001L18 6.5001L17.275 5.8001L11.5 11.5751V13.0001Z" fill="#3551AB"/>
</g>
</svg>
