<svg width="60" height="60" viewBox="0 0 60 60" fill="none" xmlns="http://www.w3.org/2000/svg">
<mask id="mask0_2156_6023" style="mask-type:alpha" maskUnits="userSpaceOnUse" x="0" y="0" width="60" height="60">
<rect width="60" height="60" fill="#D9D9D9"/>
</mask>
<g mask="url(#mask0_2156_6023)">
<path d="M10 50C8.625 50 7.44792 49.5104 6.46875 48.5312C5.48958 47.5521 5 46.375 5 45V15C5 13.625 5.48958 12.4479 6.46875 11.4688C7.44792 10.4896 8.625 10 10 10H50C51.375 10 52.5521 10.4896 53.5312 11.4688C54.5104 12.4479 55 13.625 55 15V45C55 46.375 54.5104 47.5521 53.5312 48.5312C52.5521 49.5104 51.375 50 50 50H10ZM10 45H50V20H10V45ZM18.75 42.5L15.25 39L21.6875 32.5L15.1875 26L18.75 22.5L28.75 32.5L18.75 42.5ZM30 42.5V37.5H45V42.5H30Z" fill="#FFFCF0"/>
</g>
</svg>
