<svg width="186" height="160" viewBox="0 0 186 160" fill="none" xmlns="http://www.w3.org/2000/svg">
<path d="M50.2892 0H37.9518V12.3077H50.2892V0Z" fill="#3F5DBA"/>
<path d="M62.6265 0H50.2891V12.3077H62.6265V0Z" fill="#3F5DBA"/>
<path d="M74.9638 0H62.6265V12.3077H74.9638V0Z" fill="#3F5DBA"/>
<path d="M87.3012 0H74.9639V12.3077H87.3012V0Z" fill="#3F5DBA"/>
<path d="M99.6386 0H87.3012V12.3077H99.6386V0Z" fill="#3F5DBA"/>
<path d="M111.976 0H99.6386V12.3077H111.976V0Z" fill="#3F5DBA"/>
<path d="M124.313 0H111.976V12.3077H124.313V0Z" fill="#3F5DBA"/>
<path d="M136.651 0H124.313V12.3077H136.651V0Z" fill="#3F5DBA"/>
<path d="M25.6145 12.3079H13.2771V24.6156H25.6145V12.3079Z" fill="#3F5DBA"/>
<path d="M37.9519 12.3079H25.6145V24.6156H37.9519V12.3079Z" fill="#3F5DBA"/>
<path d="M50.2892 12.3079H37.9518V24.6156H50.2892V12.3079Z" fill="#D6EA5E"/>
<path d="M62.6265 12.3079H50.2891V24.6156H62.6265V12.3079Z" fill="#D6EA5E"/>
<path d="M74.9638 12.3079H62.6265V24.6156H74.9638V12.3079Z" fill="#D6EA5E"/>
<path d="M87.3012 12.3079H74.9639V24.6156H87.3012V12.3079Z" fill="#D6EA5E"/>
<path d="M99.6386 12.3079H87.3012V24.6156H99.6386V12.3079Z" fill="#D6EA5E"/>
<path d="M111.976 12.3079H99.6386V24.6156H111.976V12.3079Z" fill="#D6EA5E"/>
<path d="M124.313 12.3079H111.976V24.6156H124.313V12.3079Z" fill="#D6EA5E"/>
<path d="M136.651 12.3079H124.313V24.6156H136.651V12.3079Z" fill="#D6EA5E"/>
<path d="M148.988 12.3079H136.651V24.6156H148.988V12.3079Z" fill="#3F5DBA"/>
<path d="M161.325 12.3079H148.988V24.6156H161.325V12.3079Z" fill="#3F5DBA"/>
<path d="M25.6145 24.6155H13.2771V36.9232H25.6145V24.6155Z" fill="#3F5DBA"/>
<path d="M37.9519 24.6155H25.6145V36.9232H37.9519V24.6155Z" fill="#D6EA5E"/>
<path d="M50.2892 24.6155H37.9518V36.9232H50.2892V24.6155Z" fill="#D6EA5E"/>
<path d="M62.6265 24.6155H50.2891V36.9232H62.6265V24.6155Z" fill="#D6EA5E"/>
<path d="M74.9638 24.6155H62.6265V36.9232H74.9638V24.6155Z" fill="#D6EA5E"/>
<path d="M87.3012 24.6155H74.9639V36.9232H87.3012V24.6155Z" fill="#D6EA5E"/>
<path d="M99.6386 24.6155H87.3012V36.9232H99.6386V24.6155Z" fill="#D6EA5E"/>
<path d="M111.976 24.6155H99.6386V36.9232H111.976V24.6155Z" fill="#D6EA5E"/>
<path d="M124.313 24.6155H111.976V36.9232H124.313V24.6155Z" fill="#D6EA5E"/>
<path d="M136.651 24.6155H124.313V36.9232H136.651V24.6155Z" fill="#D6EA5E"/>
<path d="M148.988 24.6155H136.651V36.9232H148.988V24.6155Z" fill="#D6EA5E"/>
<path d="M161.325 24.6155H148.988V36.9232H161.325V24.6155Z" fill="#3F5DBA"/>
<path d="M173.663 24.6155H161.325V36.9232H173.663V24.6155Z" fill="#3F5DBA"/>
<path d="M13.2771 36.9231H0.939758V49.2308H13.2771V36.9231Z" fill="#3F5DBA"/>
<path d="M25.6145 36.9231H13.2771V49.2308H25.6145V36.9231Z" fill="#D6EA5E"/>
<path d="M37.9519 36.9231H25.6145V49.2308H37.9519V36.9231Z" fill="#D6EA5E"/>
<path d="M50.2892 36.9231H37.9518V49.2308H50.2892V36.9231Z" fill="#D6EA5E"/>
<path d="M62.6265 36.9231H50.2891V49.2308H62.6265V36.9231Z" fill="#D6EA5E"/>
<path d="M74.9638 36.9231H62.6265V49.2308H74.9638V36.9231Z" fill="#D6EA5E"/>
<path d="M87.3012 36.9231H74.9639V49.2308H87.3012V36.9231Z" fill="#D6EA5E"/>
<path d="M99.6386 36.9231H87.3012V49.2308H99.6386V36.9231Z" fill="#D6EA5E"/>
<path d="M111.976 36.9231H99.6386V49.2308H111.976V36.9231Z" fill="#D6EA5E"/>
<path d="M124.313 36.9231H111.976V49.2308H124.313V36.9231Z" fill="#D6EA5E"/>
<path d="M136.651 36.9231H124.313V49.2308H136.651V36.9231Z" fill="#D6EA5E"/>
<path d="M148.988 36.9231H136.651V49.2308H148.988V36.9231Z" fill="#D6EA5E"/>
<path d="M161.325 36.9231H148.988V49.2308H161.325V36.9231Z" fill="#D6EA5E"/>
<path d="M173.663 36.9231H161.325V49.2308H173.663V36.9231Z" fill="#D6EA5E"/>
<path d="M186 36.9231H173.663V49.2308H186V36.9231Z" fill="#3F5DBA"/>
<path d="M13.2771 49.2307H0.939758V61.5384H13.2771V49.2307Z" fill="#3F5DBA"/>
<path d="M25.6145 49.2307H13.2771V61.5384H25.6145V49.2307Z" fill="#D6EA5E"/>
<path d="M37.9519 49.2307H25.6145V61.5384H37.9519V49.2307Z" fill="#D6EA5E"/>
<path d="M50.2892 49.2307H37.9518V61.5384H50.2892V49.2307Z" fill="#3F5DBA"/>
<path d="M62.6265 49.2307H50.2891V61.5384H62.6265V49.2307Z" fill="#3F5DBA"/>
<path d="M74.9638 49.2307H62.6265V61.5384H74.9638V49.2307Z" fill="#3F5DBA"/>
<path d="M87.3012 49.2307H74.9639V61.5384H87.3012V49.2307Z" fill="#3F5DBA"/>
<path d="M99.6386 49.2307H87.3012V61.5384H99.6386V49.2307Z" fill="#3F5DBA"/>
<path d="M111.976 49.2307H99.6386V61.5384H111.976V49.2307Z" fill="#3F5DBA"/>
<path d="M124.313 49.2307H111.976V61.5384H124.313V49.2307Z" fill="#3F5DBA"/>
<path d="M136.651 49.2307H124.313V61.5384H136.651V49.2307Z" fill="#3F5DBA"/>
<path d="M148.988 49.2307H136.651V61.5384H148.988V49.2307Z" fill="#3F5DBA"/>
<path d="M161.325 49.2307H148.988V61.5384H161.325V49.2307Z" fill="#D6EA5E"/>
<path d="M173.663 49.2307H161.325V61.5384H173.663V49.2307Z" fill="#D6EA5E"/>
<path d="M186 49.2307H173.663V61.5384H186V49.2307Z" fill="#3F5DBA"/>
<path d="M13.2771 61.5386H0.939758V73.8463H13.2771V61.5386Z" fill="#3F5DBA"/>
<path d="M25.6145 61.5386H13.2771V73.8463H25.6145V61.5386Z" fill="#D6EA5E"/>
<path d="M37.9519 61.5386H25.6145V73.8463H37.9519V61.5386Z" fill="#D6EA5E"/>
<path d="M50.2892 61.5386H37.9518V73.8463H50.2892V61.5386Z" fill="#D6EA5E"/>
<path d="M62.6265 61.5386H50.2891V73.8463H62.6265V61.5386Z" fill="#D6EA5E"/>
<path d="M74.9638 61.5386H62.6265V73.8463H74.9638V61.5386Z" fill="#D6EA5E"/>
<path d="M87.3012 61.5386H74.9639V73.8463H87.3012V61.5386Z" fill="#D6EA5E"/>
<path d="M99.6386 61.5386H87.3012V73.8463H99.6386V61.5386Z" fill="#D6EA5E"/>
<path d="M111.976 61.5386H99.6386V73.8463H111.976V61.5386Z" fill="#D6EA5E"/>
<path d="M124.313 61.5386H111.976V73.8463H124.313V61.5386Z" fill="#D6EA5E"/>
<path d="M136.651 61.5386H124.313V73.8463H136.651V61.5386Z" fill="#D6EA5E"/>
<path d="M148.988 61.5386H136.651V73.8463H148.988V61.5386Z" fill="#D6EA5E"/>
<path d="M161.325 61.5386H148.988V73.8463H161.325V61.5386Z" fill="#D6EA5E"/>
<path d="M173.663 61.5386H161.325V73.8463H173.663V61.5386Z" fill="#D6EA5E"/>
<path d="M186 61.5386H173.663V73.8463H186V61.5386Z" fill="#3F5DBA"/>
<path d="M13.2771 73.8462H0.939758V86.1539H13.2771V73.8462Z" fill="#3F5DBA"/>
<path d="M25.6145 73.8462H13.2771V86.1539H25.6145V73.8462Z" fill="#D6EA5E"/>
<path d="M37.9519 73.8462H25.6145V86.1539H37.9519V73.8462Z" fill="#D6EA5E"/>
<path d="M50.2892 73.8462H37.9518V86.1539H50.2892V73.8462Z" fill="#D6EA5E"/>
<path d="M62.6265 73.8462H50.2891V86.1539H62.6265V73.8462Z" fill="#D6EA5E"/>
<path d="M74.9638 73.8462H62.6265V86.1539H74.9638V73.8462Z" fill="#D6EA5E"/>
<path d="M87.3012 73.8462H74.9639V86.1539H87.3012V73.8462Z" fill="#D6EA5E"/>
<path d="M99.6386 73.8462H87.3012V86.1539H99.6386V73.8462Z" fill="#D6EA5E"/>
<path d="M111.976 73.8462H99.6386V86.1539H111.976V73.8462Z" fill="#D6EA5E"/>
<path d="M124.313 73.8462H111.976V86.1539H124.313V73.8462Z" fill="#D6EA5E"/>
<path d="M136.651 73.8462H124.313V86.1539H136.651V73.8462Z" fill="#D6EA5E"/>
<path d="M148.988 73.8462H136.651V86.1539H148.988V73.8462Z" fill="#D6EA5E"/>
<path d="M161.325 73.8462H148.988V86.1539H161.325V73.8462Z" fill="#D6EA5E"/>
<path d="M173.663 73.8462H161.325V86.1539H173.663V73.8462Z" fill="#D6EA5E"/>
<path d="M186 73.8462H173.663V86.1539H186V73.8462Z" fill="#3F5DBA"/>
<path d="M13.2771 86.1538H0.939758V98.4615H13.2771V86.1538Z" fill="#3F5DBA"/>
<path d="M25.6145 86.1538H13.2771V98.4615H25.6145V86.1538Z" fill="#D6EA5E"/>
<path d="M37.9519 86.1538H25.6145V98.4615H37.9519V86.1538Z" fill="#D6EA5E"/>
<path d="M50.2892 86.1538H37.9518V98.4615H50.2892V86.1538Z" fill="#3F5DBA"/>
<path d="M62.6265 86.1538H50.2891V98.4615H62.6265V86.1538Z" fill="#3F5DBA"/>
<path d="M74.9638 86.1538H62.6265V98.4615H74.9638V86.1538Z" fill="#3F5DBA"/>
<path d="M87.3012 86.1538H74.9639V98.4615H87.3012V86.1538Z" fill="#3F5DBA"/>
<path d="M99.6386 86.1538H87.3012V98.4615H99.6386V86.1538Z" fill="#3F5DBA"/>
<path d="M111.976 86.1538H99.6386V98.4615H111.976V86.1538Z" fill="#3F5DBA"/>
<path d="M124.313 86.1538H111.976V98.4615H124.313V86.1538Z" fill="#3F5DBA"/>
<path d="M136.651 86.1538H124.313V98.4615H136.651V86.1538Z" fill="#3F5DBA"/>
<path d="M148.988 86.1538H136.651V98.4615H148.988V86.1538Z" fill="#3F5DBA"/>
<path d="M161.325 86.1538H148.988V98.4615H161.325V86.1538Z" fill="#D6EA5E"/>
<path d="M173.663 86.1538H161.325V98.4615H173.663V86.1538Z" fill="#D6EA5E"/>
<path d="M186 86.1538H173.663V98.4615H186V86.1538Z" fill="#3F5DBA"/>
<path d="M13.2771 98.4614H0.939758V110.769H13.2771V98.4614Z" fill="#3F5DBA"/>
<path d="M25.6145 98.4614H13.2771V110.769H25.6145V98.4614Z" fill="#3F5DBA"/>
<path d="M37.9519 98.4614H25.6145V110.769H37.9519V98.4614Z" fill="#D6EA5E"/>
<path d="M50.2892 98.4614H37.9518V110.769H50.2892V98.4614Z" fill="#D6EA5E"/>
<path d="M62.6265 98.4614H50.2891V110.769H62.6265V98.4614Z" fill="#D6EA5E"/>
<path d="M74.9638 98.4614H62.6265V110.769H74.9638V98.4614Z" fill="#D6EA5E"/>
<path d="M87.3012 98.4614H74.9639V110.769H87.3012V98.4614Z" fill="#D6EA5E"/>
<path d="M99.6386 98.4614H87.3012V110.769H99.6386V98.4614Z" fill="#D6EA5E"/>
<path d="M111.976 98.4614H99.6386V110.769H111.976V98.4614Z" fill="#D6EA5E"/>
<path d="M124.313 98.4614H111.976V110.769H124.313V98.4614Z" fill="#D6EA5E"/>
<path d="M136.651 98.4614H124.313V110.769H136.651V98.4614Z" fill="#D6EA5E"/>
<path d="M148.988 98.4614H136.651V110.769H148.988V98.4614Z" fill="#D6EA5E"/>
<path d="M161.325 98.4614H148.988V110.769H161.325V98.4614Z" fill="#D6EA5E"/>
<path d="M173.663 98.4614H161.325V110.769H173.663V98.4614Z" fill="#D6EA5E"/>
<path d="M186 98.4614H173.663V110.769H186V98.4614Z" fill="#3F5DBA"/>
<path d="M25.6145 110.769H13.2771V123.077H25.6145V110.769Z" fill="#3F5DBA"/>
<path d="M37.9519 110.769H25.6145V123.077H37.9519V110.769Z" fill="#D6EA5E"/>
<path d="M50.2892 110.769H37.9518V123.077H50.2892V110.769Z" fill="#D6EA5E"/>
<path d="M62.6265 110.769H50.2891V123.077H62.6265V110.769Z" fill="#D6EA5E"/>
<path d="M74.9638 110.769H62.6265V123.077H74.9638V110.769Z" fill="#D6EA5E"/>
<path d="M87.3012 110.769H74.9639V123.077H87.3012V110.769Z" fill="#D6EA5E"/>
<path d="M99.6386 110.769H87.3012V123.077H99.6386V110.769Z" fill="#D6EA5E"/>
<path d="M111.976 110.769H99.6386V123.077H111.976V110.769Z" fill="#D6EA5E"/>
<path d="M124.313 110.769H111.976V123.077H124.313V110.769Z" fill="#D6EA5E"/>
<path d="M136.651 110.769H124.313V123.077H136.651V110.769Z" fill="#D6EA5E"/>
<path d="M148.988 110.769H136.651V123.077H148.988V110.769Z" fill="#D6EA5E"/>
<path d="M161.325 110.769H148.988V123.077H161.325V110.769Z" fill="#3F5DBA"/>
<path d="M173.663 110.769H161.325V123.077H173.663V110.769Z" fill="#3F5DBA"/>
<path d="M37.9519 123.077H25.6145V135.385H37.9519V123.077Z" fill="#3F5DBA"/>
<path d="M50.2892 123.077H37.9518V135.385H50.2892V123.077Z" fill="#3F5DBA"/>
<path d="M62.6265 123.077H50.2891V135.385H62.6265V123.077Z" fill="#3F5DBA"/>
<path d="M74.9638 123.077H62.6265V135.385H74.9638V123.077Z" fill="#3F5DBA"/>
<path d="M87.3012 123.077H74.9639V135.385H87.3012V123.077Z" fill="#3F5DBA"/>
<path d="M99.6386 123.077H87.3012V135.385H99.6386V123.077Z" fill="#3F5DBA"/>
<path d="M111.976 123.077H99.6386V135.385H111.976V123.077Z" fill="#3F5DBA"/>
<path d="M124.313 123.077H111.976V135.385H124.313V123.077Z" fill="#3F5DBA"/>
<path d="M136.651 123.077H124.313V135.385H136.651V123.077Z" fill="#D6EA5E"/>
<path d="M148.988 123.077H136.651V135.385H148.988V123.077Z" fill="#D6EA5E"/>
<path d="M161.325 123.077H148.988V135.385H161.325V123.077Z" fill="#3F5DBA"/>
<path d="M136.651 135.385H124.313V147.692H136.651V135.385Z" fill="#3F5DBA"/>
<path d="M148.988 135.385H136.651V147.692H148.988V135.385Z" fill="#D6EA5E"/>
<path d="M161.325 135.385H148.988V147.692H161.325V135.385Z" fill="#3F5DBA"/>
<path d="M148.988 147.692H136.651V160H148.988V147.692Z" fill="#3F5DBA"/>
<path d="M161.325 147.692H148.988V160H161.325V147.692Z" fill="#3F5DBA"/>
<path d="M173.663 147.692H161.325V160H173.663V147.692Z" fill="#3F5DBA"/>
</svg>
