<svg width="85" height="32" viewBox="0 0 85 32" fill="none" xmlns="http://www.w3.org/2000/svg">
<path d="M80.5208 9.8323H84.2185V3.69778H80.5208V0H55.9068H29.0932H4.47927V3.69778H0.781494V28.3117H4.47927V32H29.0932H55.9068H80.5208V28.3117H84.2185V14.7816H80.5208V11.0839V9.8323Z" fill="#D6EA5E"/>
<path d="M27.8701 1.22308H5.70242V4.92086H2.00464V27.0886H5.70242V30.7769H27.8701V27.0886H31.5584V16.0047H27.8701V12.3069H13.0885V19.693H24.1723V23.3908H9.39071V8.60916H31.5584V4.92086H27.8701V1.22308Z" fill="#3F5DBA"/>
<path d="M79.2976 1.22302H57.1299V4.9208H53.4321V27.0885H57.1299V30.7768H79.2976V27.0885H82.9954V16.0047H79.2976V12.3069H64.516V19.6929H75.5998V23.3907H60.8182V8.6091H82.9954V4.9208H79.2976V1.22302Z" fill="#3F5DBA"/>
<path d="M42.4999 1.22296H38.8021V8.60904H46.1977V4.92074L42.4999 1.22296Z" fill="#3F5DBA"/>
<path d="M35.1044 16.0046V23.3907H38.6125L38.8021 30.7768H46.1977V23.3907H49.886V16.0046L46.1977 12.3068H38.8021L35.1044 16.0046Z" fill="#3F5DBA"/>
</svg>
