<svg width="60" height="41" viewBox="0 0 60 41" fill="none" xmlns="http://www.w3.org/2000/svg">
<g clip-path="url(#clip0_292_1300)">
<path d="M9.93942 0.5H4.96973V5.5H9.93942V0.5Z" fill="#3F5DBA"/>
<path d="M14.9092 0.5H9.93945V5.5H14.9092V0.5Z" fill="#3F5DBA"/>
<path d="M19.8788 0.5H14.9091V5.5H19.8788V0.5Z" fill="#3F5DBA"/>
<path d="M24.8485 0.5H19.8788V5.5H24.8485V0.5Z" fill="#3F5DBA"/>
<path d="M29.8182 0.5H24.8485V5.5H29.8182V0.5Z" fill="#3F5DBA"/>
<path d="M34.7879 0.5H29.8182V5.5H34.7879V0.5Z" fill="#3F5DBA"/>
<path d="M39.7575 0.5H34.7878V5.5H39.7575V0.5Z" fill="#3F5DBA"/>
<path d="M44.7273 0.5H39.7576V5.5H44.7273V0.5Z" fill="#3F5DBA"/>
<path d="M49.697 0.5H44.7273V5.5H49.697V0.5Z" fill="#3F5DBA"/>
<path d="M54.6667 0.5H49.697V5.5H54.6667V0.5Z" fill="#3F5DBA"/>
<path d="M4.9697 5.5H0V10.5H4.9697V5.5Z" fill="#3F5DBA"/>
<path d="M9.93942 5.5H4.96973V10.5H9.93942V5.5Z" fill="#D6EA5E"/>
<path d="M14.9092 5.5H9.93945V10.5H14.9092V5.5Z" fill="#3F5DBA"/>
<path d="M19.8788 5.5H14.9091V10.5H19.8788V5.5Z" fill="#3F5DBA"/>
<path d="M24.8485 5.5H19.8788V10.5H24.8485V5.5Z" fill="#3F5DBA"/>
<path d="M29.8182 5.5H24.8485V10.5H29.8182V5.5Z" fill="#3F5DBA"/>
<path d="M34.7879 5.5H29.8182V10.5H34.7879V5.5Z" fill="#3F5DBA"/>
<path d="M39.7575 5.5H34.7878V10.5H39.7575V5.5Z" fill="#3F5DBA"/>
<path d="M44.7273 5.5H39.7576V10.5H44.7273V5.5Z" fill="#3F5DBA"/>
<path d="M49.697 5.5H44.7273V10.5H49.697V5.5Z" fill="#3F5DBA"/>
<path d="M54.6667 5.5H49.697V10.5H54.6667V5.5Z" fill="#D6EA5E"/>
<path d="M59.6363 5.5H54.6666V10.5H59.6363V5.5Z" fill="#3F5DBA"/>
<path d="M4.9697 10.5H0V15.5H4.9697V10.5Z" fill="#3F5DBA"/>
<path d="M9.93942 10.5H4.96973V15.5H9.93942V10.5Z" fill="#D6EA5E"/>
<path d="M14.9092 10.5H9.93945V15.5H14.9092V10.5Z" fill="#D6EA5E"/>
<path d="M19.8788 10.5H14.9091V15.5H19.8788V10.5Z" fill="#3F5DBA"/>
<path d="M24.8485 10.5H19.8788V15.5H24.8485V10.5Z" fill="#3F5DBA"/>
<path d="M29.8182 10.5H24.8485V15.5H29.8182V10.5Z" fill="#3F5DBA"/>
<path d="M34.7879 10.5H29.8182V15.5H34.7879V10.5Z" fill="#3F5DBA"/>
<path d="M39.7575 10.5H34.7878V15.5H39.7575V10.5Z" fill="#3F5DBA"/>
<path d="M44.7273 10.5H39.7576V15.5H44.7273V10.5Z" fill="#3F5DBA"/>
<path d="M49.697 10.5H44.7273V15.5H49.697V10.5Z" fill="#D6EA5E"/>
<path d="M54.6667 10.5H49.697V15.5H54.6667V10.5Z" fill="#D6EA5E"/>
<path d="M59.6363 10.5H54.6666V15.5H59.6363V10.5Z" fill="#3F5DBA"/>
<path d="M4.9697 15.5H0V20.5H4.9697V15.5Z" fill="#3F5DBA"/>
<path d="M9.93942 15.5H4.96973V20.5H9.93942V15.5Z" fill="#D6EA5E"/>
<path d="M14.9092 15.5H9.93945V20.5H14.9092V15.5Z" fill="#D6EA5E"/>
<path d="M19.8788 15.5H14.9091V20.5H19.8788V15.5Z" fill="#D6EA5E"/>
<path d="M24.8485 15.5H19.8788V20.5H24.8485V15.5Z" fill="#D6EA5E"/>
<path d="M29.8182 15.5H24.8485V20.5H29.8182V15.5Z" fill="#3F5DBA"/>
<path d="M34.7879 15.5H29.8182V20.5H34.7879V15.5Z" fill="#3F5DBA"/>
<path d="M39.7575 15.5H34.7878V20.5H39.7575V15.5Z" fill="#D6EA5E"/>
<path d="M44.7273 15.5H39.7576V20.5H44.7273V15.5Z" fill="#D6EA5E"/>
<path d="M49.697 15.5H44.7273V20.5H49.697V15.5Z" fill="#D6EA5E"/>
<path d="M54.6667 15.5H49.697V20.5H54.6667V15.5Z" fill="#D6EA5E"/>
<path d="M59.6363 15.5H54.6666V20.5H59.6363V15.5Z" fill="#3F5DBA"/>
<path d="M4.9697 20.5H0V25.5H4.9697V20.5Z" fill="#3F5DBA"/>
<path d="M9.93942 20.5H4.96973V25.5H9.93942V20.5Z" fill="#D6EA5E"/>
<path d="M14.9092 20.5H9.93945V25.5H14.9092V20.5Z" fill="#D6EA5E"/>
<path d="M19.8788 20.5H14.9091V25.5H19.8788V20.5Z" fill="#D6EA5E"/>
<path d="M24.8485 20.5H19.8788V25.5H24.8485V20.5Z" fill="#D6EA5E"/>
<path d="M29.8182 20.5H24.8485V25.5H29.8182V20.5Z" fill="#D6EA5E"/>
<path d="M34.7879 20.5H29.8182V25.5H34.7879V20.5Z" fill="#D6EA5E"/>
<path d="M39.7575 20.5H34.7878V25.5H39.7575V20.5Z" fill="#D6EA5E"/>
<path d="M44.7273 20.5H39.7576V25.5H44.7273V20.5Z" fill="#D6EA5E"/>
<path d="M49.697 20.5H44.7273V25.5H49.697V20.5Z" fill="#D6EA5E"/>
<path d="M54.6667 20.5H49.697V25.5H54.6667V20.5Z" fill="#D6EA5E"/>
<path d="M59.6363 20.5H54.6666V25.5H59.6363V20.5Z" fill="#3F5DBA"/>
<path d="M4.9697 25.5H0V30.5H4.9697V25.5Z" fill="#3F5DBA"/>
<path d="M9.93942 25.5H4.96973V30.5H9.93942V25.5Z" fill="#D6EA5E"/>
<path d="M14.9092 25.5H9.93945V30.5H14.9092V25.5Z" fill="#D6EA5E"/>
<path d="M19.8788 25.5H14.9091V30.5H19.8788V25.5Z" fill="#D6EA5E"/>
<path d="M24.8485 25.5H19.8788V30.5H24.8485V25.5Z" fill="#D6EA5E"/>
<path d="M29.8182 25.5H24.8485V30.5H29.8182V25.5Z" fill="#D6EA5E"/>
<path d="M34.7879 25.5H29.8182V30.5H34.7879V25.5Z" fill="#D6EA5E"/>
<path d="M39.7575 25.5H34.7878V30.5H39.7575V25.5Z" fill="#3F5DBA"/>
<path d="M44.7273 25.5H39.7576V30.5H44.7273V25.5Z" fill="#3F5DBA"/>
<path d="M49.697 25.5H44.7273V30.5H49.697V25.5Z" fill="#3F5DBA"/>
<path d="M54.6667 25.5H49.697V30.5H54.6667V25.5Z" fill="#D6EA5E"/>
<path d="M59.6363 25.5H54.6666V30.5H59.6363V25.5Z" fill="#3F5DBA"/>
<path d="M4.9697 30.5H0V35.5H4.9697V30.5Z" fill="#3F5DBA"/>
<path d="M9.93942 30.5H4.96973V35.5H9.93942V30.5Z" fill="#D6EA5E"/>
<path d="M14.9092 30.5H9.93945V35.5H14.9092V30.5Z" fill="#D6EA5E"/>
<path d="M19.8788 30.5H14.9091V35.5H19.8788V30.5Z" fill="#D6EA5E"/>
<path d="M24.8485 30.5H19.8788V35.5H24.8485V30.5Z" fill="#D6EA5E"/>
<path d="M29.8182 30.5H24.8485V35.5H29.8182V30.5Z" fill="#D6EA5E"/>
<path d="M34.7879 30.5H29.8182V35.5H34.7879V30.5Z" fill="#D6EA5E"/>
<path d="M39.7575 30.5H34.7878V35.5H39.7575V30.5Z" fill="#D6EA5E"/>
<path d="M44.7273 30.5H39.7576V35.5H44.7273V30.5Z" fill="#D6EA5E"/>
<path d="M49.697 30.5H44.7273V35.5H49.697V30.5Z" fill="#D6EA5E"/>
<path d="M54.6667 30.5H49.697V35.5H54.6667V30.5Z" fill="#D6EA5E"/>
<path d="M59.6363 30.5H54.6666V35.5H59.6363V30.5Z" fill="#3F5DBA"/>
<path d="M9.93942 35.5H4.96973V40.5H9.93942V35.5Z" fill="#3F5DBA"/>
<path d="M14.9092 35.5H9.93945V40.5H14.9092V35.5Z" fill="#3F5DBA"/>
<path d="M19.8788 35.5H14.9091V40.5H19.8788V35.5Z" fill="#3F5DBA"/>
<path d="M24.8485 35.5H19.8788V40.5H24.8485V35.5Z" fill="#3F5DBA"/>
<path d="M29.8182 35.5H24.8485V40.5H29.8182V35.5Z" fill="#3F5DBA"/>
<path d="M34.7879 35.5H29.8182V40.5H34.7879V35.5Z" fill="#3F5DBA"/>
<path d="M39.7575 35.5H34.7878V40.5H39.7575V35.5Z" fill="#3F5DBA"/>
<path d="M44.7273 35.5H39.7576V40.5H44.7273V35.5Z" fill="#3F5DBA"/>
<path d="M49.697 35.5H44.7273V40.5H49.697V35.5Z" fill="#3F5DBA"/>
<path d="M54.6667 35.5H49.697V40.5H54.6667V35.5Z" fill="#3F5DBA"/>
</g>
<defs>
<clipPath id="clip0_292_1300">
<rect width="59.6364" height="40" fill="white" transform="translate(0 0.5)"/>
</clipPath>
</defs>
</svg>
