<svg width="20" height="20" viewBox="0 0 20 20" fill="none" xmlns="http://www.w3.org/2000/svg">
<path d="M10.0222 14.2515C9.93759 14.0703 9.76234 13.9381 9.55026 13.9145C9.37076 13.8946 9.19501 13.857 9.02776 13.8029C8.95276 13.7784 8.88243 13.7515 8.81734 13.7228L8.92551 13.4352C9.00193 13.4684 9.08068 13.4989 9.16126 13.5264L9.16459 13.5275L9.16801 13.5286C9.42668 13.6119 9.68118 13.6542 9.92434 13.6542C10.1685 13.6542 10.3455 13.6224 10.4815 13.5539L10.4897 13.5498L10.4976 13.5454C10.7036 13.43 10.8218 13.2319 10.8218 13.0017C10.8218 12.7462 10.6804 12.5341 10.4338 12.4195C10.3098 12.3607 10.1337 12.3046 9.87993 12.243C9.61968 12.1789 9.40101 12.1108 9.23151 12.041C9.10751 11.9864 9.00001 11.8991 8.90309 11.7744C8.81968 11.6631 8.77734 11.4956 8.77734 11.2765C8.77734 11.0123 8.85376 10.7941 9.01076 10.6096C9.15068 10.4479 9.34926 10.3381 9.61576 10.2764C9.81334 10.2308 9.96759 10.0932 10.0369 9.91553C10.1153 10.0957 10.2821 10.2296 10.4895 10.2618C10.6628 10.2888 10.8221 10.3316 10.9652 10.3897L10.8655 10.6715C10.5953 10.5658 10.3294 10.5124 10.0723 10.5124C9.21818 10.5124 9.17493 11.0869 9.17493 11.2021C9.17493 11.4517 9.31318 11.6611 9.55434 11.7765L9.56109 11.7797L9.56793 11.7827C9.68968 11.8357 9.86259 11.8868 10.112 11.9434C10.3698 12.0003 10.5848 12.0654 10.7538 12.1375L10.7573 12.139L10.7608 12.1404C10.8863 12.1914 10.9939 12.2764 11.0898 12.4004L11.0913 12.4024L11.0929 12.4043C11.1768 12.5099 11.2193 12.6734 11.2193 12.89C11.2193 13.1401 11.145 13.3519 10.9922 13.5373C10.8597 13.6981 10.6746 13.8094 10.4263 13.8776C10.2346 13.9302 10.0858 14.0731 10.0222 14.2515Z" fill="#3F5DBA"/>
<path d="M10.2379 15H9.82636C9.73428 15 9.6597 14.9254 9.6597 14.8333V14.4987C9.6597 14.4107 9.5912 14.3384 9.5037 14.3286C9.29536 14.3055 9.09378 14.2625 8.89903 14.1995C8.70978 14.1373 8.54587 14.0636 8.4072 13.9782C8.34345 13.939 8.32029 13.8593 8.34661 13.7893L8.62886 13.0388C8.66695 12.9378 8.78962 12.8991 8.88412 12.9514C9.01162 13.0218 9.14861 13.082 9.2952 13.132C9.51353 13.2024 9.72311 13.2375 9.92378 13.2375C10.0964 13.2375 10.2196 13.219 10.2936 13.1817C10.3675 13.1403 10.4045 13.0803 10.4045 13.0017C10.4045 12.9107 10.3552 12.8425 10.2566 12.797C10.1615 12.7515 10.003 12.7018 9.7812 12.648C9.49595 12.5777 9.2582 12.5032 9.06803 12.4246C8.87786 12.3419 8.71236 12.2095 8.57145 12.0275C8.43061 11.8413 8.3602 11.591 8.3602 11.2765C8.3602 10.9125 8.47111 10.6001 8.69295 10.3395C8.89286 10.1083 9.16903 9.95196 9.52136 9.87054C9.60062 9.85221 9.6597 9.78338 9.6597 9.70204V9.33329C9.6597 9.24121 9.73428 9.16663 9.82636 9.16663H10.2379C10.3299 9.16663 10.4045 9.24121 10.4045 9.33329V9.68096C10.4045 9.76613 10.4689 9.83704 10.5529 9.85013C10.8615 9.89804 11.1327 9.98879 11.3664 10.1224C11.4327 10.1603 11.4591 10.241 11.4336 10.313L11.1694 11.0604C11.1344 11.1595 11.0178 11.2014 10.9239 11.154C10.6264 11.004 10.3423 10.929 10.0717 10.929C9.75128 10.929 9.59103 11.02 9.59103 11.202C9.59103 11.289 9.63853 11.3551 9.73361 11.4007C9.8287 11.442 9.98545 11.4875 10.2038 11.5372C10.4855 11.5993 10.7233 11.6716 10.9169 11.7544C11.1106 11.833 11.2779 11.9633 11.4188 12.1454C11.5632 12.3274 11.6354 12.5756 11.6354 12.89C11.6354 13.2375 11.5279 13.5416 11.3131 13.8023C11.1259 14.0295 10.8669 14.1885 10.5361 14.2794C10.46 14.3003 10.4045 14.3676 10.4045 14.4465V14.8333C10.4045 14.9254 10.3299 15 10.2379 15Z" fill="#3F5DBA"/>
<path fill-rule="evenodd" clip-rule="evenodd" d="M8.19892 4.16663H11.8072C12.7314 4.16663 12.2239 5.55329 11.8497 6.39913L11.4239 7.36913L11.3664 7.49996C11.7697 7.48038 12.1686 7.59208 12.5031 7.81829C13.7542 8.96313 14.7697 10.3415 15.4922 11.8758C15.7738 12.4431 15.8856 13.0798 15.8139 13.7091C15.728 15.3132 14.4411 16.5915 12.8364 16.6666H7.16975C5.56471 16.5937 4.27588 15.3168 4.18809 13.7125C4.11645 13.0831 4.22815 12.4465 4.50975 11.8791C5.23317 10.3433 6.25004 8.96371 7.50309 7.81829C7.83759 7.59208 8.23641 7.48038 8.63974 7.49996L8.57308 7.34913L8.15642 6.39913C7.78392 5.55329 7.27392 4.16663 8.19892 4.16663Z" stroke="#3F5DBA" stroke-width="1.5" stroke-linecap="round" stroke-linejoin="round"/>
<path d="M11.3657 8.12496C11.7109 8.12496 11.9907 7.84513 11.9907 7.49996C11.9907 7.15478 11.7109 6.87496 11.3657 6.87496V8.12496ZM8.63907 6.87496C8.29389 6.87496 8.01407 7.15478 8.01407 7.49996C8.01407 7.84513 8.29389 8.12496 8.63907 8.12496V6.87496ZM13.6418 7.21156C13.9427 7.04251 14.0497 6.66151 13.8807 6.36056C13.7117 6.0596 13.3307 5.95266 13.0297 6.12169L13.6418 7.21156ZM11.4232 7.36912L11.5409 7.98295L11.5427 7.98261L11.4232 7.36912ZM8.5724 7.34912L8.69865 6.73699L8.69315 6.73589L8.5724 7.34912ZM6.96554 6.11641C6.66167 5.95268 6.28259 6.06628 6.11886 6.37015C5.95512 6.67402 6.06872 7.0531 6.37259 7.21683L6.96554 6.11641ZM11.3657 6.87496H8.63907V8.12496H11.3657V6.87496ZM13.0297 6.12169C12.4919 6.42374 11.9092 6.63776 11.3038 6.75564L11.5427 7.98261C12.2791 7.83923 12.9877 7.57892 13.6418 7.21156L13.0297 6.12169ZM11.3056 6.75531C10.4438 6.92051 9.55799 6.91427 8.69865 6.73699L8.44615 7.96123C9.46624 8.1717 10.5179 8.17909 11.5409 7.98295L11.3056 6.75531ZM8.69315 6.73589C8.08949 6.61707 7.50713 6.40825 6.96554 6.11641L6.37259 7.21683C7.02439 7.56804 7.72524 7.81935 8.45165 7.96236L8.69315 6.73589Z" fill="#3F5DBA"/>
</svg>
