<svg width="19" height="18" viewBox="0 0 19 18" fill="none" xmlns="http://www.w3.org/2000/svg">
<path d="M9.51976 12.8264C9.44364 12.6633 9.28591 12.5443 9.09504 12.5231C8.93349 12.5052 8.77531 12.4714 8.62479 12.4227C8.55729 12.4006 8.49399 12.3764 8.43541 12.3505L8.53276 12.0917C8.60154 12.1216 8.67241 12.1491 8.74494 12.1738L8.74794 12.1748L8.75101 12.1758C8.98381 12.2508 9.21286 12.2888 9.43171 12.2888C9.65146 12.2888 9.81076 12.2602 9.93316 12.1985L9.94051 12.1948L9.94764 12.1909C10.133 12.0871 10.2394 11.9088 10.2394 11.7016C10.2394 11.4716 10.1122 11.2807 9.89019 11.1776C9.77866 11.1247 9.62011 11.0742 9.39174 11.0188C9.15751 10.961 8.96071 10.8997 8.80816 10.837C8.69656 10.7878 8.59981 10.7092 8.51259 10.597C8.43751 10.4968 8.39941 10.3461 8.39941 10.1489C8.39941 9.91109 8.46819 9.71474 8.60949 9.54869C8.73541 9.40311 8.91414 9.30434 9.15399 9.24884C9.33181 9.20774 9.47064 9.08391 9.53304 8.92401C9.60354 9.08616 9.75369 9.20669 9.94036 9.23564C10.0964 9.25994 10.2397 9.29849 10.3685 9.35076L10.2788 9.60441C10.0356 9.50924 9.79629 9.46116 9.56484 9.46116C8.79616 9.46116 8.75724 9.97821 8.75724 10.0819C8.75724 10.3066 8.88166 10.495 9.09871 10.5989L9.10479 10.6018L9.11094 10.6045C9.22051 10.6522 9.37614 10.6981 9.60061 10.7491C9.83266 10.8003 10.0262 10.8589 10.1783 10.9238L10.1814 10.9252L10.1846 10.9264C10.2974 10.9723 10.3943 11.0488 10.4807 11.1604L10.482 11.1622L10.4834 11.1639C10.5589 11.259 10.5971 11.4061 10.5971 11.6011C10.5971 11.8261 10.5303 12.0167 10.3928 12.1836C10.2735 12.3283 10.1069 12.4285 9.88351 12.4899C9.71094 12.5372 9.57706 12.6658 9.51976 12.8264Z" fill="#3F5DBA"/>
<path d="M9.71466 13.5H9.34431C9.26144 13.5 9.19431 13.4329 9.19431 13.35V13.0489C9.19431 12.9697 9.13266 12.9046 9.05391 12.8958C8.86641 12.875 8.68499 12.8363 8.50971 12.7796C8.33939 12.7236 8.19186 12.6573 8.06706 12.5804C8.00969 12.5452 7.98885 12.4734 8.01254 12.4104L8.26656 11.7349C8.30084 11.644 8.41124 11.6093 8.49629 11.6563C8.61104 11.7197 8.73434 11.7739 8.86626 11.8189C9.06276 11.8822 9.25139 11.9138 9.43199 11.9138C9.58731 11.9138 9.69824 11.8971 9.76484 11.8636C9.83136 11.8263 9.86466 11.7723 9.86466 11.7016C9.86466 11.6197 9.82026 11.5582 9.73154 11.5173C9.64596 11.4763 9.50331 11.4316 9.30366 11.3833C9.04694 11.32 8.83296 11.2529 8.66181 11.1822C8.49066 11.1077 8.34171 10.9885 8.21489 10.8247C8.08814 10.6572 8.02476 10.4319 8.02476 10.1489C8.02476 9.82125 8.12459 9.54015 8.32424 9.30555C8.50416 9.0975 8.75271 8.9568 9.06981 8.88352C9.14114 8.86702 9.19431 8.80507 9.19431 8.73187V8.4C9.19431 8.31712 9.26144 8.25 9.34431 8.25H9.71466C9.79754 8.25 9.86466 8.31712 9.86466 8.4V8.7129C9.86466 8.78955 9.92256 8.85337 9.99824 8.86515C10.276 8.90827 10.52 8.98995 10.7304 9.11018C10.79 9.1443 10.8138 9.2169 10.7908 9.2817L10.5531 9.95438C10.5216 10.0436 10.4166 10.0813 10.3321 10.0387C10.0643 9.90368 9.80864 9.83617 9.56511 9.83617C9.27674 9.83617 9.13251 9.91808 9.13251 10.0819C9.13251 10.1601 9.17526 10.2196 9.26084 10.2607C9.34641 10.2979 9.48749 10.3388 9.68399 10.3835C9.93756 10.4394 10.1515 10.5045 10.3258 10.579C10.5001 10.6498 10.6507 10.767 10.7775 10.9309C10.9075 11.0947 10.9724 11.3181 10.9724 11.6011C10.9724 11.9138 10.8757 12.1875 10.6824 12.4221C10.5139 12.6265 10.2808 12.7696 9.98309 12.8515C9.91461 12.8703 9.86466 12.9309 9.86466 13.0019V13.35C9.86466 13.4329 9.79754 13.5 9.71466 13.5Z" fill="#3F5DBA"/>
<path fill-rule="evenodd" clip-rule="evenodd" d="M7.87873 3.75H11.1262C11.958 3.75 11.5012 4.998 11.1645 5.75925L10.7812 6.63225L10.7295 6.75C11.0925 6.73238 11.4514 6.8329 11.7525 7.0365C12.8785 8.06685 13.7925 9.30735 14.4427 10.6883C14.6962 11.1989 14.7967 11.7719 14.7322 12.3383C14.6549 13.7819 13.4967 14.9324 12.0525 15H6.95248C5.50795 14.9344 4.348 13.7851 4.26898 12.3412C4.20451 11.7748 4.30504 11.2019 4.55848 10.6913C5.20956 9.309 6.12474 8.06738 7.25248 7.0365C7.55354 6.8329 7.91248 6.73238 8.27548 6.75L8.21548 6.61425L7.84048 5.75925C7.50523 4.998 7.04623 3.75 7.87873 3.75Z" stroke="#3F5DBA" stroke-width="1.5" stroke-linecap="round" stroke-linejoin="round"/>
<path d="M10.7291 7.31249C11.0397 7.31249 11.2916 7.06064 11.2916 6.74998C11.2916 6.43933 11.0397 6.18749 10.7291 6.18749V7.31249ZM8.27507 6.18749C7.9644 6.18749 7.71257 6.43933 7.71257 6.74998C7.71257 7.06064 7.9644 7.31249 8.27507 7.31249V6.18749ZM12.7775 6.49043C13.0484 6.33829 13.1447 5.99539 12.9925 5.72453C12.8404 5.45366 12.4975 5.35742 12.2266 5.50955L12.7775 6.49043ZM10.7808 6.63224L10.8867 7.18468L10.8883 7.18437L10.7808 6.63224ZM8.21507 6.61424L8.32869 6.06332L8.32374 6.06233L8.21507 6.61424ZM6.76889 5.5048C6.49541 5.35744 6.15424 5.45968 6.00688 5.73316C5.85951 6.00665 5.96175 6.34781 6.23524 6.49517L6.76889 5.5048ZM10.7291 6.18749H8.27507V7.31249H10.7291V6.18749ZM12.2266 5.50955C11.7426 5.78139 11.2182 5.97401 10.6733 6.0801L10.8883 7.18437C11.5511 7.05533 12.1889 6.82106 12.7775 6.49043L12.2266 5.50955ZM10.6749 6.0798C9.89934 6.22849 9.10209 6.22287 8.32869 6.06332L8.10144 7.16513C9.01952 7.35455 9.96601 7.3612 10.8867 7.18468L10.6749 6.0798ZM8.32374 6.06233C7.78044 5.95538 7.25632 5.76745 6.76889 5.5048L6.23524 6.49517C6.82185 6.81126 7.45261 7.03744 8.10639 7.16615L8.32374 6.06233Z" fill="#3F5DBA"/>
</svg>
