<svg width="14" height="16" viewBox="0 0 14 16" fill="none" xmlns="http://www.w3.org/2000/svg">
<g clip-path="url(#clip0_108_974)">
<path d="M4.92309 0H3.69232V1.23077H4.92309V0Z" fill="#3F5DBA"/>
<path d="M6.15386 0H4.9231V1.23077H6.15386V0Z" fill="#3F5DBA"/>
<path d="M7.38464 0H6.15387V1.23077H7.38464V0Z" fill="#3F5DBA"/>
<path d="M8.61541 0H7.38464V1.23077H8.61541V0Z" fill="#3F5DBA"/>
<path d="M9.84613 0H8.61536V1.23077H9.84613V0Z" fill="#3F5DBA"/>
<path d="M2.46154 1.23077H1.23077V2.46154H2.46154V1.23077Z" fill="#3F5DBA"/>
<path d="M3.69232 1.23077H2.46155V2.46154H3.69232V1.23077Z" fill="#3F5DBA"/>
<path d="M4.92309 1.23077H3.69232V2.46154H4.92309V1.23077Z" fill="#3F5DBA"/>
<path d="M6.15386 1.23077H4.9231V2.46154H6.15386V1.23077Z" fill="#3F5DBA"/>
<path d="M7.38464 1.23077H6.15387V2.46154H7.38464V1.23077Z" fill="#3F5DBA"/>
<path d="M8.61541 1.23077H7.38464V2.46154H8.61541V1.23077Z" fill="#3F5DBA"/>
<path d="M9.84613 1.23077H8.61536V2.46154H9.84613V1.23077Z" fill="#3F5DBA"/>
<path d="M11.0769 1.23077H9.84613V2.46154H11.0769V1.23077Z" fill="#3F5DBA"/>
<path d="M12.3077 1.23077H11.0769V2.46154H12.3077V1.23077Z" fill="#3F5DBA"/>
<path d="M2.46154 2.46155H1.23077V3.69232H2.46154V2.46155Z" fill="#3F5DBA"/>
<path d="M3.69232 2.46155H2.46155V3.69232H3.69232V2.46155Z" fill="#3F5DBA"/>
<path d="M4.92309 2.46155H3.69232V3.69232H4.92309V2.46155Z" fill="#3F5DBA"/>
<path d="M6.15386 2.46155H4.9231V3.69232H6.15386V2.46155Z" fill="#D6EA5E"/>
<path d="M7.38464 2.46155H6.15387V3.69232H7.38464V2.46155Z" fill="#3F5DBA"/>
<path d="M8.61541 2.46155H7.38464V3.69232H8.61541V2.46155Z" fill="#D6EA5E"/>
<path d="M9.84613 2.46155H8.61536V3.69232H9.84613V2.46155Z" fill="#3F5DBA"/>
<path d="M11.0769 2.46155H9.84613V3.69232H11.0769V2.46155Z" fill="#3F5DBA"/>
<path d="M12.3077 2.46155H11.0769V3.69232H12.3077V2.46155Z" fill="#3F5DBA"/>
<path d="M1.23077 3.69232H0V4.92309H1.23077V3.69232Z" fill="#3F5DBA"/>
<path d="M2.46154 3.69232H1.23077V4.92309H2.46154V3.69232Z" fill="#3F5DBA"/>
<path d="M3.69232 3.69232H2.46155V4.92309H3.69232V3.69232Z" fill="#3F5DBA"/>
<path d="M4.92309 3.69232H3.69232V4.92309H4.92309V3.69232Z" fill="#D6EA5E"/>
<path d="M6.15386 3.69232H4.9231V4.92309H6.15386V3.69232Z" fill="#D6EA5E"/>
<path d="M7.38464 3.69232H6.15387V4.92309H7.38464V3.69232Z" fill="#D6EA5E"/>
<path d="M8.61541 3.69232H7.38464V4.92309H8.61541V3.69232Z" fill="#D6EA5E"/>
<path d="M9.84613 3.69232H8.61536V4.92309H9.84613V3.69232Z" fill="#D6EA5E"/>
<path d="M11.0769 3.69232H9.84613V4.92309H11.0769V3.69232Z" fill="#3F5DBA"/>
<path d="M12.3077 3.69232H11.0769V4.92309H12.3077V3.69232Z" fill="#3F5DBA"/>
<path d="M13.5384 3.69232H12.3077V4.92309H13.5384V3.69232Z" fill="#3F5DBA"/>
<path d="M1.23077 4.9231H0V6.15386H1.23077V4.9231Z" fill="#3F5DBA"/>
<path d="M2.46154 4.9231H1.23077V6.15386H2.46154V4.9231Z" fill="#3F5DBA"/>
<path d="M3.69232 4.9231H2.46155V6.15386H3.69232V4.9231Z" fill="#D6EA5E"/>
<path d="M4.92309 4.9231H3.69232V6.15386H4.92309V4.9231Z" fill="#3F5DBA"/>
<path d="M6.15386 4.9231H4.9231V6.15386H6.15386V4.9231Z" fill="#3F5DBA"/>
<path d="M7.38464 4.9231H6.15387V6.15386H7.38464V4.9231Z" fill="#3F5DBA"/>
<path d="M8.61541 4.9231H7.38464V6.15386H8.61541V4.9231Z" fill="#3F5DBA"/>
<path d="M9.84613 4.9231H8.61536V6.15386H9.84613V4.9231Z" fill="#3F5DBA"/>
<path d="M11.0769 4.9231H9.84613V6.15386H11.0769V4.9231Z" fill="#D6EA5E"/>
<path d="M12.3077 4.9231H11.0769V6.15386H12.3077V4.9231Z" fill="#3F5DBA"/>
<path d="M13.5384 4.9231H12.3077V6.15386H13.5384V4.9231Z" fill="#3F5DBA"/>
<path d="M1.23077 6.15387H0V7.38464H1.23077V6.15387Z" fill="#3F5DBA"/>
<path d="M2.46154 6.15387H1.23077V7.38464H2.46154V6.15387Z" fill="#3F5DBA"/>
<path d="M3.69232 6.15387H2.46155V7.38464H3.69232V6.15387Z" fill="#D6EA5E"/>
<path d="M4.92309 6.15387H3.69232V7.38464H4.92309V6.15387Z" fill="#3F5DBA"/>
<path d="M6.15386 6.15387H4.9231V7.38464H6.15386V6.15387Z" fill="#3F5DBA"/>
<path d="M7.38464 6.15387H6.15387V7.38464H7.38464V6.15387Z" fill="#3F5DBA"/>
<path d="M8.61541 6.15387H7.38464V7.38464H8.61541V6.15387Z" fill="#3F5DBA"/>
<path d="M9.84613 6.15387H8.61536V7.38464H9.84613V6.15387Z" fill="#3F5DBA"/>
<path d="M11.0769 6.15387H9.84613V7.38464H11.0769V6.15387Z" fill="#3F5DBA"/>
<path d="M12.3077 6.15387H11.0769V7.38464H12.3077V6.15387Z" fill="#3F5DBA"/>
<path d="M13.5384 6.15387H12.3077V7.38464H13.5384V6.15387Z" fill="#3F5DBA"/>
<path d="M1.23077 7.38464H0V8.61541H1.23077V7.38464Z" fill="#3F5DBA"/>
<path d="M2.46154 7.38464H1.23077V8.61541H2.46154V7.38464Z" fill="#3F5DBA"/>
<path d="M3.69232 7.38464H2.46155V8.61541H3.69232V7.38464Z" fill="#3F5DBA"/>
<path d="M4.92309 7.38464H3.69232V8.61541H4.92309V7.38464Z" fill="#D6EA5E"/>
<path d="M6.15386 7.38464H4.9231V8.61541H6.15386V7.38464Z" fill="#D6EA5E"/>
<path d="M7.38464 7.38464H6.15387V8.61541H7.38464V7.38464Z" fill="#D6EA5E"/>
<path d="M8.61541 7.38464H7.38464V8.61541H8.61541V7.38464Z" fill="#D6EA5E"/>
<path d="M9.84613 7.38464H8.61536V8.61541H9.84613V7.38464Z" fill="#D6EA5E"/>
<path d="M11.0769 7.38464H9.84613V8.61541H11.0769V7.38464Z" fill="#3F5DBA"/>
<path d="M12.3077 7.38464H11.0769V8.61541H12.3077V7.38464Z" fill="#3F5DBA"/>
<path d="M13.5384 7.38464H12.3077V8.61541H13.5384V7.38464Z" fill="#3F5DBA"/>
<path d="M1.23077 8.61536H0V9.84613H1.23077V8.61536Z" fill="#3F5DBA"/>
<path d="M2.46154 8.61536H1.23077V9.84613H2.46154V8.61536Z" fill="#3F5DBA"/>
<path d="M3.69232 8.61536H2.46155V9.84613H3.69232V8.61536Z" fill="#3F5DBA"/>
<path d="M4.92309 8.61536H3.69232V9.84613H4.92309V8.61536Z" fill="#3F5DBA"/>
<path d="M6.15386 8.61536H4.9231V9.84613H6.15386V8.61536Z" fill="#3F5DBA"/>
<path d="M7.38464 8.61536H6.15387V9.84613H7.38464V8.61536Z" fill="#3F5DBA"/>
<path d="M8.61541 8.61536H7.38464V9.84613H8.61541V8.61536Z" fill="#3F5DBA"/>
<path d="M9.84613 8.61536H8.61536V9.84613H9.84613V8.61536Z" fill="#3F5DBA"/>
<path d="M11.0769 8.61536H9.84613V9.84613H11.0769V8.61536Z" fill="#D6EA5E"/>
<path d="M12.3077 8.61536H11.0769V9.84613H12.3077V8.61536Z" fill="#3F5DBA"/>
<path d="M13.5384 8.61536H12.3077V9.84613H13.5384V8.61536Z" fill="#3F5DBA"/>
<path d="M1.23077 9.84613H0V11.0769H1.23077V9.84613Z" fill="#3F5DBA"/>
<path d="M2.46154 9.84613H1.23077V11.0769H2.46154V9.84613Z" fill="#3F5DBA"/>
<path d="M3.69232 9.84613H2.46155V11.0769H3.69232V9.84613Z" fill="#D6EA5E"/>
<path d="M4.92309 9.84613H3.69232V11.0769H4.92309V9.84613Z" fill="#3F5DBA"/>
<path d="M6.15386 9.84613H4.9231V11.0769H6.15386V9.84613Z" fill="#3F5DBA"/>
<path d="M7.38464 9.84613H6.15387V11.0769H7.38464V9.84613Z" fill="#3F5DBA"/>
<path d="M8.61541 9.84613H7.38464V11.0769H8.61541V9.84613Z" fill="#3F5DBA"/>
<path d="M9.84613 9.84613H8.61536V11.0769H9.84613V9.84613Z" fill="#3F5DBA"/>
<path d="M11.0769 9.84613H9.84613V11.0769H11.0769V9.84613Z" fill="#D6EA5E"/>
<path d="M12.3077 9.84613H11.0769V11.0769H12.3077V9.84613Z" fill="#3F5DBA"/>
<path d="M13.5384 9.84613H12.3077V11.0769H13.5384V9.84613Z" fill="#3F5DBA"/>
<path d="M1.23077 11.0769H0V12.3077H1.23077V11.0769Z" fill="#3F5DBA"/>
<path d="M2.46154 11.0769H1.23077V12.3077H2.46154V11.0769Z" fill="#3F5DBA"/>
<path d="M3.69232 11.0769H2.46155V12.3077H3.69232V11.0769Z" fill="#3F5DBA"/>
<path d="M4.92309 11.0769H3.69232V12.3077H4.92309V11.0769Z" fill="#D6EA5E"/>
<path d="M6.15386 11.0769H4.9231V12.3077H6.15386V11.0769Z" fill="#D6EA5E"/>
<path d="M7.38464 11.0769H6.15387V12.3077H7.38464V11.0769Z" fill="#D6EA5E"/>
<path d="M8.61541 11.0769H7.38464V12.3077H8.61541V11.0769Z" fill="#D6EA5E"/>
<path d="M9.84613 11.0769H8.61536V12.3077H9.84613V11.0769Z" fill="#D6EA5E"/>
<path d="M11.0769 11.0769H9.84613V12.3077H11.0769V11.0769Z" fill="#3F5DBA"/>
<path d="M12.3077 11.0769H11.0769V12.3077H12.3077V11.0769Z" fill="#3F5DBA"/>
<path d="M13.5384 11.0769H12.3077V12.3077H13.5384V11.0769Z" fill="#3F5DBA"/>
<path d="M2.46154 12.3077H1.23077V13.5384H2.46154V12.3077Z" fill="#3F5DBA"/>
<path d="M3.69232 12.3077H2.46155V13.5384H3.69232V12.3077Z" fill="#3F5DBA"/>
<path d="M4.92309 12.3077H3.69232V13.5384H4.92309V12.3077Z" fill="#3F5DBA"/>
<path d="M6.15386 12.3077H4.9231V13.5384H6.15386V12.3077Z" fill="#D6EA5E"/>
<path d="M7.38464 12.3077H6.15387V13.5384H7.38464V12.3077Z" fill="#3F5DBA"/>
<path d="M8.61541 12.3077H7.38464V13.5384H8.61541V12.3077Z" fill="#D6EA5E"/>
<path d="M9.84613 12.3077H8.61536V13.5384H9.84613V12.3077Z" fill="#3F5DBA"/>
<path d="M11.0769 12.3077H9.84613V13.5384H11.0769V12.3077Z" fill="#3F5DBA"/>
<path d="M12.3077 12.3077H11.0769V13.5384H12.3077V12.3077Z" fill="#3F5DBA"/>
<path d="M2.46154 13.5385H1.23077V14.7692H2.46154V13.5385Z" fill="#3F5DBA"/>
<path d="M3.69232 13.5385H2.46155V14.7692H3.69232V13.5385Z" fill="#3F5DBA"/>
<path d="M4.92309 13.5385H3.69232V14.7692H4.92309V13.5385Z" fill="#3F5DBA"/>
<path d="M6.15386 13.5385H4.9231V14.7692H6.15386V13.5385Z" fill="#3F5DBA"/>
<path d="M7.38464 13.5385H6.15387V14.7692H7.38464V13.5385Z" fill="#3F5DBA"/>
<path d="M8.61541 13.5385H7.38464V14.7692H8.61541V13.5385Z" fill="#3F5DBA"/>
<path d="M9.84613 13.5385H8.61536V14.7692H9.84613V13.5385Z" fill="#3F5DBA"/>
<path d="M11.0769 13.5385H9.84613V14.7692H11.0769V13.5385Z" fill="#3F5DBA"/>
<path d="M12.3077 13.5385H11.0769V14.7692H12.3077V13.5385Z" fill="#3F5DBA"/>
<path d="M4.92309 14.7692H3.69232V16H4.92309V14.7692Z" fill="#3F5DBA"/>
<path d="M6.15386 14.7692H4.9231V16H6.15386V14.7692Z" fill="#3F5DBA"/>
<path d="M7.38464 14.7692H6.15387V16H7.38464V14.7692Z" fill="#3F5DBA"/>
<path d="M8.61541 14.7692H7.38464V16H8.61541V14.7692Z" fill="#3F5DBA"/>
<path d="M9.84613 14.7692H8.61536V16H9.84613V14.7692Z" fill="#3F5DBA"/>
</g>
<defs>
<clipPath id="clip0_108_974">
<rect width="13.5385" height="16" fill="white"/>
</clipPath>
</defs>
</svg>
