<svg width="26" height="26" viewBox="0 0 26 26" fill="none" xmlns="http://www.w3.org/2000/svg">
<path d="M17.375 11.75C17.8958 11.75 18.3385 11.5677 18.7031 11.2031C19.0677 10.8385 19.25 10.3958 19.25 9.875C19.25 9.35417 19.0677 8.91146 18.7031 8.54688C18.3385 8.18229 17.8958 8 17.375 8C16.8542 8 16.4115 8.18229 16.0469 8.54688C15.6823 8.91146 15.5 9.35417 15.5 9.875C15.5 10.3958 15.6823 10.8385 16.0469 11.2031C16.4115 11.5677 16.8542 11.75 17.375 11.75ZM8.625 11.75C9.14583 11.75 9.58854 11.5677 9.95312 11.2031C10.3177 10.8385 10.5 10.3958 10.5 9.875C10.5 9.35417 10.3177 8.91146 9.95312 8.54688C9.58854 8.18229 9.14583 8 8.625 8C8.10417 8 7.66146 8.18229 7.29688 8.54688C6.93229 8.91146 6.75 9.35417 6.75 9.875C6.75 10.3958 6.93229 10.8385 7.29688 11.2031C7.66146 11.5677 8.10417 11.75 8.625 11.75ZM13 19.875C14.4167 19.875 15.7031 19.474 16.8594 18.6719C18.0156 17.8698 18.8542 16.8125 19.375 15.5H17.3125C16.8542 16.2708 16.2448 16.8802 15.4844 17.3281C14.724 17.776 13.8958 18 13 18C12.1042 18 11.276 17.776 10.5156 17.3281C9.75521 16.8802 9.14583 16.2708 8.6875 15.5H6.625C7.14583 16.8125 7.98438 17.8698 9.14062 18.6719C10.2969 19.474 11.5833 19.875 13 19.875ZM13 25.5C11.2708 25.5 9.64583 25.1719 8.125 24.5156C6.60417 23.8594 5.28125 22.9688 4.15625 21.8438C3.03125 20.7188 2.14063 19.3958 1.48438 17.875C0.828125 16.3542 0.5 14.7292 0.5 13C0.5 11.2708 0.828125 9.64583 1.48438 8.125C2.14063 6.60417 3.03125 5.28125 4.15625 4.15625C5.28125 3.03125 6.60417 2.14063 8.125 1.48438C9.64583 0.828125 11.2708 0.5 13 0.5C14.7292 0.5 16.3542 0.828125 17.875 1.48438C19.3958 2.14063 20.7188 3.03125 21.8438 4.15625C22.9688 5.28125 23.8594 6.60417 24.5156 8.125C25.1719 9.64583 25.5 11.2708 25.5 13C25.5 14.7292 25.1719 16.3542 24.5156 17.875C23.8594 19.3958 22.9688 20.7188 21.8438 21.8438C20.7188 22.9688 19.3958 23.8594 17.875 24.5156C16.3542 25.1719 14.7292 25.5 13 25.5ZM13 23C15.7917 23 18.1562 22.0312 20.0938 20.0938C22.0312 18.1562 23 15.7917 23 13C23 10.2083 22.0312 7.84375 20.0938 5.90625C18.1562 3.96875 15.7917 3 13 3C10.2083 3 7.84375 3.96875 5.90625 5.90625C3.96875 7.84375 3 10.2083 3 13C3 15.7917 3.96875 18.1562 5.90625 20.0938C7.84375 22.0312 10.2083 23 13 23Z" fill="#3F5DBA"/>
</svg>