<svg width="26" height="26" viewBox="0 0 26 26" fill="none" xmlns="http://www.w3.org/2000/svg">
<path d="M13 14.875C11.5833 14.875 10.2969 15.276 9.14062 16.0781C7.98437 16.8802 7.14583 17.9375 6.625 19.25H19.375C18.8542 17.9375 18.0156 16.8802 16.8594 16.0781C15.7031 15.276 14.4167 14.875 13 14.875ZM7.75 13L9.125 11.6875L10.4375 13L11.75 11.6875L10.4375 10.375L11.75 9L10.4375 7.6875L9.125 9L7.75 7.6875L6.4375 9L7.75 10.375L6.4375 11.6875L7.75 13ZM15.5625 13L16.875 11.6875L18.25 13L19.5625 11.6875L18.25 10.375L19.5625 9L18.25 7.6875L16.875 9L15.5625 7.6875L14.25 9L15.5625 10.375L14.25 11.6875L15.5625 13ZM13 25.5C11.2708 25.5 9.64583 25.1719 8.125 24.5156C6.60417 23.8594 5.28125 22.9688 4.15625 21.8438C3.03125 20.7188 2.14063 19.3958 1.48438 17.875C0.828125 16.3542 0.5 14.7292 0.5 13C0.5 11.2708 0.828125 9.64583 1.48438 8.125C2.14063 6.60417 3.03125 5.28125 4.15625 4.15625C5.28125 3.03125 6.60417 2.14063 8.125 1.48438C9.64583 0.828125 11.2708 0.5 13 0.5C14.7292 0.5 16.3542 0.828125 17.875 1.48438C19.3958 2.14063 20.7188 3.03125 21.8438 4.15625C22.9688 5.28125 23.8594 6.60417 24.5156 8.125C25.1719 9.64583 25.5 11.2708 25.5 13C25.5 14.7292 25.1719 16.3542 24.5156 17.875C23.8594 19.3958 22.9688 20.7188 21.8438 21.8438C20.7188 22.9688 19.3958 23.8594 17.875 24.5156C16.3542 25.1719 14.7292 25.5 13 25.5ZM13 23C15.7917 23 18.1563 22.0313 20.0938 20.0938C22.0313 18.1563 23 15.7917 23 13C23 10.2083 22.0313 7.84375 20.0938 5.90625C18.1563 3.96875 15.7917 3 13 3C10.2083 3 7.84375 3.96875 5.90625 5.90625C3.96875 7.84375 3 10.2083 3 13C3 15.7917 3.96875 18.1563 5.90625 20.0938C7.84375 22.0313 10.2083 23 13 23Z" fill="#3F5DBA"/>
</svg>