<svg width="26" height="26" viewBox="0 0 26 26" fill="none" xmlns="http://www.w3.org/2000/svg">
<path d="M8 13V15.5C8 16.875 8.48958 18.0521 9.46875 19.0312C10.4479 20.0104 11.625 20.5 13 20.5C14.375 20.5 15.5521 20.0104 16.5312 19.0312C17.5104 18.0521 18 16.875 18 15.5V13H8ZM13 18.625C12.125 18.625 11.3854 18.3229 10.7812 17.7188C10.1771 17.1146 9.875 16.375 9.875 15.5V14.875H16.125V15.5C16.125 16.375 15.8229 17.1146 15.2188 17.7188C14.6146 18.3229 13.875 18.625 13 18.625ZM8.625 6.75C7.83333 6.75 7.13021 7.03646 6.51562 7.60938C5.90104 8.18229 5.46875 8.96875 5.21875 9.96875L7.03125 10.4062C7.15625 9.86458 7.36458 9.43229 7.65625 9.10938C7.94792 8.78646 8.27083 8.625 8.625 8.625C8.97917 8.625 9.30208 8.78646 9.59375 9.10938C9.88542 9.43229 10.0938 9.86458 10.2188 10.4062L12.0312 9.96875C11.7812 8.96875 11.349 8.18229 10.7344 7.60938C10.1198 7.03646 9.41667 6.75 8.625 6.75ZM17.375 6.75C16.5833 6.75 15.8802 7.03646 15.2656 7.60938C14.651 8.18229 14.2188 8.96875 13.9688 9.96875L15.7812 10.4062C15.9063 9.86458 16.1146 9.43229 16.4062 9.10938C16.6979 8.78646 17.0208 8.625 17.375 8.625C17.7292 8.625 18.0521 8.78646 18.3438 9.10938C18.6354 9.43229 18.8438 9.86458 18.9688 10.4062L20.7812 9.96875C20.5312 8.96875 20.099 8.18229 19.4844 7.60938C18.8698 7.03646 18.1667 6.75 17.375 6.75ZM13 25.5C11.2708 25.5 9.64583 25.1719 8.125 24.5156C6.60417 23.8594 5.28125 22.9688 4.15625 21.8438C3.03125 20.7188 2.14063 19.3958 1.48438 17.875C0.828125 16.3542 0.5 14.7292 0.5 13C0.5 11.2708 0.828125 9.64583 1.48438 8.125C2.14063 6.60417 3.03125 5.28125 4.15625 4.15625C5.28125 3.03125 6.60417 2.14063 8.125 1.48438C9.64583 0.828125 11.2708 0.5 13 0.5C14.7292 0.5 16.3542 0.828125 17.875 1.48438C19.3958 2.14063 20.7188 3.03125 21.8438 4.15625C22.9688 5.28125 23.8594 6.60417 24.5156 8.125C25.1719 9.64583 25.5 11.2708 25.5 13C25.5 14.7292 25.1719 16.3542 24.5156 17.875C23.8594 19.3958 22.9688 20.7188 21.8438 21.8438C20.7188 22.9688 19.3958 23.8594 17.875 24.5156C16.3542 25.1719 14.7292 25.5 13 25.5ZM13 23C15.7917 23 18.1562 22.0312 20.0938 20.0938C22.0312 18.1562 23 15.7917 23 13C23 10.2083 22.0312 7.84375 20.0938 5.90625C18.1562 3.96875 15.7917 3 13 3C10.2083 3 7.84375 3.96875 5.90625 5.90625C3.96875 7.84375 3 10.2083 3 13C3 15.7917 3.96875 18.1562 5.90625 20.0938C7.84375 22.0312 10.2083 23 13 23Z" fill="#3551AB"/>
</svg>