<svg width="40" height="40" viewBox="0 0 40 40" fill="none" xmlns="http://www.w3.org/2000/svg">
<path d="M20 23C17.7333 23 15.675 23.6417 13.825 24.925C11.975 26.2083 10.6333 27.9 9.8 30H30.2C29.3667 27.9 28.025 26.2083 26.175 24.925C24.325 23.6417 22.2667 23 20 23ZM11.6 20L13.8 17.9L15.9 20L18 17.9L15.9 15.8L18 13.6L15.9 11.5L13.8 13.6L11.6 11.5L9.5 13.6L11.6 15.8L9.5 17.9L11.6 20ZM24.1 20L26.2 17.9L28.4 20L30.5 17.9L28.4 15.8L30.5 13.6L28.4 11.5L26.2 13.6L24.1 11.5L22 13.6L24.1 15.8L22 17.9L24.1 20ZM20 40C17.2333 40 14.6333 39.475 12.2 38.425C9.76667 37.375 7.65 35.95 5.85 34.15C4.05 32.35 2.625 30.2333 1.575 27.8C0.525 25.3667 0 22.7667 0 20C0 17.2333 0.525 14.6333 1.575 12.2C2.625 9.76667 4.05 7.65 5.85 5.85C7.65 4.05 9.76667 2.625 12.2 1.575C14.6333 0.525 17.2333 0 20 0C22.7667 0 25.3667 0.525 27.8 1.575C30.2333 2.625 32.35 4.05 34.15 5.85C35.95 7.65 37.375 9.76667 38.425 12.2C39.475 14.6333 40 17.2333 40 20C40 22.7667 39.475 25.3667 38.425 27.8C37.375 30.2333 35.95 32.35 34.15 34.15C32.35 35.95 30.2333 37.375 27.8 38.425C25.3667 39.475 22.7667 40 20 40ZM20 36C24.4667 36 28.25 34.45 31.35 31.35C34.45 28.25 36 24.4667 36 20C36 15.5333 34.45 11.75 31.35 8.65C28.25 5.55 24.4667 4 20 4C15.5333 4 11.75 5.55 8.65 8.65C5.55 11.75 4 15.5333 4 20C4 24.4667 5.55 28.25 8.65 31.35C11.75 34.45 15.5333 36 20 36Z" fill="#3F5DBA"/>
</svg>