<svg width="40" height="40" viewBox="0 0 40 40" fill="none" xmlns="http://www.w3.org/2000/svg">
<path d="M12 20V24C12 26.2 12.7833 28.0833 14.35 29.65C15.9167 31.2167 17.8 32 20 32C22.2 32 24.0833 31.2167 25.65 29.65C27.2167 28.0833 28 26.2 28 24V20H12ZM20 29C18.6 29 17.4167 28.5167 16.45 27.55C15.4833 26.5833 15 25.4 15 24V23H25V24C25 25.4 24.5167 26.5833 23.55 27.55C22.5833 28.5167 21.4 29 20 29ZM13 10C11.7333 10 10.6083 10.4583 9.625 11.375C8.64167 12.2917 7.95 13.55 7.55 15.15L10.45 15.85C10.65 14.9833 10.9833 14.2917 11.45 13.775C11.9167 13.2583 12.4333 13 13 13C13.5667 13 14.0833 13.2583 14.55 13.775C15.0167 14.2917 15.35 14.9833 15.55 15.85L18.45 15.15C18.05 13.55 17.3583 12.2917 16.375 11.375C15.3917 10.4583 14.2667 10 13 10ZM27 10C25.7333 10 24.6083 10.4583 23.625 11.375C22.6417 12.2917 21.95 13.55 21.55 15.15L24.45 15.85C24.65 14.9833 24.9833 14.2917 25.45 13.775C25.9167 13.2583 26.4333 13 27 13C27.5667 13 28.0833 13.2583 28.55 13.775C29.0167 14.2917 29.35 14.9833 29.55 15.85L32.45 15.15C32.05 13.55 31.3583 12.2917 30.375 11.375C29.3917 10.4583 28.2667 10 27 10ZM20 40C17.2333 40 14.6333 39.475 12.2 38.425C9.76667 37.375 7.65 35.95 5.85 34.15C4.05 32.35 2.625 30.2333 1.575 27.8C0.525 25.3667 0 22.7667 0 20C0 17.2333 0.525 14.6333 1.575 12.2C2.625 9.76667 4.05 7.65 5.85 5.85C7.65 4.05 9.76667 2.625 12.2 1.575C14.6333 0.525 17.2333 0 20 0C22.7667 0 25.3667 0.525 27.8 1.575C30.2333 2.625 32.35 4.05 34.15 5.85C35.95 7.65 37.375 9.76667 38.425 12.2C39.475 14.6333 40 17.2333 40 20C40 22.7667 39.475 25.3667 38.425 27.8C37.375 30.2333 35.95 32.35 34.15 34.15C32.35 35.95 30.2333 37.375 27.8 38.425C25.3667 39.475 22.7667 40 20 40ZM20 36C24.4667 36 28.25 34.45 31.35 31.35C34.45 28.25 36 24.4667 36 20C36 15.5333 34.45 11.75 31.35 8.65C28.25 5.55 24.4667 4 20 4C15.5333 4 11.75 5.55 8.65 8.65C5.55 11.75 4 15.5333 4 20C4 24.4667 5.55 28.25 8.65 31.35C11.75 34.45 15.5333 36 20 36Z" fill="#3551AB"/>
</svg>