<svg width="21" height="20" viewBox="0 0 21 20" fill="none" xmlns="http://www.w3.org/2000/svg">
<path d="M13.992 1.66669H7.00866C3.97533 1.66669 2.16699 3.47502 2.16699 6.50835V13.4917C2.16699 16.525 3.97533 18.3334 7.00866 18.3334H13.992C17.0253 18.3334 18.8337 16.525 18.8337 13.4917V6.50835C18.8337 3.47502 17.0253 1.66669 13.992 1.66669ZM8.80866 12.4167L6.93366 14.2917C6.80866 14.4167 6.65033 14.475 6.49199 14.475C6.33366 14.475 6.16699 14.4167 6.05033 14.2917L5.42533 13.6667C5.17533 13.425 5.17533 13.025 5.42533 12.7834C5.66699 12.5417 6.05866 12.5417 6.30866 12.7834L6.49199 12.9667L7.92533 11.5334C8.16699 11.2917 8.55866 11.2917 8.80866 11.5334C9.05033 11.775 9.05033 12.175 8.80866 12.4167ZM8.80866 6.58335L6.93366 8.45835C6.80866 8.58335 6.65033 8.64169 6.49199 8.64169C6.33366 8.64169 6.16699 8.58335 6.05033 8.45835L5.42533 7.83335C5.17533 7.59169 5.17533 7.19169 5.42533 6.95002C5.66699 6.70835 6.05866 6.70835 6.30866 6.95002L6.49199 7.13335L7.92533 5.70002C8.16699 5.45835 8.55866 5.45835 8.80866 5.70002C9.05033 5.94169 9.05033 6.34169 8.80866 6.58335ZM15.1337 13.85H10.7587C10.417 13.85 10.1337 13.5667 10.1337 13.225C10.1337 12.8834 10.417 12.6 10.7587 12.6H15.1337C15.4837 12.6 15.7587 12.8834 15.7587 13.225C15.7587 13.5667 15.4837 13.85 15.1337 13.85ZM15.1337 8.01669H10.7587C10.417 8.01669 10.1337 7.73335 10.1337 7.39169C10.1337 7.05002 10.417 6.76669 10.7587 6.76669H15.1337C15.4837 6.76669 15.7587 7.05002 15.7587 7.39169C15.7587 7.73335 15.4837 8.01669 15.1337 8.01669Z" fill="#3F5DBA"/>
</svg>
