<svg width="16" height="16" viewBox="0 0 16 16" fill="none" xmlns="http://www.w3.org/2000/svg">
<path d="M10.793 1.33331H5.20634C2.77967 1.33331 1.33301 2.77998 1.33301 5.20665V10.7933C1.33301 13.22 2.77967 14.6666 5.20634 14.6666H10.793C13.2197 14.6666 14.6663 13.22 14.6663 10.7933V5.20665C14.6663 2.77998 13.2197 1.33331 10.793 1.33331ZM6.64634 9.93331L5.14634 11.4333C5.04634 11.5333 4.91967 11.58 4.79301 11.58C4.66634 11.58 4.53301 11.5333 4.43967 11.4333L3.93967 10.9333C3.73967 10.74 3.73967 10.42 3.93967 10.2266C4.13301 10.0333 4.44634 10.0333 4.64634 10.2266L4.79301 10.3733L5.93967 9.22665C6.13301 9.03331 6.44634 9.03331 6.64634 9.22665C6.83967 9.41998 6.83967 9.73998 6.64634 9.93331ZM6.64634 5.26665L5.14634 6.76665C5.04634 6.86665 4.91967 6.91331 4.79301 6.91331C4.66634 6.91331 4.53301 6.86665 4.43967 6.76665L3.93967 6.26665C3.73967 6.07331 3.73967 5.75331 3.93967 5.55998C4.13301 5.36665 4.44634 5.36665 4.64634 5.55998L4.79301 5.70665L5.93967 4.55998C6.13301 4.36665 6.44634 4.36665 6.64634 4.55998C6.83967 4.75331 6.83967 5.07331 6.64634 5.26665ZM11.7063 11.08H8.20634C7.93301 11.08 7.70634 10.8533 7.70634 10.58C7.70634 10.3066 7.93301 10.08 8.20634 10.08H11.7063C11.9863 10.08 12.2063 10.3066 12.2063 10.58C12.2063 10.8533 11.9863 11.08 11.7063 11.08ZM11.7063 6.41331H8.20634C7.93301 6.41331 7.70634 6.18665 7.70634 5.91331C7.70634 5.63998 7.93301 5.41331 8.20634 5.41331H11.7063C11.9863 5.41331 12.2063 5.63998 12.2063 5.91331C12.2063 6.18665 11.9863 6.41331 11.7063 6.41331Z" fill="#061543"/>
</svg>
