<svg width="19" height="18" viewBox="0 0 19 18" fill="none" xmlns="http://www.w3.org/2000/svg">
<path d="M12.6425 1.5H6.3575C3.6275 1.5 2 3.1275 2 5.8575V12.1425C2 14.8725 3.6275 16.5 6.3575 16.5H12.6425C15.3725 16.5 17 14.8725 17 12.1425V5.8575C17 3.1275 15.3725 1.5 12.6425 1.5ZM7.9775 11.175L6.29 12.8625C6.1775 12.975 6.035 13.0275 5.8925 13.0275C5.75 13.0275 5.6 12.975 5.495 12.8625L4.9325 12.3C4.7075 12.0825 4.7075 11.7225 4.9325 11.505C5.15 11.2875 5.5025 11.2875 5.7275 11.505L5.8925 11.67L7.1825 10.38C7.4 10.1625 7.7525 10.1625 7.9775 10.38C8.195 10.5975 8.195 10.9575 7.9775 11.175ZM7.9775 5.925L6.29 7.6125C6.1775 7.725 6.035 7.7775 5.8925 7.7775C5.75 7.7775 5.6 7.725 5.495 7.6125L4.9325 7.05C4.7075 6.8325 4.7075 6.4725 4.9325 6.255C5.15 6.0375 5.5025 6.0375 5.7275 6.255L5.8925 6.42L7.1825 5.13C7.4 4.9125 7.7525 4.9125 7.9775 5.13C8.195 5.3475 8.195 5.7075 7.9775 5.925ZM13.67 12.465H9.7325C9.425 12.465 9.17 12.21 9.17 11.9025C9.17 11.595 9.425 11.34 9.7325 11.34H13.67C13.985 11.34 14.2325 11.595 14.2325 11.9025C14.2325 12.21 13.985 12.465 13.67 12.465ZM13.67 7.215H9.7325C9.425 7.215 9.17 6.96 9.17 6.6525C9.17 6.345 9.425 6.09 9.7325 6.09H13.67C13.985 6.09 14.2325 6.345 14.2325 6.6525C14.2325 6.96 13.985 7.215 13.67 7.215Z" fill="#3F5DBA"/>
</svg>
