<svg width="16" height="16" viewBox="0 0 16 16" fill="none" xmlns="http://www.w3.org/2000/svg">
<g clip-path="url(#clip0_2011_901)">
<path d="M10.4 16C8.24344 16 4.85213 15.287 4.01735 14.6957C3.82604 14.5565 3.7217 14.3478 3.7217 14.1217V7.32174C3.7217 7.11304 3.82604 6.90435 3.98257 6.78261C4.03474 6.74783 5.25213 5.7913 6.5217 5.07826C8.10431 4.2087 9.19996 2.9913 9.46083 2.22609C9.77387 1.28696 10.226 0 11.6521 0C12.3304 0 12.8869 0.382609 13.1826 1.04348C13.7739 2.4 13.1478 4.27826 12.1043 5.75652C12.8 5.91304 13.6695 6.13913 14.1913 6.29565C15.1478 6.5913 15.7739 7.28696 15.913 8.13913C16.0347 9.0087 15.6 9.89565 14.6782 10.5739C14 12.4 12.8347 15.287 11.9826 15.7565C11.6521 15.9304 11.0782 16 10.4 16ZM5.113 13.7043C6.43474 14.2609 10.5043 14.8348 11.2695 14.5391C11.6695 14.1739 12.6956 11.8435 13.4087 9.87826C13.4608 9.73913 13.5478 9.61739 13.6695 9.53043C14.2434 9.14783 14.5391 8.69565 14.4869 8.31304C14.4347 8 14.1565 7.73913 13.7391 7.6C12.8695 7.32174 10.713 6.85217 10.6782 6.85217C10.4347 6.8 10.2434 6.62609 10.1565 6.38261C10.0695 6.13913 10.1391 5.87826 10.313 5.70435C11.8782 4.01739 12.1565 2.29565 11.8608 1.6C11.7913 1.3913 11.7043 1.3913 11.6521 1.3913C11.3043 1.3913 11.1478 1.63478 10.7826 2.67826C10.3652 3.89565 8.9217 5.35652 7.19996 6.29565C6.36518 6.74783 5.53039 7.35652 5.113 7.66957V13.7043ZM2.36518 14.1913V7.23478C2.36518 6.6087 1.86083 6.10435 1.23474 6.10435C0.608653 6.10435 0.0869141 6.6087 0.0869141 7.23478V14.1739C0.0869141 14.8 0.591262 15.3043 1.21735 15.3043C1.84344 15.3043 2.36518 14.8 2.36518 14.1913Z" fill="#FFFCF0"/>
</g>
<defs>
<clipPath id="clip0_2011_901">
<rect width="16" height="16" fill="white"/>
</clipPath>
</defs>
</svg>
