<svg width="16" height="16" viewBox="0 0 16 16" fill="none" xmlns="http://www.w3.org/2000/svg">
<mask id="mask0_583_4703" style="mask-type:alpha" maskUnits="userSpaceOnUse" x="0" y="0" width="16" height="16">
<rect width="16" height="16" fill="#D9D9D9"/>
</mask>
<g mask="url(#mask0_583_4703)">
<path d="M6 1.99999V0.666656H10V1.99999H6ZM7.33333 9.33332H8.66667V5.33332H7.33333V9.33332ZM8 14.6667C7.17778 14.6667 6.40278 14.5083 5.675 14.1917C4.94722 13.875 4.31111 13.4444 3.76667 12.9C3.22222 12.3555 2.79167 11.7194 2.475 10.9917C2.15833 10.2639 2 9.48888 2 8.66666C2 7.84443 2.15833 7.06943 2.475 6.34166C2.79167 5.61388 3.22222 4.97777 3.76667 4.43332C4.31111 3.88888 4.94722 3.45832 5.675 3.14166C6.40278 2.82499 7.17778 2.66666 8 2.66666C8.68889 2.66666 9.35 2.77777 9.98333 2.99999C10.6167 3.22221 11.2111 3.54443 11.7667 3.96666L12.7 3.03332L13.6333 3.96666L12.7 4.89999C13.1222 5.45555 13.4444 6.04999 13.6667 6.68332C13.8889 7.31666 14 7.97777 14 8.66666C14 9.48888 13.8417 10.2639 13.525 10.9917C13.2083 11.7194 12.7778 12.3555 12.2333 12.9C11.6889 13.4444 11.0528 13.875 10.325 14.1917C9.59722 14.5083 8.82222 14.6667 8 14.6667ZM8 13.3333C9.28889 13.3333 10.3889 12.8778 11.3 11.9667C12.2111 11.0555 12.6667 9.95555 12.6667 8.66666C12.6667 7.37777 12.2111 6.27777 11.3 5.36666C10.3889 4.45555 9.28889 3.99999 8 3.99999C6.71111 3.99999 5.61111 4.45555 4.7 5.36666C3.78889 6.27777 3.33333 7.37777 3.33333 8.66666C3.33333 9.95555 3.78889 11.0555 4.7 11.9667C5.61111 12.8778 6.71111 13.3333 8 13.3333Z" fill="#6E83FF" fill-opacity="0.4"/>
</g>
</svg>
