<svg width="14" height="14" viewBox="0 0 14 14" fill="none" xmlns="http://www.w3.org/2000/svg">
<mask id="mask0_598_4269" style="mask-type:alpha" maskUnits="userSpaceOnUse" x="0" y="0" width="14" height="14">
<rect width="14" height="14" fill="#D9D9D9"/>
</mask>
<g mask="url(#mask0_598_4269)">
<path d="M5.25 1.75001V0.583344H8.75V1.75001H5.25ZM6.41667 8.16668H7.58333V4.66668H6.41667V8.16668ZM7 12.8333C6.28056 12.8333 5.60243 12.6948 4.96563 12.4177C4.32882 12.1406 3.77222 11.7639 3.29583 11.2875C2.81944 10.8111 2.44271 10.2545 2.16563 9.61772C1.88854 8.98091 1.75 8.30279 1.75 7.58334C1.75 6.8639 1.88854 6.18577 2.16563 5.54897C2.44271 4.91216 2.81944 4.35557 3.29583 3.87918C3.77222 3.40279 4.32882 3.02605 4.96563 2.74897C5.60243 2.47189 6.28056 2.33334 7 2.33334C7.60278 2.33334 8.18125 2.43057 8.73542 2.62501C9.28958 2.81945 9.80972 3.1014 10.2958 3.47084L11.1125 2.65418L11.9292 3.47084L11.1125 4.28751C11.4819 4.77362 11.7639 5.29376 11.9583 5.84793C12.1528 6.40209 12.25 6.98057 12.25 7.58334C12.25 8.30279 12.1115 8.98091 11.8344 9.61772C11.5573 10.2545 11.1806 10.8111 10.7042 11.2875C10.2278 11.7639 9.67118 12.1406 9.03437 12.4177C8.39757 12.6948 7.71944 12.8333 7 12.8333ZM7 11.6667C8.12778 11.6667 9.09028 11.2681 9.8875 10.4708C10.6847 9.67362 11.0833 8.71112 11.0833 7.58334C11.0833 6.45557 10.6847 5.49307 9.8875 4.69584C9.09028 3.89862 8.12778 3.50001 7 3.50001C5.87222 3.50001 4.90972 3.89862 4.1125 4.69584C3.31528 5.49307 2.91667 6.45557 2.91667 7.58334C2.91667 8.71112 3.31528 9.67362 4.1125 10.4708C4.90972 11.2681 5.87222 11.6667 7 11.6667Z" fill="#3551AB"/>
</g>
</svg>
