<svg width="16" height="16" viewBox="0 0 16 16" fill="none" xmlns="http://www.w3.org/2000/svg">
<mask id="mask0_583_4619" style="mask-type:alpha" maskUnits="userSpaceOnUse" x="0" y="0" width="16" height="16">
<rect width="16" height="16" fill="#D9D9D9"/>
</mask>
<g mask="url(#mask0_583_4619)">
<path d="M6 1.99996V0.666626H10V1.99996H6ZM7.33333 9.33329H8.66667V5.33329H7.33333V9.33329ZM8 14.6666C7.17778 14.6666 6.40278 14.5083 5.675 14.1916C4.94722 13.875 4.31111 13.4444 3.76667 12.9C3.22222 12.3555 2.79167 11.7194 2.475 10.9916C2.15833 10.2638 2 9.48885 2 8.66663C2 7.8444 2.15833 7.0694 2.475 6.34163C2.79167 5.61385 3.22222 4.97774 3.76667 4.43329C4.31111 3.88885 4.94722 3.45829 5.675 3.14163C6.40278 2.82496 7.17778 2.66663 8 2.66663C8.68889 2.66663 9.35 2.77774 9.98333 2.99996C10.6167 3.22218 11.2111 3.5444 11.7667 3.96663L12.7 3.03329L13.6333 3.96663L12.7 4.89996C13.1222 5.45551 13.4444 6.04996 13.6667 6.68329C13.8889 7.31663 14 7.97774 14 8.66663C14 9.48885 13.8417 10.2638 13.525 10.9916C13.2083 11.7194 12.7778 12.3555 12.2333 12.9C11.6889 13.4444 11.0528 13.875 10.325 14.1916C9.59722 14.5083 8.82222 14.6666 8 14.6666ZM8 13.3333C9.28889 13.3333 10.3889 12.8777 11.3 11.9666C12.2111 11.0555 12.6667 9.95551 12.6667 8.66663C12.6667 7.37774 12.2111 6.27774 11.3 5.36663C10.3889 4.45552 9.28889 3.99996 8 3.99996C6.71111 3.99996 5.61111 4.45552 4.7 5.36663C3.78889 6.27774 3.33333 7.37774 3.33333 8.66663C3.33333 9.95551 3.78889 11.0555 4.7 11.9666C5.61111 12.8777 6.71111 13.3333 8 13.3333Z" fill="#F9A455"/>
</g>
</svg>
