<svg width="12" height="12" viewBox="0 0 12 12" fill="none" xmlns="http://www.w3.org/2000/svg">
<mask id="mask0_592_1718" style="mask-type:alpha" maskUnits="userSpaceOnUse" x="0" y="0" width="12" height="12">
<rect width="12" height="12" fill="#D9D9D9"/>
</mask>
<g mask="url(#mask0_592_1718)">
<path d="M4.5 1.50006V0.500061H7.5V1.50006H4.5ZM5.5 7.00006H6.5V4.00006H5.5V7.00006ZM6 11.0001C5.38333 11.0001 4.80208 10.8813 4.25625 10.6438C3.71042 10.4063 3.23333 10.0834 2.825 9.67506C2.41667 9.26673 2.09375 8.78964 1.85625 8.24381C1.61875 7.69798 1.5 7.11673 1.5 6.50006C1.5 5.88339 1.61875 5.30214 1.85625 4.75631C2.09375 4.21048 2.41667 3.73339 2.825 3.32506C3.23333 2.91673 3.71042 2.59381 4.25625 2.35631C4.80208 2.11881 5.38333 2.00006 6 2.00006C6.51667 2.00006 7.0125 2.08339 7.4875 2.25006C7.9625 2.41673 8.40833 2.65839 8.825 2.97506L9.525 2.27506L10.225 2.97506L9.525 3.67506C9.84167 4.09173 10.0833 4.53756 10.25 5.01256C10.4167 5.48756 10.5 5.98339 10.5 6.50006C10.5 7.11673 10.3813 7.69798 10.1438 8.24381C9.90625 8.78964 9.58333 9.26673 9.175 9.67506C8.76667 10.0834 8.28958 10.4063 7.74375 10.6438C7.19792 10.8813 6.61667 11.0001 6 11.0001ZM6 10.0001C6.96667 10.0001 7.79167 9.65839 8.475 8.97506C9.15833 8.29173 9.5 7.46673 9.5 6.50006C9.5 5.53339 9.15833 4.70839 8.475 4.02506C7.79167 3.34173 6.96667 3.00006 6 3.00006C5.03333 3.00006 4.20833 3.34173 3.525 4.02506C2.84167 4.70839 2.5 5.53339 2.5 6.50006C2.5 7.46673 2.84167 8.29173 3.525 8.97506C4.20833 9.65839 5.03333 10.0001 6 10.0001Z" fill="#F9A455"/>
</g>
</svg>
