<svg width="118" height="32" viewBox="0 0 118 32" fill="none" xmlns="http://www.w3.org/2000/svg">
<g clip-path="url(#clip0_445_349)">
<path d="M32.2998 21.7641C29.0137 21.7641 26.8383 19.2748 26.2314 18.3105C27.01 12.2107 29.2886 10.282 32.2998 10.282C35.2768 10.282 37.5897 12.6143 37.5897 16.023C37.5897 19.4317 35.2768 21.7641 32.2998 21.7641ZM32.2998 6.53693C26.9414 6.53693 23.9415 9.95687 23.0828 13.4777C22.1095 11.6836 21.3882 9.2841 20.8272 7.05272H13.4191V16.0791C13.4191 19.3533 11.8963 21.7753 8.91937 21.7753C5.94243 21.7753 4.23642 19.3533 4.23642 16.0791L4.27076 7.05272H0V16.0791C0 18.7142 0.870183 21.1025 2.4617 22.8068C4.09903 24.5673 6.33172 25.4867 8.91937 25.4867C14.0718 25.4867 17.6671 21.6183 17.6671 16.0791V10.0129C18.2051 12.0088 19.4876 15.8436 21.9377 19.2076L19.6479 31.979H23.9873L25.4986 22.9302C25.991 23.3338 26.5177 23.6926 27.0787 24.0179C28.5328 24.9149 30.193 25.4195 31.9105 25.4755C31.9105 25.4755 32.1738 25.4867 32.3113 25.4867C37.624 25.4867 41.8489 21.4614 41.8489 16.023C41.8489 10.5848 37.6125 6.53693 32.2998 6.53693Z" fill="#FFFCF0"/>
<path d="M93.6593 8.98187V7.05326H89.4688V24.9154H93.7166V17.9186C93.7166 13.6128 94.1173 10.518 100.014 10.9217V6.84021C97.266 6.63838 95.1249 7.19902 93.6593 8.98187Z" fill="#FFFCF0"/>
<path d="M64.166 7.05396L61.086 19.5451L57.7999 7.05396H52.3956L49.098 19.5451L46.0295 7.05396H41.7244L46.4417 24.9274H51.5484L55.0977 12.2343L58.6128 24.9274H63.7194L68.7116 7.05396H64.166Z" fill="#FFFCF0"/>
<path d="M78.066 21.7753C75.0433 21.7753 72.7763 19.4431 72.7763 16.023C72.7763 12.6031 75.0548 10.282 78.066 10.282C81.0431 10.282 83.3559 12.6143 83.3559 16.023C83.3559 19.4317 81.0431 21.7753 78.066 21.7753ZM78.066 6.53693C72.719 6.53693 68.5284 10.596 68.5284 16.023C68.5284 21.45 72.719 25.4755 78.066 25.4755C83.3788 25.4755 87.6038 21.45 87.6038 16.023C87.6038 10.596 83.3903 6.53693 78.066 6.53693Z" fill="#FFFCF0"/>
<path d="M106.106 16.1354H107.091L113.022 24.9263H117.819L110.995 15.1823C114.304 13.9152 116.525 10.6074 116.525 7.05292H112.289C112.289 10.9102 109.186 12.3678 106.106 12.3678V0H101.847V24.9263H106.094L106.106 16.1354Z" fill="#FFFCF0"/>
</g>
<defs>
<clipPath id="clip0_445_349">
<rect width="117.818" height="32" fill="white"/>
</clipPath>
</defs>
</svg>
