<svg width="24" height="23" viewBox="0 0 24 23" fill="none" xmlns="http://www.w3.org/2000/svg">
<g clip-path="url(#clip0_594_1812)">
<path d="M16.3893 13.8265C16.3893 11.5 14.9931 10.7022 12.2007 10.3687C10.2062 10.1023 9.80727 9.57092 9.80727 8.64066C9.80727 7.7104 10.4726 7.11204 11.8018 7.11204C12.9985 7.11204 13.6639 7.51095 13.9958 8.50822C14.0628 8.70768 14.2623 8.84011 14.4617 8.84011H15.526C15.7925 8.84011 15.992 8.64066 15.992 8.37419V8.30717C15.7255 6.84397 14.5288 5.71426 13.0001 5.58182V3.98618C13.0001 3.71971 12.8007 3.52026 12.4688 3.45483H11.4715C11.205 3.45483 11.0056 3.65429 10.9402 3.98618V5.5148C8.94562 5.78128 7.68188 7.11044 7.68188 8.7731C7.68188 10.9671 9.01104 11.8319 11.8034 12.1638C13.6655 12.4957 14.2639 12.8946 14.2639 13.9589C14.2639 15.0232 13.3336 15.754 12.0699 15.754C10.3418 15.754 9.74344 15.0232 9.54399 14.0259C9.47697 13.7595 9.27752 13.627 9.07806 13.627H7.94835C7.68188 13.627 7.48242 13.8265 7.48242 14.093V14.16C7.74889 15.8226 8.81159 17.0194 11.0056 17.3512V18.9469C11.0056 19.2134 11.205 19.4128 11.5369 19.4782H12.5342C12.8007 19.4782 13.0001 19.2788 13.0656 18.9469V17.3512C15.0601 17.0178 16.3893 15.6216 16.3893 13.8265Z" fill="#FFFCF0"/>
<path d="M8.61043 20.8074C3.42461 18.9453 0.764676 13.1611 2.6938 8.04227C3.69108 5.2499 5.88508 3.12292 8.61043 2.12564C8.8769 1.99321 9.00934 1.79375 9.00934 1.46026V0.530005C9.00934 0.263533 8.8769 0.0640784 8.61043 -0.00134277C8.54341 -0.00134277 8.41098 -0.00134277 8.34396 0.065674C2.02842 2.06022 -1.42933 8.77467 0.565221 15.0918C1.76195 18.8144 4.62134 21.6738 8.34396 22.8705C8.61043 23.003 8.87531 22.8705 8.94232 22.6041C9.00934 22.5371 9.00934 22.4716 9.00934 22.3376V21.4073C9.00934 21.2063 8.80989 20.9414 8.61043 20.8074ZM15.6584 0.0640784C15.3919 -0.0683596 15.127 0.0640784 15.06 0.33055C14.993 0.397567 14.993 0.462988 14.993 0.597022V1.52728C14.993 1.79375 15.1924 2.05863 15.3919 2.19266C20.5777 4.05477 23.2377 9.83896 21.3085 14.9578C20.3113 17.7501 18.1172 19.8771 15.3919 20.8744C15.1254 21.0068 14.993 21.2063 14.993 21.5398V22.47C14.993 22.7365 15.1254 22.936 15.3919 23.0014C15.4589 23.0014 15.5914 23.0014 15.6584 22.9344C21.9739 20.9398 25.4317 14.2254 23.4371 7.90824C22.2404 4.12019 19.314 1.26081 15.6584 0.0640784Z" fill="#FFFCF0"/>
</g>
<defs>
<clipPath id="clip0_594_1812">
<rect width="24" height="23.0027" fill="white" transform="translate(0 -0.00134277)"/>
</clipPath>
</defs>
</svg>
