<svg width="30" height="22" viewBox="0 0 30 22" fill="none" xmlns="http://www.w3.org/2000/svg">
<path d="M19.7943 15.0067C18.343 14.9116 17.2019 13.711 17.2019 12.2434C17.2019 12.1944 17.2029 12.1454 17.2058 12.0964V12.1031C17.2029 12.057 17.201 12.0032 17.201 11.9485C17.201 10.4837 18.3439 9.28697 19.7866 9.19956H19.7943C21.2437 9.27832 22.3886 10.4722 22.3886 11.9341C22.3886 11.9936 22.3866 12.0522 22.3828 12.1108V12.1031C22.3857 12.1511 22.3876 12.2078 22.3876 12.2645C22.3876 13.7273 21.2437 14.9231 19.801 15.0057H19.7933L19.7943 15.0067ZM10.2221 15.0067C8.77076 14.9116 7.62969 13.711 7.62969 12.2434C7.62969 12.1944 7.63066 12.1454 7.63354 12.0964V12.1031C7.63066 12.057 7.62873 12.0032 7.62873 11.9485C7.62873 10.4837 8.77172 9.28697 10.2144 9.19956H10.2221C11.6714 9.27832 12.8163 10.4722 12.8163 11.9341C12.8163 11.9936 12.8144 12.0522 12.8106 12.1108V12.1031C12.8135 12.1492 12.8154 12.203 12.8154 12.2578C12.8154 13.7225 11.6724 14.9193 10.2297 15.0067H10.2221ZM24.9819 1.8499C23.2885 1.05078 21.3215 0.418773 19.2622 0.0528267L19.1191 0.0316961C19.1143 0.0307356 19.1085 0.0297753 19.1027 0.0297753C19.0691 0.0297753 19.0403 0.0480245 19.0249 0.0749182C18.8002 0.469679 18.5562 0.96241 18.3363 1.46763L18.295 1.57424C17.3057 1.41576 16.1646 1.32547 15.0024 1.32547C13.8402 1.32547 12.6992 1.41576 11.5859 1.58961L11.7099 1.57328C11.4505 0.968173 11.2027 0.476403 10.929 0L10.9684 0.0739578C10.952 0.0461036 10.9223 0.0288144 10.8886 0.0288144C10.8838 0.0288144 10.8781 0.0288148 10.8733 0.0297753C8.67087 0.416852 6.70378 1.04789 4.86541 1.90945L5.01044 1.84798C4.99411 1.8547 4.98067 1.86623 4.97202 1.88064C2.23079 5.76197 0.590271 10.5913 0.590271 15.8039C0.590271 16.675 0.636374 17.5347 0.7257 18.3818L0.717056 18.2762C0.719937 18.304 0.734344 18.3271 0.754515 18.3434C2.80996 19.8812 5.19966 21.1202 7.77857 21.9337L7.94762 21.9798C7.9553 21.9827 7.96491 21.9837 7.97451 21.9837C8.00525 21.9837 8.03214 21.9693 8.04847 21.9472C8.56233 21.2556 9.05122 20.4719 9.47479 19.6497L9.51994 19.5536C9.5257 19.5421 9.52954 19.5277 9.52954 19.5123C9.52954 19.473 9.50457 19.4403 9.46999 19.4268H9.46903C8.59306 19.0888 7.85253 18.7286 7.14753 18.3156L7.22149 18.3559C7.19363 18.3396 7.17538 18.3098 7.17538 18.2762C7.17538 18.2464 7.18979 18.2195 7.21188 18.2032C7.36268 18.0898 7.51444 17.9727 7.65851 17.8536C7.67388 17.8411 7.69405 17.8334 7.71518 17.8334C7.72863 17.8334 7.74111 17.8363 7.75168 17.8411H7.75072C9.87148 18.8602 12.3611 19.4557 14.989 19.4557C17.6169 19.4557 20.1074 18.8602 22.33 17.7969L22.2272 17.8411C22.2387 17.8353 22.2512 17.8324 22.2656 17.8324C22.2868 17.8324 22.3069 17.8401 22.3223 17.8526C22.4664 17.9717 22.6172 18.0908 22.7699 18.2032C22.792 18.2205 22.8064 18.2474 22.8064 18.2771C22.8064 18.3108 22.7881 18.3396 22.7622 18.3559C22.1273 18.7353 21.3868 19.0945 20.6155 19.3913L20.5147 19.4259C20.4801 19.4393 20.4551 19.473 20.4551 19.5114C20.4551 19.5267 20.4589 19.5411 20.4657 19.5536C20.9469 20.4757 21.4348 21.2575 21.9746 22L21.9362 21.9453C21.9525 21.9683 21.9804 21.9837 22.0101 21.9837C22.0197 21.9837 22.0293 21.9818 22.038 21.9798C24.7898 21.1231 27.1833 19.884 29.3041 18.2992L29.2417 18.3444C29.2628 18.329 29.2762 18.305 29.2791 18.2781C29.3627 17.5251 29.4097 16.651 29.4097 15.7664C29.4097 10.5654 27.7654 5.74853 24.9694 1.80668L25.0193 1.8816C25.0117 1.86623 24.9982 1.85374 24.9828 1.84702L24.9819 1.8499Z" fill="#D6EA5E"/>
</svg>
