<svg width="16" height="16" viewBox="0 0 16 16" fill="none" xmlns="http://www.w3.org/2000/svg">
<path d="M11.5074 0.341138L3.85699 2.88281C-1.28566 4.60268 -1.28566 7.40702 3.85699 9.11841L6.12755 9.87244L6.88155 12.143C8.59294 17.2857 11.4057 17.2857 13.1171 12.143L15.6673 4.50101C16.8025 1.06975 14.9387 -0.802615 11.5074 0.341138ZM11.7785 4.89921L8.55905 8.13563C8.43197 8.26271 8.27099 8.32202 8.11002 8.32202C7.94905 8.32202 7.78808 8.26271 7.66099 8.13563C7.4153 7.88993 7.4153 7.48327 7.66099 7.23757L10.8804 4.00115C11.1261 3.75545 11.5328 3.75545 11.7785 4.00115C12.0242 4.24684 12.0242 4.65351 11.7785 4.89921Z" fill="#FFFCF0"/>
</svg>
