<svg width="18" height="18" viewBox="0 0 18 18" fill="none" xmlns="http://www.w3.org/2000/svg">
<g clip-path="url(#clip0_2840_2242)">
<mask id="mask0_2840_2242" style="mask-type:luminance" maskUnits="userSpaceOnUse" x="0" y="0" width="18" height="18">
<path d="M18 0H0V18H18V0Z" fill="white"/>
</mask>
<g mask="url(#mask0_2840_2242)">
<path d="M9 17.25C13.575 17.25 17.25 13.575 17.25 9C17.25 4.425 13.575 0.75 9 0.75C4.425 0.75 0.75 4.425 0.75 9C0.75 13.575 4.425 17.25 9 17.25Z" fill="#3F5DBA"/>
<path d="M11.2504 10.275C11.2504 9.075 10.5004 8.625 9.07539 8.475C8.02539 8.325 7.80039 8.025 7.80039 7.575C7.80039 7.125 8.17539 6.75 8.85039 6.75C9.52539 6.75 9.82539 6.975 9.97539 7.5C9.97539 7.575 10.1254 7.65 10.2004 7.65H10.7254C10.8754 7.65 10.9504 7.575 10.9504 7.425C10.8004 6.6 10.2004 6.075 9.37539 6V5.175C9.37539 5.025 9.30039 4.95 9.07539 4.875H8.55039C8.40039 4.875 8.32539 4.95 8.25039 5.175V6C7.20039 6.15 6.60039 6.825 6.60039 7.65C6.60039 8.475 7.27539 9.225 8.70039 9.375C9.67539 9.525 9.97539 9.75 9.97539 10.275C9.97539 10.8 9.52539 11.175 8.85039 11.175C8.17539 11.175 7.65039 10.8 7.57539 10.275C7.57539 10.125 7.42539 10.05 7.35039 10.05H6.75039C6.60039 10.05 6.52539 10.125 6.52539 10.275C6.67539 11.175 7.20039 11.775 8.32539 11.925V12.75C8.32539 12.9 8.40039 12.975 8.62539 13.05H9.15039C9.30039 13.05 9.37539 12.975 9.45039 12.75V11.925C10.5004 11.775 11.1754 11.025 11.1754 10.125L11.2504 10.275Z" fill="#FFFCF0"/>
<path d="M7.2748 13.95C4.5748 12.975 3.2248 9.975 4.1998 7.35C4.7248 5.925 5.8498 4.8 7.2748 4.275C7.4248 4.275 7.4998 4.125 7.4998 3.9V3.45C7.4998 3.3 7.4998 3.225 7.2748 3.15C7.2748 3.15 7.1998 3.15 7.1248 3.15C3.8248 4.2 2.0998 7.65 3.0748 10.95C3.6748 12.9 5.1748 14.325 7.1248 15C7.2748 15 7.4248 15 7.4248 14.85C7.4248 14.85 7.4248 14.85 7.4248 14.7V14.25C7.4248 14.175 7.3498 14.025 7.1998 13.95H7.2748ZM10.8748 3.225C10.7248 3.225 10.5748 3.225 10.5748 3.375C10.5748 3.375 10.5748 3.375 10.5748 3.525V3.975C10.5748 4.125 10.6498 4.275 10.7998 4.35C13.4998 5.325 14.8498 8.325 13.8748 10.95C13.3498 12.375 12.2248 13.5 10.7998 14.025C10.6498 14.025 10.5748 14.175 10.5748 14.4V14.85C10.5748 15 10.5748 15.075 10.7998 15.15C10.7998 15.15 10.8748 15.15 10.9498 15.15C14.2498 14.1 15.9748 10.65 14.9998 7.35C14.3998 5.4 12.8998 3.9 10.9498 3.3L10.8748 3.225Z" fill="#FFFCF0"/>
</g>
</g>
<defs>
<clipPath id="clip0_2840_2242">
<rect width="18" height="18" fill="white"/>
</clipPath>
</defs>
</svg>
