<svg width="32" height="33" viewBox="0 0 32 33" fill="none" xmlns="http://www.w3.org/2000/svg">
<mask id="mask0_3343_1451" style="mask-type:alpha" maskUnits="userSpaceOnUse" x="0" y="0" width="32" height="33">
<rect y="0.5" width="32" height="32" fill="#D9D9D9"/>
</mask>
<g mask="url(#mask0_3343_1451)">
<path d="M5.33268 28.5C4.59935 28.5 3.97157 28.2389 3.44935 27.7167C2.92713 27.1944 2.66602 26.5667 2.66602 25.8333V7.16667C2.66602 6.43333 2.92713 5.80556 3.44935 5.28333C3.97157 4.76111 4.59935 4.5 5.33268 4.5H26.666C27.3993 4.5 28.0271 4.76111 28.5494 5.28333C29.0716 5.80556 29.3327 6.43333 29.3327 7.16667V25.8333C29.3327 26.5667 29.0716 27.1944 28.5494 27.7167C28.0271 28.2389 27.3993 28.5 26.666 28.5H5.33268ZM5.33268 25.8333H26.666V7.16667H5.33268V25.8333ZM6.66602 23.1667H13.3327V20.5H6.66602V23.1667ZM19.3993 20.5L25.9993 13.9L24.0993 12L19.3993 16.7333L17.4993 14.8333L15.6327 16.7333L19.3993 20.5ZM6.66602 17.8333H13.3327V15.1667H6.66602V17.8333ZM6.66602 12.5H13.3327V9.83333H6.66602V12.5Z" fill="#3F5DBA"/>
</g>
</svg>
