<svg width="20" height="20" viewBox="0 0 20 20" fill="none" xmlns="http://www.w3.org/2000/svg">
<mask id="mask0_2856_6508" style="mask-type:alpha" maskUnits="userSpaceOnUse" x="0" y="0" width="20" height="20">
<rect width="20" height="20" fill="#D9D9D9"/>
</mask>
<g mask="url(#mask0_2856_6508)">
<path d="M0.833252 16.6668V14.3335C0.833252 13.8613 0.95478 13.4272 1.19784 13.0314C1.44089 12.6356 1.76381 12.3335 2.16659 12.1252C3.0277 11.6946 3.9027 11.3717 4.79158 11.1564C5.68047 10.9411 6.58325 10.8335 7.49992 10.8335C8.41658 10.8335 9.31936 10.9411 10.2083 11.1564C11.0971 11.3717 11.9721 11.6946 12.8333 12.1252C13.236 12.3335 13.5589 12.6356 13.802 13.0314C14.0451 13.4272 14.1666 13.8613 14.1666 14.3335V16.6668H0.833252ZM15.8333 16.6668V14.1668C15.8333 13.5557 15.6631 12.9689 15.3228 12.4064C14.9826 11.8439 14.4999 11.3613 13.8749 10.9585C14.5833 11.0418 15.2499 11.1842 15.8749 11.3856C16.4999 11.587 17.0833 11.8335 17.6249 12.1252C18.1249 12.4029 18.5069 12.712 18.7707 13.0522C19.0346 13.3925 19.1666 13.7641 19.1666 14.1668V16.6668H15.8333ZM7.49992 10.0002C6.58325 10.0002 5.79853 9.67377 5.14575 9.021C4.49297 8.36822 4.16658 7.5835 4.16658 6.66683C4.16658 5.75016 4.49297 4.96544 5.14575 4.31266C5.79853 3.65989 6.58325 3.3335 7.49992 3.3335C8.41658 3.3335 9.20131 3.65989 9.85408 4.31266C10.5069 4.96544 10.8333 5.75016 10.8333 6.66683C10.8333 7.5835 10.5069 8.36822 9.85408 9.021C9.20131 9.67377 8.41658 10.0002 7.49992 10.0002ZM15.8333 6.66683C15.8333 7.5835 15.5069 8.36822 14.8541 9.021C14.2013 9.67377 13.4166 10.0002 12.4999 10.0002C12.3471 10.0002 12.1527 9.9828 11.9166 9.94808C11.6805 9.91336 11.486 9.87516 11.3333 9.8335C11.7083 9.38905 11.9964 8.896 12.1978 8.35433C12.3992 7.81266 12.4999 7.25016 12.4999 6.66683C12.4999 6.0835 12.3992 5.521 12.1978 4.97933C11.9964 4.43766 11.7083 3.94461 11.3333 3.50016C11.5277 3.43072 11.7221 3.38558 11.9166 3.36475C12.111 3.34391 12.3055 3.3335 12.4999 3.3335C13.4166 3.3335 14.2013 3.65989 14.8541 4.31266C15.5069 4.96544 15.8333 5.75016 15.8333 6.66683ZM2.49992 15.0002H12.4999V14.3335C12.4999 14.1807 12.4617 14.0418 12.3853 13.9168C12.3089 13.7918 12.2083 13.6946 12.0833 13.6252C11.3333 13.2502 10.5763 12.9689 9.81242 12.7814C9.04853 12.5939 8.2777 12.5002 7.49992 12.5002C6.72214 12.5002 5.95131 12.5939 5.18742 12.7814C4.42353 12.9689 3.66659 13.2502 2.91659 13.6252C2.79159 13.6946 2.69089 13.7918 2.6145 13.9168C2.53811 14.0418 2.49992 14.1807 2.49992 14.3335V15.0002ZM7.49992 8.3335C7.95825 8.3335 8.35061 8.1703 8.677 7.84391C9.00339 7.51752 9.16658 7.12516 9.16658 6.66683C9.16658 6.2085 9.00339 5.81614 8.677 5.48975C8.35061 5.16336 7.95825 5.00016 7.49992 5.00016C7.04158 5.00016 6.64922 5.16336 6.32283 5.48975C5.99645 5.81614 5.83325 6.2085 5.83325 6.66683C5.83325 7.12516 5.99645 7.51752 6.32283 7.84391C6.64922 8.1703 7.04158 8.3335 7.49992 8.3335Z" fill="#061543"/>
</g>
</svg>
