<svg width="24" height="25" viewBox="0 0 24 25" fill="none" xmlns="http://www.w3.org/2000/svg">
<mask id="mask0_2856_6550" style="mask-type:alpha" maskUnits="userSpaceOnUse" x="0" y="0" width="24" height="25">
<rect y="0.5" width="24" height="24" fill="#D9D9D9"/>
</mask>
<g mask="url(#mask0_2856_6550)">
<path d="M2 23.5V21.5H22V23.5H2ZM4 20.5V14.5C3.45 13.6 3.025 12.6458 2.725 11.6375C2.425 10.6292 2.275 9.6 2.275 8.55C2.275 7.53333 2.40417 6.53333 2.6625 5.55C2.92083 4.56667 3.225 3.6 3.575 2.65C3.70833 2.3 3.925 2.02083 4.225 1.8125C4.525 1.60417 4.85833 1.5 5.225 1.5C5.74167 1.5 6.18333 1.675 6.55 2.025C6.91667 2.375 7.06667 2.79167 7 3.275L6.725 5.55C6.625 6.35 6.69583 7.10833 6.9375 7.825C7.17917 8.54167 7.54167 9.17083 8.025 9.7125C8.50833 10.2542 9.09167 10.6875 9.775 11.0125C10.4583 11.3375 11.2 11.5 12 11.5C13 11.5 14.0042 11.6042 15.0125 11.8125C16.0208 12.0208 16.9 12.3167 17.65 12.7C18.4 13.0833 18.9792 13.5708 19.3875 14.1625C19.7958 14.7542 20 15.4833 20 16.35V20.5H4ZM6 18.5H18V16.35C18 15.95 17.9 15.5958 17.7 15.2875C17.5 14.9792 17.2167 14.7333 16.85 14.55C16.1667 14.2167 15.375 13.9583 14.475 13.775C13.575 13.5917 12.75 13.5 12 13.5C10.9 13.5 9.87917 13.275 8.9375 12.825C7.99583 12.375 7.19583 11.7708 6.5375 11.0125C5.87917 10.2542 5.38333 9.37917 5.05 8.3875C4.71667 7.39583 4.61667 6.36667 4.75 5.3C4.58333 5.8 4.4625 6.33333 4.3875 6.9C4.3125 7.46667 4.275 8.01667 4.275 8.55C4.275 9.51667 4.44583 10.4458 4.7875 11.3375C5.12917 12.2292 5.53333 13.1 6 13.95V18.5ZM12 10.5C10.9 10.5 9.95833 10.1083 9.175 9.325C8.39167 8.54167 8 7.6 8 6.5C8 5.4 8.39167 4.45833 9.175 3.675C9.95833 2.89167 10.9 2.5 12 2.5C13.1 2.5 14.0417 2.89167 14.825 3.675C15.6083 4.45833 16 5.4 16 6.5C16 7.6 15.6083 8.54167 14.825 9.325C14.0417 10.1083 13.1 10.5 12 10.5ZM12 8.5C12.55 8.5 13.0208 8.30417 13.4125 7.9125C13.8042 7.52083 14 7.05 14 6.5C14 5.95 13.8042 5.47917 13.4125 5.0875C13.0208 4.69583 12.55 4.5 12 4.5C11.45 4.5 10.9792 4.69583 10.5875 5.0875C10.1958 5.47917 10 5.95 10 6.5C10 7.05 10.1958 7.52083 10.5875 7.9125C10.9792 8.30417 11.45 8.5 12 8.5ZM8 20.5V19.575C8 18.4583 8.3875 17.5 9.1625 16.7C9.9375 15.9 10.8833 15.5 12 15.5H16V17.5H12C11.4333 17.5 10.9583 17.7042 10.575 18.1125C10.1917 18.5208 10 19.0083 10 19.575V20.5H8Z" fill="#3F5DBA"/>
</g>
</svg>
