<svg width="24" height="25" viewBox="0 0 24 25" fill="none" xmlns="http://www.w3.org/2000/svg">
<mask id="mask0_2688_3840" style="mask-type:alpha" maskUnits="userSpaceOnUse" x="0" y="0" width="24" height="25">
<rect y="0.5" width="24" height="24" fill="#D9D9D9"/>
</mask>
<g mask="url(#mask0_2688_3840)">
<path d="M6 14.5H14V12.5H6V14.5ZM6 11.5H18V9.5H6V11.5ZM6 8.5H18V6.5H6V8.5ZM2 22.5V4.5C2 3.95 2.19583 3.47917 2.5875 3.0875C2.97917 2.69583 3.45 2.5 4 2.5H20C20.55 2.5 21.0208 2.69583 21.4125 3.0875C21.8042 3.47917 22 3.95 22 4.5V16.5C22 17.05 21.8042 17.5208 21.4125 17.9125C21.0208 18.3042 20.55 18.5 20 18.5H6L2 22.5ZM5.15 16.5H20V4.5H4V17.625L5.15 16.5Z" fill="#3F5DBA"/>
</g>
</svg>
