<svg width="20" height="20" viewBox="0 0 20 20" fill="none" xmlns="http://www.w3.org/2000/svg">
<mask id="mask0_2856_6514" style="mask-type:alpha" maskUnits="userSpaceOnUse" x="0" y="0" width="20" height="20">
<rect width="20" height="20" fill="#D9D9D9"/>
</mask>
<g mask="url(#mask0_2856_6514)">
<path d="M13.3334 17.5C12.8751 17.5 12.4827 17.3368 12.1563 17.0104C11.8299 16.684 11.6667 16.2917 11.6667 15.8333V12.5C11.6667 12.0417 11.8299 11.6493 12.1563 11.3229C12.4827 10.9965 12.8751 10.8333 13.3334 10.8333H16.6667C17.1251 10.8333 17.5174 10.9965 17.8438 11.3229C18.1702 11.6493 18.3334 12.0417 18.3334 12.5V15.8333C18.3334 16.2917 18.1702 16.684 17.8438 17.0104C17.5174 17.3368 17.1251 17.5 16.6667 17.5H13.3334ZM13.3334 15.8333H16.6667V12.5H13.3334V15.8333ZM1.66675 15V13.3333H9.16675V15H1.66675ZM13.3334 9.16667C12.8751 9.16667 12.4827 9.00347 12.1563 8.67708C11.8299 8.35069 11.6667 7.95833 11.6667 7.5V4.16667C11.6667 3.70833 11.8299 3.31597 12.1563 2.98958C12.4827 2.66319 12.8751 2.5 13.3334 2.5H16.6667C17.1251 2.5 17.5174 2.66319 17.8438 2.98958C18.1702 3.31597 18.3334 3.70833 18.3334 4.16667V7.5C18.3334 7.95833 18.1702 8.35069 17.8438 8.67708C17.5174 9.00347 17.1251 9.16667 16.6667 9.16667H13.3334ZM13.3334 7.5H16.6667V4.16667H13.3334V7.5ZM1.66675 6.66667V5H9.16675V6.66667H1.66675Z" fill="#061543"/>
</g>
</svg>
