<svg width="24" height="24" viewBox="0 0 24 24" fill="none" xmlns="http://www.w3.org/2000/svg">
<mask id="mask0_2688_5137" style="mask-type:alpha" maskUnits="userSpaceOnUse" x="0" y="0" width="24" height="24">
<rect width="24" height="24" fill="#D9D9D9"/>
</mask>
<g mask="url(#mask0_2688_5137)">
<path d="M8.4 21C6.88333 21 5.60417 20.4792 4.5625 19.4375C3.52083 18.3958 3 17.1167 3 15.6C3 14.9667 3.10833 14.35 3.325 13.75C3.54167 13.15 3.85 12.6083 4.25 12.125L7.8 7.85L5.375 3H18.625L16.2 7.85L19.75 12.125C20.15 12.6083 20.4583 13.15 20.675 13.75C20.8917 14.35 21 14.9667 21 15.6C21 17.1167 20.475 18.3958 19.425 19.4375C18.375 20.4792 17.1 21 15.6 21H8.4ZM12 16C11.45 16 10.9792 15.8042 10.5875 15.4125C10.1958 15.0208 10 14.55 10 14C10 13.45 10.1958 12.9792 10.5875 12.5875C10.9792 12.1958 11.45 12 12 12C12.55 12 13.0208 12.1958 13.4125 12.5875C13.8042 12.9792 14 13.45 14 14C14 14.55 13.8042 15.0208 13.4125 15.4125C13.0208 15.8042 12.55 16 12 16ZM9.625 7H14.375L15.375 5H8.625L9.625 7ZM8.4 19H15.6C16.55 19 17.3542 18.6708 18.0125 18.0125C18.6708 17.3542 19 16.55 19 15.6C19 15.2 18.9292 14.8125 18.7875 14.4375C18.6458 14.0625 18.45 13.725 18.2 13.425L14.525 9H9.5L5.8 13.4C5.55 13.7 5.35417 14.0417 5.2125 14.425C5.07083 14.8083 5 15.2 5 15.6C5 16.55 5.32917 17.3542 5.9875 18.0125C6.64583 18.6708 7.45 19 8.4 19Z" fill="#3F5DBA"/>
</g>
</svg>
