<svg width="24" height="25" viewBox="0 0 24 25" fill="none" xmlns="http://www.w3.org/2000/svg">
<mask id="mask0_2182_7249" style="mask-type:alpha" maskUnits="userSpaceOnUse" x="0" y="0" width="24" height="25">
<rect y="0.5" width="24" height="24" fill="#D9D9D9"/>
</mask>
<g mask="url(#mask0_2182_7249)">
<path d="M3.9998 18.5C3.4498 18.5 2.97897 18.3042 2.5873 17.9125C2.19564 17.5208 1.9998 17.05 1.9998 16.5V5.325L0.674805 4L2.0998 2.575L21.8998 22.375L20.4748 23.8L15.1748 18.5H3.9998ZM21.9998 19.625L18.8748 16.5H19.9998V4.5H6.8748L4.8748 2.5H19.9998C20.5498 2.5 21.0206 2.69583 21.4123 3.0875C21.804 3.47917 21.9998 3.95 21.9998 4.5V19.625ZM3.9998 16.5H13.1748L11.1748 14.5H5.9998V12.5H9.1748L8.1748 11.5H5.9998V9.5H6.1748L3.9998 7.325V16.5ZM16.8748 14.5L14.8748 12.5H17.9998V14.5H16.8748ZM13.8748 11.5L11.8748 9.5H17.9998V11.5H13.8748ZM10.8748 8.5L8.8748 6.5H17.9998V8.5H10.8748Z" fill="#BEC4D7"/>
</g>
</svg>
