<svg width="24" height="24" viewBox="0 0 24 24" fill="none" xmlns="http://www.w3.org/2000/svg">
<mask id="mask0_2688_5317" style="mask-type:alpha" maskUnits="userSpaceOnUse" x="0" y="0" width="24" height="24">
<rect width="24" height="24" fill="#D9D9D9"/>
</mask>
<g mask="url(#mask0_2688_5317)">
<path d="M11.9996 22.025C11.7329 22.025 11.4788 21.975 11.2371 21.875C10.9954 21.775 10.7746 21.6333 10.5746 21.45L2.54961 13.425C2.36628 13.225 2.22461 13.0041 2.12461 12.7625C2.02461 12.5208 1.97461 12.2666 1.97461 12C1.97461 11.7333 2.02461 11.475 2.12461 11.225C2.22461 10.975 2.36628 10.7583 2.54961 10.575L10.5746 2.54998C10.7746 2.34998 10.9954 2.20414 11.2371 2.11248C11.4788 2.02081 11.7329 1.97498 11.9996 1.97498C12.2663 1.97498 12.5246 2.02081 12.7746 2.11248C13.0246 2.20414 13.2413 2.34998 13.4246 2.54998L21.4496 10.575C21.6496 10.7583 21.7954 10.975 21.8871 11.225C21.9788 11.475 22.0246 11.7333 22.0246 12C22.0246 12.2666 21.9788 12.5208 21.8871 12.7625C21.7954 13.0041 21.6496 13.225 21.4496 13.425L13.4246 21.45C13.2413 21.6333 13.0246 21.775 12.7746 21.875C12.5246 21.975 12.2663 22.025 11.9996 22.025ZM11.9996 20.025L20.0246 12L11.9996 3.97498L3.97461 12L11.9996 20.025ZM10.9996 13H12.9996V6.99998H10.9996V13ZM11.9996 16C12.2829 16 12.5204 15.9041 12.7121 15.7125C12.9038 15.5208 12.9996 15.2833 12.9996 15C12.9996 14.7166 12.9038 14.4791 12.7121 14.2875C12.5204 14.0958 12.2829 14 11.9996 14C11.7163 14 11.4788 14.0958 11.2871 14.2875C11.0954 14.4791 10.9996 14.7166 10.9996 15C10.9996 15.2833 11.0954 15.5208 11.2871 15.7125C11.4788 15.9041 11.7163 16 11.9996 16Z" fill="#7F1111"/>
</g>
</svg>
